<?xml version="1.0" encoding="UTF-8"?>
<svg id="Capa_1" data-name="Capa 1" xmlns="http://www.w3.org/2000/svg" version="1.1" viewBox="0 0 17 17">
  <defs>
    <style>
      .cls-1 {
        fill: #151a0f;
        stroke-width: 0px;
      }
    </style>
  </defs>
  <rect class="cls-1" x="9.1" y="13.8" width="3.1" height="3.1"/>
  <rect class="cls-1" x="13.4" y="13.8" width="3.1" height="3.1"/>
  <rect class="cls-1" x="4.8" y="13.8" width="3.1" height="3.1"/>
  <rect class="cls-1" x=".5" y="13.8" width="3.1" height="3.1"/>
  <rect class="cls-1" x="9.1" y=".9" width="3.1" height="3.1"/>
  <rect class="cls-1" x="13.4" y=".9" width="3.1" height="3.1"/>
  <rect class="cls-1" x="4.8" y=".9" width="3.1" height="3.1"/>
  <rect class="cls-1" x=".5" y=".9" width="3.1" height="3.1"/>
  <rect class="cls-1" x="9.1" y="5.2" width="3.1" height="3.1"/>
  <rect class="cls-1" x="13.4" y="5.2" width="3.1" height="3.1"/>
  <rect class="cls-1" x="4.8" y="5.2" width="3.1" height="3.1"/>
  <rect class="cls-1" x=".5" y="5.2" width="3.1" height="3.1"/>
  <rect class="cls-1" x="9.1" y="9.5" width="3.1" height="3.1"/>
  <rect class="cls-1" x="13.4" y="9.5" width="3.1" height="3.1"/>
  <rect class="cls-1" x="4.8" y="9.5" width="3.1" height="3.1"/>
  <rect class="cls-1" x=".5" y="9.5" width="3.1" height="3.1"/>
</svg>