<svg width="13" height="12" viewBox="0 0 13 12" fill="none" xmlns="http://www.w3.org/2000/svg">
<path d="M5.13642 10.9992C5.39939 10.9992 5.61256 10.786 5.61256 10.523C5.61256 10.2601 5.39939 10.0469 5.13642 10.0469C4.87345 10.0469 4.66028 10.2601 4.66028 10.523C4.66028 10.786 4.87345 10.9992 5.13642 10.9992Z" stroke="white" stroke-linecap="round" stroke-linejoin="round"/>
<path d="M10.3747 10.9992C10.6377 10.9992 10.8508 10.786 10.8508 10.523C10.8508 10.2601 10.6377 10.0469 10.3747 10.0469C10.1117 10.0469 9.89856 10.2601 9.89856 10.523C9.89856 10.786 10.1117 10.9992 10.3747 10.9992Z" stroke="white" stroke-linecap="round" stroke-linejoin="round"/>
<path d="M1.32825 1H3.23282L4.50888 7.37555C4.55242 7.59477 4.67168 7.79168 4.84577 7.93183C5.01987 8.07197 5.23771 8.14642 5.46117 8.14214H10.0893C10.3127 8.14642 10.5306 8.07197 10.7047 7.93183C10.8788 7.79168 10.998 7.59477 11.0416 7.37555L11.8034 3.38071H3.70896" stroke="white" stroke-linecap="round" stroke-linejoin="round"/>
</svg>
