<svg width="36" height="36" viewBox="0 0 36 36" fill="none" xmlns="http://www.w3.org/2000/svg">
<path d="M11.7133 20.5075C11.3139 20.5075 10.9235 20.3891 10.5915 20.1672C10.2594 19.9453 10.0006 19.63 9.84778 19.261C9.69495 18.892 9.65496 18.486 9.73288 18.0943C9.81079 17.7027 10.0031 17.3429 10.2855 17.0605C10.5679 16.7781 10.9277 16.5858 11.3194 16.5078C11.7111 16.4299 12.1171 16.4699 12.486 16.6228C12.855 16.7756 13.1704 17.0344 13.3922 17.3665C13.6141 17.6985 13.7325 18.0889 13.7325 18.4883C13.7325 19.0238 13.5198 19.5374 13.1411 19.9161C12.7624 20.2948 12.2488 20.5075 11.7133 20.5075ZM23.8287 16.469C23.4293 16.469 23.0389 16.5875 22.7069 16.8093C22.3748 17.0312 22.116 17.3466 21.9632 17.7156C21.8103 18.0845 21.7703 18.4905 21.8483 18.8822C21.9262 19.2739 22.1185 19.6337 22.4009 19.9161C22.6833 20.1985 23.0431 20.3908 23.4348 20.4687C23.8265 20.5466 24.2324 20.5066 24.6014 20.3538C24.9704 20.201 25.2857 19.9422 25.5076 19.6101C25.7295 19.278 25.8479 18.8876 25.8479 18.4883C25.8479 17.9527 25.6352 17.4391 25.2565 17.0605C24.8778 16.6818 24.3642 16.469 23.8287 16.469ZM21.764 24.0799C20.5651 24.824 19.1821 25.2183 17.771 25.2183C16.3599 25.2183 14.9769 24.824 13.778 24.0799C13.4758 23.8893 13.1104 23.8266 12.762 23.9055C12.4136 23.9844 12.1108 24.1984 11.9203 24.5005C11.7297 24.8027 11.667 25.1681 11.7459 25.5165C11.8248 25.8649 12.0388 26.1677 12.341 26.3582C13.97 27.3738 15.8513 27.9121 17.771 27.9121C19.6907 27.9121 21.572 27.3738 23.201 26.3582C23.5032 26.1677 23.7172 25.8649 23.7961 25.5165C23.875 25.1681 23.8123 24.8027 23.6217 24.5005C23.4312 24.1984 23.1284 23.9844 22.78 23.9055C22.4316 23.8266 22.0662 23.8893 21.764 24.0799ZM35.271 18.4883C35.271 21.9494 34.2446 25.3329 32.3217 28.2108C30.3988 31.0886 27.6657 33.3316 24.468 34.6562C21.2703 35.9807 17.7516 36.3273 14.3569 35.652C10.9623 34.9768 7.84405 33.3101 5.39663 30.8626C2.94922 28.4152 1.2825 25.297 0.607262 21.9024C-0.0679797 18.5077 0.278579 14.989 1.60311 11.7913C2.92764 8.59361 5.17066 5.86049 8.04852 3.93756C10.9264 2.01464 14.3098 0.988281 17.771 0.988281C22.4108 0.993181 26.8591 2.8385 30.14 6.11932C33.4208 9.40015 35.2661 13.8485 35.271 18.4883ZM32.5787 18.4883C32.574 14.6764 31.1013 11.0127 28.4664 8.25815C25.8315 5.50355 22.2369 3.86965 18.4289 3.69573C16.4787 6.43684 16.4248 9.04501 16.4248 9.0652C16.4248 9.42222 16.5667 9.76462 16.8191 10.0171C17.0716 10.2695 17.414 10.4114 17.771 10.4114C18.128 10.4114 18.4704 10.2695 18.7229 10.0171C18.9753 9.76462 19.1172 9.42222 19.1172 9.0652C19.1172 8.70818 19.259 8.36578 19.5114 8.11333C19.7639 7.86088 20.1063 7.71905 20.4633 7.71905C20.8203 7.71905 21.1627 7.86088 21.4152 8.11333C21.6676 8.36578 21.8095 8.70818 21.8095 9.0652C21.8095 10.1363 21.384 11.1635 20.6266 11.9208C19.8693 12.6782 18.8421 13.1037 17.771 13.1037C16.6999 13.1037 15.6727 12.6782 14.9154 11.9208C14.158 11.1635 13.7325 10.1363 13.7325 9.0652C13.7325 8.94237 13.7544 6.65895 15.1561 3.91112C12.3836 4.40853 9.81052 5.68638 7.73875 7.59474C5.66698 9.50309 4.18248 11.9628 3.45946 14.6851C2.73643 17.4075 2.80487 20.2796 3.65675 22.9644C4.50863 25.6493 6.10861 28.0355 8.26893 29.843C10.4292 31.6505 13.0603 32.8043 15.8533 33.1691C18.6463 33.5339 21.4855 33.0945 24.0375 31.9024C26.5896 30.7104 28.7488 28.8152 30.2616 26.4392C31.7745 24.0632 32.5783 21.305 32.5787 18.4883Z" fill="#728C54"/>
</svg>
