<svg width="121" height="121" viewBox="0 0 121 121" fill="none" xmlns="http://www.w3.org/2000/svg">
<circle cx="60.9204" cy="60.8398" r="59.4" stroke="#728C54" stroke-width="1.2" stroke-dasharray="4 4"/>
<path d="M60.9205 64.6499C59.0603 64.6499 57.242 64.0983 55.6953 63.0649C54.1487 62.0314 52.9432 60.5626 52.2314 58.844C51.5195 57.1255 51.3333 55.2344 51.6962 53.41C52.0591 51.5856 52.9548 49.9098 54.2701 48.5945C55.5854 47.2792 57.2612 46.3835 59.0856 46.0206C60.91 45.6577 62.8011 45.8439 64.5196 46.5558C66.2382 47.2676 67.707 48.4731 68.7405 50.0197C69.7739 51.5664 70.3255 53.3847 70.3255 55.2449C70.3255 57.7392 69.3346 60.1314 67.5708 61.8952C65.807 63.659 63.4148 64.6499 60.9205 64.6499ZM60.9205 47.393C59.3646 47.393 57.8436 47.8545 56.5501 48.7192C55.2565 49.5839 54.2486 50.8128 53.6537 52.2505C53.0588 53.6883 52.9038 55.2701 53.2083 56.796C53.5127 58.3218 54.2629 59.7231 55.364 60.8224C56.4651 61.9217 57.8675 62.6698 59.3938 62.9718C60.9201 63.2739 62.5017 63.1164 63.9385 62.5193C65.3753 61.9221 66.6027 60.9122 67.4653 59.6174C68.328 58.3225 68.7871 56.8008 68.7847 55.2449C68.7814 53.1613 67.9514 51.1642 66.477 49.692C65.0025 48.2198 63.0041 47.393 60.9205 47.393Z" fill="#344026"/>
<path d="M75.709 75.742C75.5052 75.7387 75.3108 75.6555 75.1678 75.5102C75.0249 75.3649 74.9447 75.1692 74.9448 74.9654C74.9382 72.229 73.8475 69.6067 71.9114 67.6729C69.9753 65.7391 67.3517 64.6515 64.6153 64.6482H57.2194C54.4851 64.6547 51.8647 65.7438 49.9313 67.6772C47.9978 69.6107 46.9088 72.2311 46.9022 74.9654C46.9161 75.0747 46.9065 75.1858 46.8741 75.2912C46.8418 75.3965 46.7873 75.4938 46.7145 75.5765C46.6416 75.6592 46.5519 75.7254 46.4515 75.7708C46.351 75.8161 46.2421 75.8396 46.1318 75.8396C46.0216 75.8396 45.9127 75.8161 45.8122 75.7708C45.7118 75.7254 45.6221 75.6592 45.5492 75.5765C45.4764 75.4938 45.4219 75.3965 45.3895 75.2912C45.3572 75.1858 45.3476 75.0747 45.3614 74.9654C45.368 71.8225 46.6194 68.8101 48.8418 66.5877C51.0642 64.3653 54.0765 63.1139 57.2194 63.1074H64.6153C67.7603 63.1107 70.7758 64.3607 73.0009 66.5834C75.2259 68.8061 76.479 71.8203 76.4856 74.9654C76.4856 75.1714 76.4037 75.3689 76.2581 75.5145C76.1125 75.6601 75.9149 75.742 75.709 75.742Z" fill="#344026"/>
</svg>
