<svg width="121" height="121" viewBox="0 0 121 121" fill="none" xmlns="http://www.w3.org/2000/svg">
<circle cx="60.3391" cy="60.8398" r="59.4" stroke="#728C54" stroke-width="1.2" stroke-dasharray="4 4"/>
<g clip-path="url(#clip0_4569_8167)">
<path d="M64.3341 83.4648H52.3341C52.182 83.4456 52.0421 83.3714 51.9407 83.2564C51.8393 83.1413 51.7833 82.9932 51.7833 82.8398C51.7833 82.6865 51.8393 82.5384 51.9407 82.4233C52.0421 82.3083 52.182 82.2341 52.3341 82.2148H63.7141V73.4648H34.9641V80.8348C34.9641 81.1991 35.1081 81.5486 35.3648 81.8071C35.6214 82.0656 35.9698 82.2122 36.3341 82.2148H42.3341C42.4228 82.2036 42.5129 82.2114 42.5984 82.2376C42.6839 82.2639 42.7628 82.3081 42.8299 82.3672C42.8969 82.4263 42.9507 82.499 42.9875 82.5805C43.0243 82.662 43.0433 82.7504 43.0433 82.8398C43.0433 82.9293 43.0243 83.0177 42.9875 83.0992C42.9507 83.1807 42.8969 83.2534 42.8299 83.3125C42.7628 83.3716 42.6839 83.4158 42.5984 83.4421C42.5129 83.4683 42.4228 83.4761 42.3341 83.4648H36.3341C35.6383 83.4622 34.9719 83.1839 34.4809 82.691C33.9898 82.1981 33.7141 81.5306 33.7141 80.8348V72.8348C33.7141 72.6704 33.7794 72.5127 33.8957 72.3964C34.012 72.2802 34.1697 72.2148 34.3341 72.2148H64.3341C64.4995 72.2148 64.6582 72.2798 64.7761 72.3958C64.894 72.5118 64.9615 72.6695 64.9641 72.8348V82.8348C64.9641 83.0019 64.8977 83.1622 64.7796 83.2803C64.6614 83.3985 64.5012 83.4648 64.3341 83.4648Z" fill="#344026"/>
<path d="M47.3341 87.4651C46.2206 87.4651 45.1321 87.1349 44.2062 86.5163C43.2804 85.8976 42.5588 85.0183 42.1327 83.9896C41.7065 82.9608 41.595 81.8288 41.8123 80.7367C42.0295 79.6446 42.5657 78.6414 43.3531 77.8541C44.1405 77.0667 45.1436 76.5305 46.2357 76.3133C47.3279 76.096 48.4599 76.2075 49.4886 76.6336C50.5174 77.0598 51.3966 77.7814 52.0153 78.7072C52.6339 79.6331 52.9641 80.7216 52.9641 81.8351C52.9641 82.5744 52.8185 83.3065 52.5355 83.9896C52.2526 84.6727 51.8379 85.2933 51.3151 85.8161C50.7923 86.3389 50.1717 86.7536 49.4886 87.0365C48.8055 87.3195 48.0734 87.4651 47.3341 87.4651ZM47.3341 77.4651C46.4674 77.4651 45.6202 77.7222 44.8997 78.2039C44.1792 78.6857 43.6178 79.3703 43.2866 80.1712C42.9553 80.9722 42.8692 81.8534 43.039 82.7033C43.2088 83.5532 43.627 84.3336 44.2405 84.9457C44.8541 85.5579 45.6355 85.9743 46.4858 86.1421C47.336 86.31 48.217 86.2218 49.0172 85.8888C49.8174 85.5557 50.5007 84.9928 50.9808 84.2712C51.4609 83.5496 51.7161 82.7018 51.7141 81.8351C51.7141 81.2604 51.6007 80.6913 51.3805 80.1604C51.1603 79.6296 50.8375 79.1474 50.4306 78.7415C50.0238 78.3356 49.5408 78.0139 49.0095 77.7949C48.4782 77.5758 47.9088 77.4638 47.3341 77.4651Z" fill="#344026"/>
<path d="M47.3341 84.4651C46.8139 84.4651 46.3055 84.3108 45.873 84.0218C45.4405 83.7329 45.1034 83.3221 44.9043 82.8415C44.7052 82.361 44.6532 81.8322 44.7546 81.322C44.8561 80.8118 45.1066 80.3432 45.4744 79.9754C45.8422 79.6076 46.3108 79.3571 46.821 79.2556C47.3312 79.1541 47.86 79.2062 48.3406 79.4053C48.8211 79.6043 49.2319 79.9414 49.5209 80.3739C49.8099 80.8064 49.9641 81.3149 49.9641 81.8351C49.9641 82.5326 49.687 83.2015 49.1938 83.6948C48.7006 84.188 48.0316 84.4651 47.3341 84.4651ZM47.3341 80.4651C47.0607 80.4651 46.7935 80.5463 46.5664 80.6984C46.3392 80.8504 46.1624 81.0666 46.0582 81.3193C45.9541 81.5721 45.9273 81.85 45.9814 82.118C46.0355 82.386 46.1679 82.6318 46.3619 82.8244C46.5559 83.017 46.8027 83.1477 47.0711 83.1998C47.3394 83.2519 47.6172 83.2231 47.8692 83.1171C48.1212 83.0112 48.336 82.8327 48.4864 82.6045C48.6368 82.3762 48.7161 82.1084 48.7141 81.8351C48.7115 81.4708 48.5649 81.1224 48.3064 80.8657C48.0479 80.6091 47.6984 80.4651 47.3341 80.4651Z" fill="#344026"/>
<path d="M84.3341 83.4648H80.3341C80.182 83.4456 80.0421 83.3714 79.9407 83.2564C79.8393 83.1413 79.7833 82.9932 79.7833 82.8398C79.7833 82.6865 79.8393 82.5384 79.9407 82.4233C80.0421 82.3083 80.182 82.2341 80.3341 82.2148H84.3341C84.7001 82.2148 85.0511 82.0695 85.3099 81.8106C85.5687 81.5518 85.7141 81.2008 85.7141 80.8348V68.8348C85.7115 68.4706 85.5649 68.1221 85.3064 67.8655C85.0479 67.6089 84.6984 67.4648 84.3341 67.4648H70.3341C70.1688 67.4622 70.0111 67.3947 69.8951 67.2768C69.7791 67.159 69.7141 67.0002 69.7141 66.8348V49.4648H64.9641V82.2148H70.3341C70.4228 82.2036 70.5129 82.2114 70.5984 82.2376C70.6839 82.2639 70.7628 82.3081 70.8299 82.3672C70.8969 82.4263 70.9507 82.499 70.9875 82.5805C71.0243 82.662 71.0433 82.7504 71.0433 82.8398C71.0433 82.9293 71.0243 83.0177 70.9875 83.0992C70.9507 83.1806 70.8969 83.2534 70.8299 83.3125C70.7628 83.3716 70.6839 83.4158 70.5984 83.4421C70.5129 83.4683 70.4228 83.4761 70.3341 83.4648H64.3341C64.1688 83.4622 64.0111 83.3947 63.8951 83.2768C63.7791 83.159 63.7141 83.0002 63.7141 82.8348V48.8348C63.7141 48.6704 63.7794 48.5127 63.8957 48.3964C64.012 48.2802 64.1697 48.2148 64.3341 48.2148H70.3341C70.4995 48.2148 70.6582 48.2798 70.7761 48.3958C70.894 48.5118 70.9615 48.6695 70.9641 48.8348V66.2148H84.3341C85.0299 66.2148 85.6973 66.4906 86.1903 66.9816C86.6832 67.4727 86.9615 68.1391 86.9641 68.8348V80.8348C86.9641 81.5324 86.687 82.2013 86.1938 82.6945C85.7006 83.1878 85.0316 83.4648 84.3341 83.4648Z" fill="#344026"/>
<path d="M75.3341 87.4651C74.2206 87.4651 73.1321 87.1349 72.2062 86.5163C71.2804 85.8976 70.5588 85.0183 70.1327 83.9896C69.7065 82.9608 69.595 81.8288 69.8123 80.7367C70.0295 79.6446 70.5657 78.6414 71.3531 77.8541C72.1405 77.0667 73.1436 76.5305 74.2357 76.3133C75.3279 76.096 76.4599 76.2075 77.4886 76.6336C78.5174 77.0598 79.3966 77.7814 80.0153 78.7072C80.6339 79.6331 80.9641 80.7216 80.9641 81.8351C80.9641 82.5744 80.8185 83.3065 80.5355 83.9896C80.2526 84.6727 79.8379 85.2933 79.3151 85.8161C78.7923 86.3389 78.1717 86.7536 77.4886 87.0365C76.8056 87.3195 76.0734 87.4651 75.3341 87.4651ZM75.3341 77.4651C74.4674 77.4651 73.6202 77.7222 72.8997 78.2039C72.1792 78.6857 71.6178 79.3703 71.2866 80.1712C70.9553 80.9722 70.8692 81.8534 71.039 82.7033C71.2088 83.5532 71.627 84.3336 72.2405 84.9457C72.8541 85.5579 73.6355 85.9743 74.4858 86.1421C75.3361 86.31 76.217 86.2218 77.0172 85.8888C77.8174 85.5557 78.5007 84.9928 78.9808 84.2712C79.4609 83.5496 79.7161 82.7018 79.7141 81.8351C79.7141 81.2604 79.6007 80.6913 79.3805 80.1604C79.1603 79.6296 78.8375 79.1474 78.4306 78.7415C78.0238 78.3356 77.5409 78.0139 77.0095 77.7949C76.4782 77.5758 75.9088 77.4638 75.3341 77.4651Z" fill="#344026"/>
<path d="M75.3341 84.4651C74.8139 84.4651 74.3055 84.3108 73.873 84.0218C73.4405 83.7329 73.1034 83.3221 72.9043 82.8415C72.7052 82.361 72.6532 81.8322 72.7546 81.322C72.8561 80.8118 73.1066 80.3432 73.4744 79.9754C73.8422 79.6076 74.3108 79.3571 74.821 79.2556C75.3312 79.1541 75.86 79.2062 76.3406 79.4053C76.8211 79.6043 77.2319 79.9414 77.5209 80.3739C77.8099 80.8064 77.9641 81.3149 77.9641 81.8351C77.9641 82.1805 77.8961 82.5224 77.7639 82.8415C77.6317 83.1606 77.438 83.4506 77.1938 83.6948C76.9496 83.939 76.6596 84.1327 76.3406 84.2649C76.0215 84.3971 75.6795 84.4651 75.3341 84.4651ZM75.3341 80.4651C75.0607 80.4651 74.7935 80.5463 74.5664 80.6984C74.3392 80.8504 74.1624 81.0666 74.0582 81.3193C73.9541 81.5721 73.9273 81.85 73.9814 82.118C74.0355 82.386 74.1679 82.6318 74.3619 82.8244C74.5559 83.017 74.8027 83.1477 75.0711 83.1998C75.3394 83.2519 75.6172 83.2231 75.8692 83.1171C76.1212 83.0112 76.336 82.8327 76.4864 82.6045C76.6368 82.3762 76.7161 82.1084 76.7141 81.8351C76.7115 81.4708 76.5649 81.1224 76.3064 80.8657C76.0479 80.6091 75.6984 80.4651 75.3341 80.4651Z" fill="#344026"/>
<path d="M38.3341 77.4648H34.3341C34.1688 77.4622 34.0111 77.3947 33.8951 77.2768C33.7791 77.159 33.7141 77.0002 33.7141 76.8348V72.8348C33.7141 72.6704 33.7794 72.5127 33.8957 72.3964C34.012 72.2802 34.1697 72.2148 34.3341 72.2148H38.3341C38.4995 72.2148 38.6582 72.2798 38.7761 72.3958C38.894 72.5118 38.9615 72.6695 38.9641 72.8348V76.8348C38.9641 77.0019 38.8977 77.1622 38.7796 77.2803C38.6614 77.3985 38.5012 77.4648 38.3341 77.4648ZM34.9641 76.2148H37.7141V73.4648H34.9641V76.2148Z" fill="#344026"/>
<path d="M64.3341 73.4648H34.3341C34.1688 73.4622 34.0111 73.3947 33.8951 73.2768C33.7791 73.159 33.7141 73.0002 33.7141 72.8348V36.8348C33.7167 36.1408 33.9936 35.4759 34.4844 34.9851C34.9752 34.4944 35.6401 34.2175 36.3341 34.2148H62.3341C63.0299 34.2148 63.6973 34.4906 64.1903 34.9816C64.6832 35.4727 64.9615 36.1391 64.9641 36.8348V72.8348C64.9641 73.0019 64.8977 73.1622 64.7796 73.2803C64.6614 73.3985 64.5012 73.4648 64.3341 73.4648ZM34.9641 72.2148H63.7141V36.8348C63.7115 36.4706 63.5649 36.1221 63.3064 35.8655C63.0479 35.6089 62.6984 35.4648 62.3341 35.4648H36.3341C35.9716 35.4675 35.6246 35.6126 35.3683 35.869C35.1119 36.1254 34.9667 36.4723 34.9641 36.8348V72.2148Z" fill="#344026"/>
<path d="M86.3341 77.4648H82.3341C82.1688 77.4622 82.0111 77.3947 81.8951 77.2768C81.7791 77.159 81.7141 77.0002 81.7141 76.8348V72.8348C81.7141 72.6704 81.7794 72.5127 81.8957 72.3964C82.012 72.2802 82.1697 72.2148 82.3341 72.2148H86.3341C86.4995 72.2148 86.6582 72.2798 86.7761 72.3958C86.894 72.5118 86.9615 72.6695 86.9641 72.8348V76.8348C86.9641 77.0019 86.8977 77.1622 86.7796 77.2803C86.6614 77.3985 86.5012 77.4648 86.3341 77.4648ZM82.9641 76.2148H85.7141V73.4648H82.9641V76.2148Z" fill="#344026"/>
<path d="M83.3341 67.4648H70.3341C70.1688 67.4622 70.0111 67.3947 69.8951 67.2768C69.7791 67.159 69.7141 67.0002 69.7141 66.8348V48.8348C69.7141 48.6704 69.7794 48.5127 69.8957 48.3964C70.012 48.2802 70.1697 48.2148 70.3341 48.2148H76.8141C77.3875 48.2154 77.9449 48.4032 78.4017 48.7498C78.8584 49.0964 79.1893 49.5828 79.3441 50.1348L83.9441 66.6748C83.9686 66.7681 83.9714 66.8657 83.9522 66.9602C83.933 67.0547 83.8923 67.1436 83.8334 67.2199C83.7745 67.2962 83.6988 67.358 83.6123 67.4004C83.5257 67.4429 83.4305 67.4649 83.3341 67.4648ZM70.9641 66.2148H82.5141L78.1441 50.4748C78.0614 50.1861 77.8868 49.9323 77.6468 49.7518C77.4068 49.5714 77.1144 49.4741 76.8141 49.4748H70.9641V66.2148Z" fill="#344026"/>
</g>
<defs>
<clipPath id="clip0_4569_8167">
<rect width="53.25" height="53.25" fill="white" transform="translate(33.7141 34.2148)"/>
</clipPath>
</defs>
</svg>
