<svg width="121" height="121" viewBox="0 0 121 121" fill="none" xmlns="http://www.w3.org/2000/svg">
<circle cx="60.0128" cy="60.8398" r="59.4" stroke="#728C54" stroke-width="1.2" stroke-dasharray="4 4"/>
<path d="M67.1601 44.6241H62.1601C62.0079 44.6049 61.8681 44.5307 61.7667 44.4157C61.6653 44.3006 61.6093 44.1525 61.6093 43.9991C61.6093 43.8458 61.6653 43.6977 61.7667 43.5826C61.8681 43.4675 62.0079 43.3934 62.1601 43.3741H67.1601C67.2488 43.3629 67.3389 43.3707 67.4244 43.3969C67.5098 43.4232 67.5888 43.4674 67.6558 43.5265C67.7229 43.5856 67.7767 43.6583 67.8135 43.7398C67.8503 43.8213 67.8693 43.9097 67.8693 43.9991C67.8693 44.0886 67.8503 44.177 67.8135 44.2585C67.7767 44.3399 67.7229 44.4127 67.6558 44.4718C67.5888 44.5309 67.5098 44.5751 67.4244 44.6013C67.3389 44.6276 67.2488 44.6354 67.1601 44.6241Z" fill="#344026"/>
<path d="M59.1601 44.6241H56.1601C56.0079 44.6049 55.8681 44.5307 55.7667 44.4157C55.6653 44.3006 55.6093 44.1525 55.6093 43.9991C55.6093 43.8458 55.6653 43.6977 55.7667 43.5826C55.8681 43.4675 56.0079 43.3934 56.1601 43.3741H59.1601C59.2488 43.3629 59.3389 43.3707 59.4244 43.3969C59.5099 43.4232 59.5888 43.4674 59.6558 43.5265C59.7229 43.5856 59.7767 43.6583 59.8135 43.7398C59.8503 43.8213 59.8693 43.9097 59.8693 43.9991C59.8693 44.0886 59.8503 44.177 59.8135 44.2585C59.7767 44.3399 59.7229 44.4127 59.6558 44.4718C59.5888 44.5309 59.5099 44.5751 59.4244 44.6013C59.3389 44.6276 59.2488 44.6354 59.1601 44.6241Z" fill="#344026"/>
<path d="M67.1601 47.6241H56.1601C56.0079 47.6049 55.8681 47.5307 55.7667 47.4157C55.6653 47.3006 55.6093 47.1525 55.6093 46.9991C55.6093 46.8458 55.6653 46.6977 55.7667 46.5826C55.8681 46.4675 56.0079 46.3934 56.1601 46.3741H67.1601C67.2488 46.3629 67.3389 46.3707 67.4244 46.3969C67.5099 46.4232 67.5888 46.4674 67.6558 46.5265C67.7229 46.5856 67.7767 46.6583 67.8135 46.7398C67.8503 46.8213 67.8693 46.9097 67.8693 46.9991C67.8693 47.0886 67.8503 47.177 67.8135 47.2585C67.7767 47.3399 67.7229 47.4127 67.6558 47.4718C67.5888 47.5309 67.5099 47.5751 67.4244 47.6013C67.3389 47.6276 67.2488 47.6354 67.1601 47.6241Z" fill="#344026"/>
<path d="M75.1601 58.6241H64.1601C64.0079 58.6049 63.8681 58.5307 63.7667 58.4157C63.6653 58.3006 63.6093 58.1525 63.6093 57.9991C63.6093 57.8458 63.6653 57.6977 63.7667 57.5826C63.8681 57.4675 64.0079 57.3934 64.1601 57.3741H75.1601C75.2488 57.3629 75.3389 57.3707 75.4244 57.3969C75.5099 57.4232 75.5888 57.4674 75.6558 57.5265C75.7229 57.5856 75.7767 57.6583 75.8135 57.7398C75.8503 57.8213 75.8693 57.9097 75.8693 57.9991C75.8693 58.0886 75.8503 58.177 75.8135 58.2585C75.7767 58.3399 75.7229 58.4127 75.6558 58.4718C75.5888 58.5309 75.5099 58.5751 75.4244 58.6013C75.3389 58.6276 75.2488 58.6354 75.1601 58.6241Z" fill="#344026"/>
<path d="M61.1601 58.6241H56.1601C56.0079 58.6049 55.8681 58.5307 55.7667 58.4157C55.6653 58.3006 55.6093 58.1525 55.6093 57.9991C55.6093 57.8458 55.6653 57.6977 55.7667 57.5826C55.8681 57.4675 56.0079 57.3934 56.1601 57.3741H61.1601C61.2488 57.3629 61.3389 57.3707 61.4244 57.3969C61.5099 57.4232 61.5888 57.4674 61.6558 57.5265C61.7229 57.5856 61.7767 57.6583 61.8135 57.7398C61.8503 57.8213 61.8693 57.9097 61.8693 57.9991C61.8693 58.0886 61.8503 58.177 61.8135 58.2585C61.7767 58.3399 61.7229 58.4127 61.6558 58.4718C61.5888 58.5309 61.5099 58.5751 61.4244 58.6013C61.3389 58.6276 61.2488 58.6354 61.1601 58.6241Z" fill="#344026"/>
<path d="M75.1601 55.6241H71.1601C71.0079 55.6049 70.8681 55.5307 70.7667 55.4157C70.6653 55.3006 70.6093 55.1525 70.6093 54.9991C70.6093 54.8458 70.6653 54.6977 70.7667 54.5826C70.8681 54.4675 71.0079 54.3934 71.1601 54.3741H75.1601C75.2488 54.3629 75.3389 54.3707 75.4244 54.3969C75.5099 54.4232 75.5888 54.4674 75.6558 54.5265C75.7229 54.5856 75.7767 54.6583 75.8135 54.7398C75.8503 54.8213 75.8693 54.9097 75.8693 54.9991C75.8693 55.0886 75.8503 55.177 75.8135 55.2585C75.7767 55.3399 75.7229 55.4127 75.6558 55.4718C75.5888 55.5309 75.5099 55.5751 75.4244 55.6013C75.3389 55.6276 75.2488 55.6354 75.1601 55.6241Z" fill="#344026"/>
<path d="M68.1601 55.6241H56.1601C56.0079 55.6049 55.8681 55.5307 55.7667 55.4157C55.6653 55.3006 55.6093 55.1525 55.6093 54.9991C55.6093 54.8458 55.6653 54.6977 55.7667 54.5826C55.8681 54.4675 56.0079 54.3934 56.1601 54.3741H68.1601C68.2488 54.3629 68.3389 54.3707 68.4244 54.3969C68.5099 54.4232 68.5888 54.4674 68.6558 54.5265C68.7229 54.5856 68.7767 54.6583 68.8135 54.7398C68.8503 54.8213 68.8693 54.9097 68.8693 54.9991C68.8693 55.0886 68.8503 55.177 68.8135 55.2585C68.7767 55.3399 68.7229 55.4127 68.6558 55.4718C68.5888 55.5309 68.5099 55.5751 68.4244 55.6013C68.3389 55.6276 68.2488 55.6354 68.1601 55.6241Z" fill="#344026"/>
<path d="M70.1601 69.6241H56.1601C56.0079 69.6049 55.8681 69.5307 55.7667 69.4157C55.6653 69.3006 55.6093 69.1525 55.6093 68.9991C55.6093 68.8458 55.6653 68.6977 55.7667 68.5826C55.8681 68.4675 56.0079 68.3934 56.1601 68.3741H70.1601C70.2488 68.3629 70.3389 68.3707 70.4244 68.3969C70.5099 68.4232 70.5888 68.4674 70.6558 68.5265C70.7229 68.5856 70.7767 68.6583 70.8135 68.7398C70.8503 68.8213 70.8693 68.9097 70.8693 68.9991C70.8693 69.0886 70.8503 69.177 70.8135 69.2585C70.7767 69.3399 70.7229 69.4127 70.6558 69.4718C70.5888 69.5309 70.5099 69.5751 70.4244 69.6013C70.3389 69.6276 70.2488 69.6354 70.1601 69.6241Z" fill="#344026"/>
<path d="M75.1601 66.6241H67.1601C67.0079 66.6049 66.8681 66.5307 66.7667 66.4157C66.6653 66.3006 66.6093 66.1525 66.6093 65.9991C66.6093 65.8458 66.6653 65.6977 66.7667 65.5826C66.8681 65.4675 67.0079 65.3934 67.1601 65.3741H75.1601C75.2488 65.3629 75.3389 65.3707 75.4244 65.3969C75.5099 65.4232 75.5888 65.4674 75.6558 65.5265C75.7229 65.5856 75.7767 65.6583 75.8135 65.7398C75.8503 65.8213 75.8693 65.9097 75.8693 65.9991C75.8693 66.0886 75.8503 66.177 75.8135 66.2585C75.7767 66.3399 75.7229 66.4127 75.6558 66.4718C75.5888 66.5309 75.5099 66.5751 75.4244 66.6013C75.3389 66.6276 75.2488 66.6354 75.1601 66.6241Z" fill="#344026"/>
<path d="M64.1601 66.6241H56.1601C56.0079 66.6049 55.8681 66.5307 55.7667 66.4157C55.6653 66.3006 55.6093 66.1525 55.6093 65.9991C55.6093 65.8458 55.6653 65.6977 55.7667 65.5826C55.8681 65.4675 56.0079 65.3934 56.1601 65.3741H64.1601C64.2488 65.3629 64.3389 65.3707 64.4244 65.3969C64.5099 65.4232 64.5888 65.4674 64.6558 65.5265C64.7229 65.5856 64.7767 65.6583 64.8135 65.7398C64.8503 65.8213 64.8693 65.9097 64.8693 65.9991C64.8693 66.0886 64.8503 66.177 64.8135 66.2585C64.7767 66.3399 64.7229 66.4127 64.6558 66.4718C64.5888 66.5309 64.5099 66.5751 64.4244 66.6013C64.3389 66.6276 64.2488 66.6354 64.1601 66.6241Z" fill="#344026"/>
<path d="M75.1601 77.6241H65.1601C65.0079 77.6049 64.8681 77.5307 64.7667 77.4157C64.6653 77.3006 64.6093 77.1525 64.6093 76.9991C64.6093 76.8458 64.6653 76.6977 64.7667 76.5826C64.8681 76.4675 65.0079 76.3934 65.1601 76.3741H75.1601C75.2488 76.3629 75.3389 76.3707 75.4244 76.3969C75.5099 76.4232 75.5888 76.4674 75.6558 76.5265C75.7229 76.5856 75.7767 76.6583 75.8135 76.7398C75.8503 76.8213 75.8693 76.9097 75.8693 76.9991C75.8693 77.0886 75.8503 77.177 75.8135 77.2585C75.7767 77.3399 75.7229 77.4127 75.6558 77.4718C75.5888 77.5309 75.5099 77.5751 75.4244 77.6013C75.3389 77.6276 75.2488 77.6354 75.1601 77.6241Z" fill="#344026"/>
<path d="M62.1601 77.6241H56.1601C56.0079 77.6049 55.8681 77.5307 55.7667 77.4157C55.6653 77.3006 55.6093 77.1525 55.6093 76.9991C55.6093 76.8458 55.6653 76.6977 55.7667 76.5826C55.8681 76.4675 56.0079 76.3934 56.1601 76.3741H62.1601C62.2488 76.3629 62.3389 76.3707 62.4244 76.3969C62.5099 76.4232 62.5888 76.4674 62.6558 76.5265C62.7229 76.5856 62.7767 76.6583 62.8135 76.7398C62.8503 76.8213 62.8693 76.9097 62.8693 76.9991C62.8693 77.0886 62.8503 77.177 62.8135 77.2585C62.7767 77.3399 62.7229 77.4127 62.6558 77.4718C62.5888 77.5309 62.5099 77.5751 62.4244 77.6013C62.3389 77.6276 62.2488 77.6354 62.1601 77.6241Z" fill="#344026"/>
<path d="M66.1601 80.6241H56.1601C56.0079 80.6049 55.8681 80.5307 55.7667 80.4157C55.6653 80.3006 55.6093 80.1525 55.6093 79.9991C55.6093 79.8458 55.6653 79.6977 55.7667 79.5826C55.8681 79.4675 56.0079 79.3934 56.1601 79.3741H66.1601C66.2488 79.3629 66.3389 79.3707 66.4244 79.3969C66.5099 79.4232 66.5888 79.4674 66.6558 79.5265C66.7229 79.5856 66.7767 79.6583 66.8135 79.7398C66.8503 79.8213 66.8693 79.9097 66.8693 79.9991C66.8693 80.0886 66.8503 80.177 66.8135 80.2585C66.7767 80.3399 66.7229 80.4127 66.6558 80.4718C66.5888 80.5309 66.5099 80.5751 66.4244 80.6013C66.3389 80.6276 66.2488 80.6354 66.1601 80.6241Z" fill="#344026"/>
<path d="M81.1601 88.625H42.1601C41.9948 88.6224 41.8371 88.5548 41.7211 88.437C41.6051 88.3191 41.5401 88.1604 41.5401 87.995V35.995C41.5401 35.8306 41.6054 35.6729 41.7217 35.5566C41.838 35.4403 41.9957 35.375 42.1601 35.375H71.1601C71.3273 35.3767 71.4878 35.4409 71.6101 35.555L81.6101 45.555C81.7219 45.6747 81.7859 45.8313 81.7901 45.995V87.995C81.7901 88.0777 81.7738 88.1597 81.7421 88.2361C81.7105 88.3125 81.6641 88.382 81.6056 88.4405C81.5471 88.499 81.4776 88.5454 81.4012 88.577C81.3248 88.6087 81.2428 88.625 81.1601 88.625ZM42.7901 87.375H80.5401V46.255L70.9101 36.625H42.7901V87.375Z" fill="#344026"/>
<path d="M81.1601 46.6248H71.1601C70.9948 46.6222 70.8371 46.5546 70.7211 46.4368C70.6051 46.3189 70.5401 46.1601 70.5401 45.9948V35.9948C70.5399 35.8715 70.577 35.751 70.6467 35.6493C70.7163 35.5475 70.8151 35.4692 70.9301 35.4248C71.0435 35.3764 71.1688 35.3629 71.2899 35.386C71.4111 35.4092 71.5225 35.4679 71.6101 35.5548L81.6101 45.5548C81.6969 45.6423 81.7557 45.7538 81.7789 45.8749C81.802 45.9961 81.7885 46.1214 81.7401 46.2348C81.695 46.3514 81.6152 46.4513 81.5115 46.5211C81.4078 46.5908 81.2851 46.627 81.1601 46.6248ZM71.7901 45.3748H79.6601L71.7901 37.5048V45.3748Z" fill="#344026"/>
<path d="M48.9301 48.125C48.7627 48.1242 48.6018 48.0599 48.4801 47.945L46.5401 46.035C46.4771 45.9776 46.4265 45.9081 46.3911 45.8305C46.3558 45.753 46.3366 45.6691 46.3346 45.584C46.3327 45.4988 46.348 45.4141 46.3797 45.3351C46.4114 45.256 46.4588 45.1842 46.519 45.1239C46.5792 45.0637 46.6511 45.0163 46.7301 44.9846C46.8092 44.9529 46.8939 44.9376 46.9791 44.9396C47.0642 44.9415 47.1481 44.9608 47.2256 44.9961C47.3031 45.0314 47.3727 45.0821 47.4301 45.145L48.9001 46.615L52.4501 43.055C52.5698 42.9459 52.7271 42.887 52.8891 42.8908C53.051 42.8945 53.2054 42.9606 53.3199 43.0751C53.4345 43.1897 53.5006 43.344 53.5043 43.506C53.5081 43.668 53.4492 43.8253 53.3401 43.945L49.3401 47.945C49.2306 48.054 49.0844 48.1182 48.9301 48.125Z" fill="#344026"/>
<path d="M48.9301 59.125C48.7627 59.1242 48.6018 59.0599 48.4801 58.945L46.5401 57.035C46.4771 56.9776 46.4265 56.9081 46.3911 56.8305C46.3558 56.753 46.3366 56.6691 46.3346 56.584C46.3327 56.4988 46.348 56.4141 46.3797 56.3351C46.4114 56.256 46.4588 56.1842 46.519 56.1239C46.5792 56.0637 46.6511 56.0163 46.7301 55.9846C46.8092 55.9529 46.8939 55.9376 46.9791 55.9396C47.0642 55.9415 47.1481 55.9608 47.2256 55.9961C47.3031 56.0314 47.3727 56.082 47.4301 56.145L48.9001 57.615L52.4501 54.055C52.5698 53.9459 52.7271 53.887 52.8891 53.8908C53.051 53.8945 53.2054 53.9606 53.3199 54.0751C53.4345 54.1897 53.5006 54.344 53.5043 54.506C53.5081 54.668 53.4492 54.8252 53.3401 54.945L49.3401 58.945C49.2306 59.054 49.0844 59.1182 48.9301 59.125Z" fill="#344026"/>
<path d="M48.9301 70.125C48.7627 70.1242 48.6018 70.0599 48.4801 69.945L46.5401 68.035C46.4771 67.9776 46.4265 67.9081 46.3911 67.8305C46.3558 67.753 46.3366 67.6691 46.3346 67.584C46.3327 67.4988 46.348 67.4141 46.3797 67.3351C46.4114 67.256 46.4588 67.1842 46.519 67.1239C46.5792 67.0637 46.6511 67.0163 46.7301 66.9846C46.8092 66.9529 46.8939 66.9376 46.9791 66.9396C47.0642 66.9415 47.1481 66.9608 47.2256 66.9961C47.3031 67.0314 47.3727 67.082 47.4301 67.145L48.9001 68.615L52.4501 65.055C52.5698 64.9459 52.7271 64.887 52.8891 64.8908C53.051 64.8945 53.2054 64.9606 53.3199 65.0751C53.4345 65.1897 53.5006 65.344 53.5043 65.506C53.5081 65.668 53.4492 65.8252 53.3401 65.945L49.3401 69.945C49.2306 70.054 49.0844 70.1182 48.9301 70.125Z" fill="#344026"/>
<path d="M48.9301 81.125C48.7627 81.1242 48.6019 81.0599 48.4801 80.945L46.5401 79.035C46.431 78.9153 46.3722 78.758 46.3759 78.596C46.3797 78.434 46.4457 78.2797 46.5603 78.1651C46.6748 78.0506 46.8292 77.9845 46.9912 77.9808C47.1531 77.977 47.3104 78.0359 47.4301 78.145L48.9001 79.615L52.4501 76.055C52.5699 75.9459 52.7271 75.887 52.8891 75.8908C53.0511 75.8945 53.2054 75.9606 53.32 76.0751C53.4346 76.1897 53.5006 76.344 53.5043 76.506C53.5081 76.668 53.4493 76.8252 53.3401 76.945L49.3401 80.945C49.2306 81.054 49.0844 81.1182 48.9301 81.125Z" fill="#344026"/>
</svg>
