<svg width="41" height="40" viewBox="0 0 41 40" fill="none" xmlns="http://www.w3.org/2000/svg">
<circle cx="20.5" cy="20" r="19.5" stroke="#D29C37" stroke-dasharray="3 3"/>
<path d="M24.25 12.5H16.75C14.6789 12.5 13 14.1789 13 16.25V23.75C13 25.8211 14.6789 27.5 16.75 27.5H24.25C26.3211 27.5 28 25.8211 28 23.75V16.25C28 14.1789 26.3211 12.5 24.25 12.5Z" stroke="#D29C37" stroke-width="2" stroke-linecap="round" stroke-linejoin="round"/>
<path d="M23.4988 19.5287C23.5914 20.1529 23.4847 20.7904 23.1941 21.3505C22.9035 21.9106 22.4437 22.3648 21.88 22.6485C21.3164 22.9322 20.6776 23.0309 20.0546 22.9307C19.4316 22.8304 18.8561 22.5363 18.4099 22.0901C17.9637 21.6439 17.6696 21.0684 17.5694 20.4454C17.4691 19.8224 17.5679 19.1836 17.8515 18.62C18.1352 18.0563 18.5894 17.5965 19.1495 17.3059C19.7096 17.0153 20.3471 16.9086 20.9713 17.0012C21.608 17.0956 22.1974 17.3923 22.6526 17.8474C23.1077 18.3026 23.4044 18.892 23.4988 19.5287Z" stroke="#D29C37" stroke-width="2" stroke-linecap="round" stroke-linejoin="round"/>
<path d="M24.6265 15.875H24.6325" stroke="#D29C37" stroke-width="2" stroke-linecap="round" stroke-linejoin="round"/>
</svg>
