<svg width="121" height="121" viewBox="0 0 121 121" fill="none" xmlns="http://www.w3.org/2000/svg">
<circle cx="60.0239" cy="60.8398" r="59.4" stroke="#728C54" stroke-width="1.2" stroke-dasharray="4 4"/>
<g clip-path="url(#clip0_4569_8169)">
<path d="M51.0189 45.4648H43.0189C42.8536 45.4622 42.6959 45.3947 42.5799 45.2768C42.4639 45.159 42.3989 45.0002 42.3989 44.8348V38.8348C42.3989 38.6704 42.4642 38.5127 42.5805 38.3964C42.6968 38.2802 42.8545 38.2148 43.0189 38.2148H51.0189C51.1843 38.2148 51.343 38.2798 51.4609 38.3958C51.5788 38.5118 51.6463 38.6695 51.6489 38.8348V44.8348C51.6489 44.9176 51.6326 44.9995 51.601 45.0759C51.5693 45.1524 51.5229 45.2218 51.4644 45.2803C51.4059 45.3388 51.3365 45.3852 51.26 45.4169C51.1836 45.4485 51.1017 45.4648 51.0189 45.4648ZM43.6489 44.2148H50.3989V39.4648H43.6489V44.2148Z" fill="#344026"/>
<path d="M56.0189 59.464H43.0189C42.8668 59.4447 42.7269 59.3706 42.6255 59.2555C42.5241 59.1405 42.4681 58.9924 42.4681 58.839C42.4681 58.6856 42.5241 58.5375 42.6255 58.4225C42.7269 58.3074 42.8668 58.2333 43.0189 58.214H56.0189C56.1076 58.2027 56.1977 58.2105 56.2832 58.2368C56.3687 58.263 56.4476 58.3072 56.5147 58.3663C56.5818 58.4255 56.6355 58.4982 56.6723 58.5797C56.7091 58.6612 56.7281 58.7496 56.7281 58.839C56.7281 58.9284 56.7091 59.0168 56.6723 59.0983C56.6355 59.1798 56.5818 59.2525 56.5147 59.3116C56.4476 59.3708 56.3687 59.4149 56.2832 59.4412C56.1977 59.4675 56.1076 59.4752 56.0189 59.464Z" fill="#344026"/>
<path d="M62.0189 55.464H53.0189C52.8668 55.4447 52.7269 55.3706 52.6255 55.2555C52.5241 55.1405 52.4681 54.9924 52.4681 54.839C52.4681 54.6856 52.5241 54.5375 52.6255 54.4225C52.7269 54.3074 52.8668 54.2333 53.0189 54.214H62.0189C62.1076 54.2027 62.1977 54.2105 62.2832 54.2368C62.3687 54.263 62.4476 54.3072 62.5147 54.3663C62.5818 54.4255 62.6355 54.4982 62.6723 54.5797C62.7091 54.6612 62.7281 54.7496 62.7281 54.839C62.7281 54.9284 62.7091 55.0168 62.6723 55.0983C62.6355 55.1798 62.5818 55.2525 62.5147 55.3116C62.4476 55.3708 62.3687 55.4149 62.2832 55.4412C62.1977 55.4675 62.1076 55.4752 62.0189 55.464Z" fill="#344026"/>
<path d="M50.0289 55.464H43.0289C42.8768 55.4447 42.7369 55.3706 42.6355 55.2555C42.5341 55.1405 42.4781 54.9924 42.4781 54.839C42.4781 54.6856 42.5341 54.5375 42.6355 54.4225C42.7369 54.3074 42.8768 54.2333 43.0289 54.214H50.0289C50.1176 54.2027 50.2077 54.2105 50.2932 54.2368C50.3787 54.263 50.4576 54.3072 50.5247 54.3663C50.5918 54.4255 50.6455 54.4982 50.6823 54.5797C50.7191 54.6612 50.7381 54.7496 50.7381 54.839C50.7381 54.9284 50.7191 55.0168 50.6823 55.0983C50.6455 55.1798 50.5918 55.2525 50.5247 55.3116C50.4576 55.3708 50.3787 55.4149 50.2932 55.4412C50.2077 55.4675 50.1176 55.4752 50.0289 55.464Z" fill="#344026"/>
<path d="M74.0189 45.4651C73.301 45.4651 72.5991 45.2522 72.0022 44.8533C71.4052 44.4544 70.94 43.8875 70.6652 43.2242C70.3905 42.5609 70.3186 41.8311 70.4587 41.1269C70.5987 40.4228 70.9445 39.7759 71.4521 39.2683C71.9598 38.7606 72.6066 38.4149 73.3107 38.2748C74.0149 38.1348 74.7448 38.2067 75.4081 38.4814C76.0714 38.7561 76.6383 39.2214 77.0372 39.8184C77.436 40.4153 77.6489 41.1171 77.6489 41.8351C77.6489 42.3118 77.555 42.7838 77.3726 43.2242C77.1902 43.6646 76.9228 44.0648 76.5857 44.4019C76.2486 44.739 75.8485 45.0063 75.4081 45.1888C74.9676 45.3712 74.4956 45.4651 74.0189 45.4651ZM74.0189 39.4651C73.5478 39.4651 73.0872 39.6049 72.6956 39.8669C72.304 40.1288 71.999 40.5011 71.8191 40.9366C71.6393 41.3721 71.5928 41.8511 71.6854 42.3131C71.7781 42.775 72.0057 43.1991 72.3396 43.5315C72.6734 43.864 73.0984 44.0899 73.5608 44.1806C74.0231 44.2713 74.5019 44.2227 74.9367 44.041C75.3714 43.8594 75.7424 43.5528 76.0027 43.1601C76.263 42.7673 76.4009 42.3062 76.3989 41.8351C76.3963 41.2056 76.1444 40.6028 75.6983 40.1586C75.2523 39.7145 74.6484 39.4651 74.0189 39.4651Z" fill="#344026"/>
<path d="M70.0189 45.464C69.0904 45.4152 68.216 45.012 67.5761 44.3375C66.9361 43.6631 66.5793 42.7687 66.5793 41.839C66.5793 40.9092 66.9361 40.0149 67.5761 39.3404C68.216 38.666 69.0904 38.2628 70.0189 38.214C70.1076 38.2027 70.1977 38.2105 70.2832 38.2368C70.3686 38.263 70.4475 38.3072 70.5146 38.3663C70.5817 38.4255 70.6355 38.4982 70.6723 38.5797C70.7091 38.6612 70.7281 38.7496 70.7281 38.839C70.7281 38.9284 70.7091 39.0168 70.6723 39.0983C70.6355 39.1798 70.5817 39.2525 70.5146 39.3116C70.4475 39.3708 70.3686 39.4149 70.2832 39.4412C70.1977 39.4675 70.1076 39.4752 70.0189 39.464C69.4156 39.5031 68.8499 39.7704 68.4365 40.2115C68.0231 40.6526 67.7931 41.2345 67.7931 41.839C67.7931 42.4435 68.0231 43.0254 68.4365 43.4665C68.8499 43.9076 69.4156 44.1748 70.0189 44.214C70.1076 44.2027 70.1977 44.2105 70.2832 44.2368C70.3686 44.263 70.4475 44.3072 70.5146 44.3663C70.5817 44.4255 70.6355 44.4982 70.6723 44.5797C70.7091 44.6612 70.7281 44.7496 70.7281 44.839C70.7281 44.9284 70.7091 45.0168 70.6723 45.0983C70.6355 45.1798 70.5817 45.2525 70.5146 45.3116C70.4475 45.3708 70.3686 45.4149 70.2832 45.4412C70.1977 45.4675 70.1076 45.4752 70.0189 45.464Z" fill="#344026"/>
<path d="M43.0189 50.964C42.8536 50.9614 42.6959 50.8938 42.5799 50.776C42.4639 50.6581 42.3989 50.4994 42.3989 50.334V49.334C42.4182 49.1818 42.4923 49.0419 42.6074 48.9405C42.7225 48.8391 42.8706 48.7832 43.0239 48.7832C43.1773 48.7832 43.3254 48.8391 43.4405 48.9405C43.5555 49.0419 43.6296 49.1818 43.6489 49.334V50.334C43.6489 50.5011 43.5826 50.6613 43.4644 50.7795C43.3463 50.8976 43.186 50.964 43.0189 50.964Z" fill="#344026"/>
<path d="M46.1189 50.964C45.9518 50.964 45.7916 50.8976 45.6734 50.7795C45.5553 50.6613 45.4889 50.5011 45.4889 50.334V49.334C45.5082 49.1818 45.5823 49.0419 45.6974 48.9405C45.8124 48.8391 45.9605 48.7832 46.1139 48.7832C46.2673 48.7832 46.4154 48.8391 46.5304 48.9405C46.6455 49.0419 46.7196 49.1818 46.7389 49.334V50.334C46.7389 50.4994 46.6739 50.6581 46.5579 50.776C46.4419 50.8938 46.2842 50.9614 46.1189 50.964Z" fill="#344026"/>
<path d="M49.209 50.964C49.0419 50.964 48.8817 50.8976 48.7635 50.7795C48.6454 50.6613 48.579 50.5011 48.579 50.334V49.334C48.5983 49.1818 48.6724 49.0419 48.7874 48.9405C48.9025 48.8391 49.0506 48.7832 49.204 48.7832C49.3573 48.7832 49.5054 48.8391 49.6205 48.9405C49.7356 49.0419 49.8097 49.1818 49.829 49.334V50.334C49.829 50.4994 49.764 50.6581 49.648 50.776C49.532 50.8938 49.3743 50.9614 49.209 50.964Z" fill="#344026"/>
<path d="M52.2989 50.964C52.1319 50.964 51.9716 50.8976 51.8535 50.7795C51.7353 50.6613 51.6689 50.5011 51.6689 50.334V49.334C51.6882 49.1818 51.7624 49.0419 51.8774 48.9405C51.9925 48.8391 52.1406 48.7832 52.2939 48.7832C52.4473 48.7832 52.5954 48.8391 52.7105 48.9405C52.8255 49.0419 52.8997 49.1818 52.9189 49.334V50.334C52.919 50.4994 52.854 50.6581 52.738 50.776C52.622 50.8938 52.4643 50.9614 52.2989 50.964Z" fill="#344026"/>
<path d="M55.3989 50.964C55.2318 50.964 55.0716 50.8976 54.9534 50.7795C54.8353 50.6613 54.7689 50.5011 54.7689 50.334V49.334C54.7882 49.1818 54.8623 49.0419 54.9774 48.9405C55.0925 48.8391 55.2406 48.7832 55.3939 48.7832C55.5473 48.7832 55.6954 48.8391 55.8104 48.9405C55.9255 49.0419 55.9996 49.1818 56.0189 49.334V50.334C56.0189 50.4994 55.9539 50.6581 55.8379 50.776C55.722 50.8938 55.5643 50.9614 55.3989 50.964Z" fill="#344026"/>
<path d="M58.4789 50.964C58.3118 50.964 58.1515 50.8976 58.0334 50.7795C57.9153 50.6613 57.8489 50.5011 57.8489 50.334V49.334C57.8682 49.1818 57.9423 49.0419 58.0573 48.9405C58.1724 48.8391 58.3205 48.7832 58.4739 48.7832C58.6272 48.7832 58.7753 48.8391 58.8904 48.9405C59.0055 49.0419 59.0796 49.1818 59.0989 49.334V50.334C59.0989 50.4994 59.0339 50.6581 58.9179 50.776C58.8019 50.8938 58.6442 50.9614 58.4789 50.964Z" fill="#344026"/>
<path d="M61.569 50.964C61.4036 50.9614 61.2459 50.8938 61.1299 50.776C61.014 50.6581 60.949 50.4994 60.949 50.334V49.334C60.9683 49.1818 61.0424 49.0419 61.1574 48.9405C61.2725 48.8391 61.4206 48.7832 61.574 48.7832C61.7273 48.7832 61.8754 48.8391 61.9905 48.9405C62.1056 49.0419 62.1797 49.1818 62.199 49.334V50.334C62.199 50.5011 62.1326 50.6613 62.0145 50.7795C61.8963 50.8976 61.7361 50.964 61.569 50.964Z" fill="#344026"/>
<path d="M64.6589 50.964C64.4936 50.9614 64.3359 50.8938 64.2199 50.776C64.1039 50.6581 64.0389 50.4994 64.0389 50.334V49.334C64.0582 49.1818 64.1323 49.0419 64.2474 48.9405C64.3625 48.8391 64.5106 48.7832 64.6639 48.7832C64.8173 48.7832 64.9654 48.8391 65.0805 48.9405C65.1955 49.0419 65.2697 49.1818 65.2889 49.334V50.334C65.2889 50.5011 65.2226 50.6613 65.1044 50.7795C64.9863 50.8976 64.826 50.964 64.6589 50.964Z" fill="#344026"/>
<path d="M67.7489 50.964C67.5836 50.9614 67.4259 50.8938 67.3099 50.776C67.1939 50.6581 67.1289 50.4994 67.1289 50.334V49.334C67.1482 49.1818 67.2223 49.0419 67.3374 48.9405C67.4524 48.8391 67.6005 48.7832 67.7539 48.7832C67.9073 48.7832 68.0554 48.8391 68.1704 48.9405C68.2855 49.0419 68.3596 49.1818 68.3789 49.334V50.334C68.3789 50.5011 68.3125 50.6613 68.1944 50.7795C68.0762 50.8976 67.916 50.964 67.7489 50.964Z" fill="#344026"/>
<path d="M70.8389 50.964C70.6735 50.9614 70.5158 50.8938 70.3998 50.776C70.2839 50.6581 70.2189 50.4994 70.2189 50.334V49.334C70.2382 49.1818 70.3123 49.0419 70.4273 48.9405C70.5424 48.8391 70.6905 48.7832 70.8439 48.7832C70.9972 48.7832 71.1453 48.8391 71.2604 48.9405C71.3755 49.0419 71.4496 49.1818 71.4689 49.334V50.334C71.4689 50.5011 71.4025 50.6613 71.2844 50.7795C71.1662 50.8976 71.006 50.964 70.8389 50.964Z" fill="#344026"/>
<path d="M73.929 50.964C73.7636 50.9614 73.6059 50.8938 73.4899 50.776C73.3739 50.6581 73.3089 50.4994 73.309 50.334V49.334C73.3282 49.1818 73.4024 49.0419 73.5174 48.9405C73.6325 48.8391 73.7806 48.7832 73.934 48.7832C74.0873 48.7832 74.2354 48.8391 74.3505 48.9405C74.4656 49.0419 74.5397 49.1818 74.559 49.334V50.334C74.559 50.4167 74.5427 50.4986 74.511 50.5751C74.4793 50.6515 74.4329 50.721 74.3744 50.7795C74.3159 50.838 74.2465 50.8844 74.1701 50.916C74.0936 50.9477 74.0117 50.964 73.929 50.964Z" fill="#344026"/>
<path d="M77.0189 50.964C76.8536 50.9614 76.6959 50.8938 76.5799 50.776C76.4639 50.6581 76.3989 50.4994 76.3989 50.334V49.334C76.4182 49.1818 76.4923 49.0419 76.6074 48.9405C76.7225 48.8391 76.8706 48.7832 77.0239 48.7832C77.1773 48.7832 77.3254 48.8391 77.4405 48.9405C77.5555 49.0419 77.6296 49.1818 77.6489 49.334V50.334C77.6489 50.4167 77.6326 50.4986 77.601 50.5751C77.5693 50.6515 77.5229 50.721 77.4644 50.7795C77.4059 50.838 77.3365 50.8844 77.26 50.916C77.1836 50.9477 77.1017 50.964 77.0189 50.964Z" fill="#344026"/>
<path d="M81.0189 65.4648H74.4989C74.3468 65.4456 74.2069 65.3714 74.1055 65.2564C74.0041 65.1413 73.9481 64.9932 73.9481 64.8398C73.9481 64.6865 74.0041 64.5384 74.1055 64.4233C74.2069 64.3083 74.3468 64.2341 74.4989 64.2148H81.0189C81.1197 64.2148 81.2164 64.1748 81.2876 64.1035C81.3589 64.0323 81.3989 63.9356 81.3989 63.8348V35.8348C81.3963 35.7358 81.3551 35.6417 81.2842 35.5726C81.2132 35.5035 81.118 35.4648 81.0189 35.4648H39.0189C38.9216 35.4674 38.8289 35.5072 38.7601 35.576C38.6912 35.6449 38.6515 35.7375 38.6489 35.8348V63.8348C38.6489 63.9339 38.6876 64.0291 38.7567 64.1001C38.8258 64.1711 38.9199 64.2122 39.0189 64.2148H63.4989C63.5876 64.2036 63.6777 64.2114 63.7632 64.2376C63.8487 64.2639 63.9276 64.3081 63.9947 64.3672C64.0618 64.4263 64.1155 64.499 64.1523 64.5805C64.1891 64.662 64.2081 64.7504 64.2081 64.8398C64.2081 64.9293 64.1891 65.0177 64.1523 65.0992C64.1155 65.1807 64.0618 65.2534 63.9947 65.3125C63.9276 65.3716 63.8487 65.4158 63.7632 65.4421C63.6777 65.4683 63.5876 65.4761 63.4989 65.4648H39.0189C38.5884 65.4622 38.1763 65.2893 37.8728 64.9839C37.5693 64.6785 37.3989 64.2654 37.3989 63.8348V35.8348C37.4015 35.406 37.5731 34.9955 37.8763 34.6922C38.1796 34.389 38.5901 34.2175 39.0189 34.2148H81.0189C81.4495 34.2148 81.8626 34.3852 82.168 34.6887C82.4734 34.9922 82.6463 35.4043 82.6489 35.8348V63.8348C82.6489 64.2671 82.4772 64.6817 82.1715 64.9874C81.8658 65.2931 81.4512 65.4648 81.0189 65.4648Z" fill="#344026"/>
<path d="M70.309 87.4648H49.309C48.8767 87.4648 48.4621 87.2931 48.1564 86.9874C47.8507 86.6817 47.679 86.2671 47.679 85.8348V79.8348C47.6816 79.4043 47.8545 78.9922 48.1599 78.6887C48.4653 78.3852 48.8784 78.2148 49.309 78.2148H70.309C70.7378 78.2175 71.1483 78.389 71.4516 78.6922C71.7548 78.9955 71.9263 79.406 71.929 79.8348V85.8348C71.929 86.2654 71.7586 86.6785 71.4551 86.9839C71.1516 87.2893 70.7395 87.4622 70.309 87.4648ZM49.309 79.4648C49.2099 79.4648 49.1147 79.5035 49.0437 79.5726C48.9727 79.6417 48.9316 79.7358 48.929 79.8348V85.8348C48.929 85.8847 48.9388 85.9342 48.9579 85.9803C48.977 86.0264 49.005 86.0683 49.0403 86.1035C49.0755 86.1388 49.1174 86.1668 49.1635 86.1859C49.2096 86.205 49.2591 86.2148 49.309 86.2148H70.309C70.408 86.2122 70.5021 86.1711 70.5712 86.1001C70.6403 86.0291 70.679 85.9339 70.679 85.8348V79.8348C70.6764 79.7375 70.6366 79.6449 70.5678 79.576C70.4989 79.5072 70.4063 79.4674 70.309 79.4648H49.309Z" fill="#344026"/>
<path d="M49.6289 79.464C49.4635 79.4614 49.3059 79.3938 49.1899 79.276C49.0739 79.1581 49.0089 78.9994 49.0089 78.834V76.364C49.0144 76.1788 48.9818 75.9944 48.9129 75.8224C48.8441 75.6503 48.7406 75.4943 48.6089 75.364L45.2589 72.044C44.7712 71.5592 44.4945 70.9016 44.4889 70.214V64.834C44.5082 64.6818 44.5823 64.5419 44.6974 64.4405C44.8124 64.3391 44.9605 64.2832 45.1139 64.2832C45.2673 64.2832 45.4154 64.3391 45.5304 64.4405C45.6455 64.5419 45.7196 64.6818 45.7389 64.834V70.214C45.7334 70.3992 45.766 70.5836 45.8348 70.7556C45.9037 70.9276 46.0072 71.0837 46.1389 71.214L49.4889 74.564C49.734 74.8076 49.9283 75.0975 50.0604 75.4168C50.1926 75.7361 50.2601 76.0784 50.2589 76.424V78.894C50.2439 79.0505 50.171 79.1957 50.0544 79.3012C49.9379 79.4066 49.7861 79.4647 49.6289 79.464Z" fill="#344026"/>
<path d="M69.9789 79.4647C69.8136 79.4621 69.6559 79.3945 69.5399 79.2767C69.4239 79.1588 69.3589 79.0001 69.3589 78.8347V76.3647C69.3577 76.0191 69.4252 75.6768 69.5574 75.3575C69.6896 75.0382 69.8838 74.7483 70.1289 74.5047L73.4789 71.1547C73.6106 71.0244 73.7141 70.8683 73.783 70.6963C73.8518 70.5243 73.8844 70.3399 73.8789 70.1547V55.2147C73.8763 54.7815 73.7023 54.3669 73.3951 54.0615C73.0878 53.7561 72.6721 53.5847 72.2389 53.5847H71.1089C70.0772 53.5847 69.0878 53.9945 68.3583 54.724C67.6288 55.4536 67.2189 56.443 67.2189 57.4747V63.9547C67.2178 64.3335 67.1361 64.7078 66.9792 65.0526C66.8223 65.3975 66.5938 65.705 66.3089 65.9547L63.1689 68.6647C63.0241 68.7891 62.9066 68.9422 62.824 69.1143C62.7414 69.2865 62.6954 69.4739 62.6889 69.6647V73.2747C62.6696 73.4268 62.5955 73.5667 62.4804 73.6681C62.3654 73.7695 62.2173 73.8255 62.0639 73.8255C61.9105 73.8255 61.7624 73.7695 61.6474 73.6681C61.5323 73.5667 61.4582 73.4268 61.4389 73.2747V69.6647C61.4361 69.2852 61.516 68.9097 61.6732 68.5643C61.8304 68.2188 62.061 67.9119 62.3489 67.6647L65.4889 64.9447C65.6337 64.8203 65.7512 64.6672 65.8338 64.495C65.9164 64.3229 65.9624 64.1355 65.9689 63.9447V57.4447C65.9689 56.7697 66.1019 56.1013 66.3602 55.4777C66.6185 54.8541 66.9971 54.2875 67.4744 53.8102C67.9517 53.3329 68.5183 52.9543 69.1419 52.6959C69.7655 52.4376 70.4339 52.3047 71.1089 52.3047H72.2389C72.6201 52.3047 72.9976 52.3801 73.3495 52.5266C73.7015 52.6731 74.0209 52.8877 74.2896 53.1582C74.5582 53.4287 74.7706 53.7496 74.9147 54.1026C75.0587 54.4555 75.1316 54.8335 75.1289 55.2147V70.2147C75.134 70.8966 74.872 71.5535 74.3989 72.0447L71.0489 75.3947C70.9172 75.525 70.8137 75.681 70.7449 75.8531C70.6761 76.0251 70.6434 76.2095 70.6489 76.3947V78.8647C70.6451 78.9483 70.6246 79.0304 70.5888 79.1061C70.5529 79.1817 70.5022 79.2495 70.4399 79.3053C70.3775 79.3612 70.3046 79.4041 70.2254 79.4314C70.1463 79.4588 70.0625 79.4701 69.9789 79.4647Z" fill="#344026"/>
<path d="M52.0389 83.8457C52.5912 83.8457 53.0389 83.398 53.0389 82.8457C53.0389 82.2934 52.5912 81.8457 52.0389 81.8457C51.4867 81.8457 51.0389 82.2934 51.0389 82.8457C51.0389 83.398 51.4867 83.8457 52.0389 83.8457Z" fill="#344026"/>
</g>
<defs>
<clipPath id="clip0_4569_8169">
<rect width="45.25" height="53.25" fill="white" transform="translate(37.3989 34.2148)"/>
</clipPath>
</defs>
</svg>
