<svg width="121" height="121" viewBox="0 0 121 121" fill="none" xmlns="http://www.w3.org/2000/svg">
<circle cx="60.1815" cy="60.8398" r="59.4" stroke="#728C54" stroke-width="1.2" stroke-dasharray="4 4"/>
<g clip-path="url(#clip0_4569_8168)">
<path d="M70.7465 76.9252C70.604 76.9202 70.4672 76.8686 70.357 76.7783C70.2467 76.6879 70.1693 76.5638 70.1365 76.4252C70.1037 76.2635 70.1356 76.0955 70.2254 75.9571C70.3151 75.8188 70.4555 75.7211 70.6165 75.6852C73.2299 75.0933 75.7788 74.2459 78.2265 73.1552C80.6165 72.1552 82.2265 71.4752 83.2865 72.5552C83.7379 73.0566 83.9759 73.7144 83.9498 74.3886C83.9236 75.0628 83.6354 75.7002 83.1465 76.1652C83.0288 76.28 82.8709 76.3443 82.7065 76.3443C82.542 76.3443 82.3841 76.28 82.2665 76.1652C82.1441 76.0524 82.0704 75.8964 82.061 75.7303C82.0517 75.5641 82.1075 75.4009 82.2165 75.2752C82.3165 75.1652 83.2165 74.1552 82.4065 73.3952C81.9065 72.9052 80.5665 73.4652 78.7165 74.2552C76.1958 75.3795 73.5695 76.2505 70.8765 76.8552L70.7465 76.9252Z" fill="#344026"/>
<path d="M59.2965 87.4441C53.9403 87.4638 48.6113 86.6818 43.4865 85.1241C43.3651 85.0797 43.26 84.9996 43.185 84.8943C43.1101 84.7889 43.0688 84.6634 43.0665 84.5341V70.7041C43.0664 70.5405 43.1301 70.3832 43.2439 70.2656C43.3578 70.148 43.5129 70.0793 43.6765 70.0741C52.6765 69.8241 55.6765 71.8141 58.1865 73.4041C60.4765 74.8641 62.2865 76.0241 68.1165 75.1541C70.4265 74.8141 71.4865 76.1541 71.6965 77.4041C71.7985 78.0227 71.7222 78.6574 71.4765 79.2341C74.9065 78.4148 78.2338 77.214 81.3965 75.6541C83.5965 74.6541 84.9265 73.9941 85.8965 74.8041C86.1857 75.0144 86.4196 75.2916 86.5781 75.6121C86.7366 75.9326 86.815 76.2867 86.8065 76.6441C86.7265 78.0841 85.1365 79.1941 84.9565 79.3141C76.5565 85.7241 67.0865 87.4441 59.2965 87.4441ZM44.2965 84.0741C47.4765 85.0741 68.0465 90.6841 84.2065 78.2941C84.5565 78.0541 85.5565 77.2341 85.5565 76.5741C85.5565 76.4741 85.5565 76.1541 85.0965 75.7641C84.7465 75.4641 83.4965 76.0441 81.9365 76.7641C77.9752 78.7134 73.7663 80.113 69.4265 80.9241C69.3463 80.9415 69.2634 80.9426 69.1827 80.9272C69.1021 80.9118 69.0254 80.8802 68.9573 80.8345C68.8891 80.7887 68.8309 80.7297 68.7861 80.6609C68.7413 80.5921 68.7108 80.515 68.6965 80.4341C68.6672 80.2712 68.7032 80.1032 68.7968 79.9666C68.8904 79.83 69.034 79.7357 69.1965 79.7041C69.6354 79.5776 70.0102 79.2898 70.2457 78.8984C70.4812 78.5071 70.5601 78.0412 70.4665 77.5941C70.3065 76.5941 69.5165 76.1841 68.3065 76.3741C62.0065 77.3141 59.9265 75.9841 57.5165 74.4341C55.1065 72.8841 52.4165 71.1441 44.3165 71.2941L44.2965 84.0741Z" fill="#344026"/>
<path d="M63.3265 81.4739C61.1439 81.5167 58.9679 81.2198 56.8765 80.5939C56.7354 80.5297 56.623 80.4156 56.5607 80.2737C56.4985 80.1317 56.4907 79.9717 56.539 79.8244C56.5873 79.6771 56.6882 79.5528 56.8224 79.4752C56.9566 79.3976 57.1148 79.3722 57.2665 79.4039C61.0765 80.6739 66.5565 80.1939 69.1965 79.7239C69.2773 79.7081 69.3605 79.7084 69.4412 79.7251C69.5219 79.7417 69.5984 79.7742 69.6664 79.8208C69.7344 79.8673 69.7924 79.927 69.837 79.9962C69.8817 80.0654 69.9121 80.1428 69.9265 80.2239C69.9558 80.3869 69.9198 80.5549 69.8262 80.6915C69.7327 80.8281 69.5891 80.9224 69.4265 80.9539C67.4109 81.2946 65.3707 81.4685 63.3265 81.4739Z" fill="#344026"/>
<path d="M42.6865 86.0144H35.1765C34.7477 86.0118 34.3371 85.8402 34.0339 85.537C33.7307 85.2337 33.5591 84.8232 33.5565 84.3944V70.8544C33.5591 70.4255 33.7307 70.015 34.0339 69.7118C34.3371 69.4085 34.7477 69.237 35.1765 69.2344H42.6865C43.1171 69.2344 43.5302 69.4047 43.8356 69.7082C44.141 70.0118 44.3139 70.4238 44.3165 70.8544V84.3944C44.3139 84.8249 44.141 85.237 43.8356 85.5405C43.5302 85.844 43.1171 86.0144 42.6865 86.0144ZM35.1765 70.4844C35.0792 70.4869 34.9865 70.5267 34.9177 70.5955C34.8488 70.6644 34.809 70.757 34.8065 70.8544V84.3944C34.809 84.4917 34.8488 84.5844 34.9177 84.6532C34.9865 84.722 35.0792 84.7618 35.1765 84.7644H42.6865C42.7856 84.7644 42.8808 84.7258 42.9517 84.6566C43.0227 84.5875 43.0639 84.4934 43.0665 84.3944V70.8544C43.0639 70.7553 43.0227 70.6612 42.9517 70.5921C42.8808 70.523 42.7856 70.4843 42.6865 70.4844H35.1765Z" fill="#344026"/>
<path d="M40.1865 82.8652C40.7388 82.8652 41.1865 82.4175 41.1865 81.8652C41.1865 81.3129 40.7388 80.8652 40.1865 80.8652C39.6342 80.8652 39.1865 81.3129 39.1865 81.8652C39.1865 82.4175 39.6342 82.8652 40.1865 82.8652Z" fill="#344026"/>
<path d="M83.1765 71.4844C83.0112 71.4818 82.8535 71.4142 82.7375 71.2964C82.6215 71.1785 82.5565 71.0197 82.5565 70.8544V35.4844H49.8065V68.8544C49.8178 68.9431 49.81 69.0332 49.7837 69.1187C49.7575 69.2041 49.7133 69.283 49.6542 69.3501C49.595 69.4172 49.5223 69.4709 49.4408 69.5077C49.3593 69.5446 49.2709 69.5636 49.1815 69.5636C49.0921 69.5636 49.0037 69.5446 48.9222 69.5077C48.8407 69.4709 48.768 69.4172 48.7089 69.3501C48.6497 69.283 48.6056 69.2041 48.5793 69.1187C48.553 69.0332 48.5453 68.9431 48.5565 68.8544V34.8544C48.5565 34.6899 48.6218 34.5322 48.7381 34.416C48.8544 34.2997 49.0121 34.2344 49.1765 34.2344H83.1765C83.3419 34.2344 83.5006 34.2994 83.6185 34.4153C83.7364 34.5313 83.8039 34.689 83.8065 34.8544V70.8544C83.8065 70.9371 83.7902 71.019 83.7586 71.0955C83.7269 71.1719 83.6805 71.2413 83.622 71.2999C83.5635 71.3584 83.494 71.4048 83.4176 71.4364C83.3412 71.4681 83.2592 71.4844 83.1765 71.4844Z" fill="#344026"/>
<path d="M69.1765 54.4835H63.1765C61.1547 54.4809 59.2165 53.6758 57.7878 52.2452C56.359 50.8146 55.5565 48.8754 55.5565 46.8535V40.8535C55.5758 40.7014 55.6499 40.5615 55.765 40.4601C55.8801 40.3587 56.0282 40.3027 56.1815 40.3027C56.3349 40.3027 56.483 40.3587 56.598 40.4601C56.7131 40.5615 56.7872 40.7014 56.8065 40.8535V46.8535C56.8065 48.5439 57.4773 50.1651 58.6716 51.3613C59.866 52.5575 61.4862 53.2309 63.1765 53.2335H69.1765C70.8686 53.2335 72.4914 52.5613 73.6879 51.3649C74.8843 50.1684 75.5565 48.5456 75.5565 46.8535V40.8535C75.5758 40.7014 75.6499 40.5615 75.765 40.4601C75.8801 40.3587 76.0282 40.3027 76.1815 40.3027C76.3349 40.3027 76.483 40.3587 76.598 40.4601C76.7131 40.5615 76.7872 40.7014 76.8065 40.8535V46.8535C76.8039 48.8763 75.9992 50.8155 74.5688 52.2458C73.1385 53.6762 71.1993 54.4809 69.1765 54.4835Z" fill="#344026"/>
<path d="M78.1765 41.4846C78.0112 41.482 77.8535 41.4145 77.7375 41.2966C77.6215 41.1787 77.5565 41.02 77.5565 40.8546C77.5271 40.5102 77.3695 40.1893 77.1149 39.9555C76.8603 39.7217 76.5272 39.592 76.1815 39.592C75.8358 39.592 75.5027 39.7217 75.2481 39.9555C74.9935 40.1893 74.8359 40.5102 74.8065 40.8546C74.8178 40.9433 74.81 41.0334 74.7837 41.1189C74.7575 41.2044 74.7133 41.2833 74.6542 41.3504C74.595 41.4175 74.5223 41.4712 74.4408 41.508C74.3593 41.5448 74.2709 41.5638 74.1815 41.5638C74.0921 41.5638 74.0037 41.5448 73.9222 41.508C73.8407 41.4712 73.768 41.4175 73.7089 41.3504C73.6497 41.2833 73.6056 41.2044 73.5793 41.1189C73.553 41.0334 73.5453 40.9433 73.5565 40.8546C73.5978 40.1864 73.8923 39.5591 74.38 39.1006C74.8678 38.642 75.5121 38.3867 76.1815 38.3867C76.851 38.3867 77.4952 38.642 77.983 39.1006C78.4707 39.5591 78.7653 40.1864 78.8065 40.8546C78.8065 41.0217 78.7401 41.182 78.622 41.3001C78.5038 41.4182 78.3436 41.4846 78.1765 41.4846Z" fill="#344026"/>
<path d="M58.1765 41.4846C58.0112 41.482 57.8535 41.4145 57.7375 41.2966C57.6215 41.1787 57.5565 41.02 57.5565 40.8546C57.5271 40.5102 57.3695 40.1893 57.1149 39.9555C56.8603 39.7217 56.5272 39.592 56.1815 39.592C55.8358 39.592 55.5027 39.7217 55.2481 39.9555C54.9935 40.1893 54.8359 40.5102 54.8065 40.8546C54.8178 40.9433 54.81 41.0334 54.7837 41.1189C54.7575 41.2044 54.7133 41.2833 54.6542 41.3504C54.595 41.4175 54.5223 41.4712 54.4408 41.508C54.3593 41.5448 54.2709 41.5638 54.1815 41.5638C54.0921 41.5638 54.0037 41.5448 53.9222 41.508C53.8407 41.4712 53.768 41.4175 53.7089 41.3504C53.6497 41.2833 53.6056 41.2044 53.5793 41.1189C53.553 41.0334 53.5453 40.9433 53.5565 40.8546C53.5978 40.1864 53.8923 39.5591 54.38 39.1006C54.8678 38.642 55.5121 38.3867 56.1815 38.3867C56.851 38.3867 57.4952 38.642 57.983 39.1006C58.4707 39.5591 58.7653 40.1864 58.8065 40.8546C58.8065 41.0217 58.7401 41.182 58.622 41.3001C58.5038 41.4182 58.3436 41.4846 58.1765 41.4846Z" fill="#344026"/>
<path d="M83.1765 66.4835H54.1765C54.0244 66.4642 53.8845 66.3901 53.7831 66.275C53.6817 66.16 53.6257 66.0119 53.6257 65.8585C53.6257 65.7051 53.6817 65.557 53.7831 65.442C53.8845 65.3269 54.0244 65.2528 54.1765 65.2335H83.1765C83.2652 65.2223 83.3553 65.23 83.4408 65.2563C83.5263 65.2826 83.6052 65.3267 83.6723 65.3859C83.7393 65.445 83.7931 65.5177 83.8299 65.5992C83.8667 65.6807 83.8857 65.7691 83.8857 65.8585C83.8857 65.9479 83.8667 66.0363 83.8299 66.1178C83.7931 66.1993 83.7393 66.2721 83.6723 66.3312C83.6052 66.3903 83.5263 66.4345 83.4408 66.4607C83.3553 66.487 83.2652 66.4948 83.1765 66.4835Z" fill="#344026"/>
</g>
<defs>
<clipPath id="clip0_4569_8168">
<rect width="53.25" height="53.21" fill="white" transform="translate(33.5565 34.2344)"/>
</clipPath>
</defs>
</svg>
