<svg width="36" height="36" viewBox="0 0 36 36" fill="none" xmlns="http://www.w3.org/2000/svg">
<path d="M12.7701 30.1985C12.7701 30.5301 12.6384 30.8481 12.4039 31.0825C12.1695 31.317 11.8515 31.4487 11.5199 31.4487H4.01912C3.36098 31.4483 2.71453 31.2747 2.14472 30.9454C1.5749 30.616 1.10178 30.1425 0.772885 29.5725C0.443988 29.0024 0.270896 28.3558 0.270996 27.6977C0.271096 27.0395 0.444385 26.393 0.773456 25.8231L6.13185 16.5642L3.9363 17.1502C3.77726 17.1927 3.61141 17.2035 3.44822 17.1818C3.28503 17.1602 3.1277 17.1067 2.9852 17.0243C2.69742 16.8578 2.48755 16.5838 2.40176 16.2626C2.31597 15.9414 2.36129 15.5993 2.52774 15.3115C2.6942 15.0238 2.96816 14.8139 3.28935 14.7281L8.41022 13.3576C8.56885 13.3151 8.73431 13.3043 8.89714 13.3257C9.05996 13.3471 9.21697 13.4004 9.35919 13.4826C9.50141 13.5647 9.62604 13.6741 9.72598 13.8044C9.82592 13.9347 9.8992 14.0835 9.94164 14.2421L11.3152 19.363C11.3586 19.5223 11.37 19.6887 11.3487 19.8525C11.3274 20.0163 11.2739 20.1742 11.1912 20.3172C11.1086 20.4602 10.9984 20.5853 10.867 20.6855C10.7357 20.7856 10.5858 20.8588 10.4261 20.9006C10.3199 20.9283 10.2107 20.9425 10.101 20.9428C9.82602 20.9426 9.55877 20.8516 9.34067 20.6841C9.12258 20.5166 8.96581 20.2818 8.89465 20.0162L8.30084 17.805L2.94244 27.0732C2.83297 27.2628 2.77521 27.4778 2.77495 27.6968C2.77468 27.9157 2.83193 28.1309 2.94094 28.3208C3.04996 28.5106 3.20693 28.6685 3.39614 28.7787C3.58536 28.8888 3.80018 28.9474 4.01912 28.9484H11.5199C11.8515 28.9484 12.1695 29.0801 12.4039 29.3146C12.6384 29.549 12.7701 29.867 12.7701 30.1985ZM34.7615 25.8231L31.1455 19.5724C30.9725 19.3003 30.7011 19.1055 30.3879 19.0288C30.0747 18.9521 29.744 18.9994 29.4649 19.1607C29.1857 19.3221 28.9797 19.5851 28.8899 19.8947C28.8 20.2044 28.8333 20.5368 28.9828 20.8225L32.5988 27.0732C32.7083 27.2628 32.766 27.4778 32.7663 27.6968C32.7665 27.9157 32.7093 28.1309 32.6003 28.3208C32.4913 28.5106 32.3343 28.6685 32.1451 28.7787C31.9559 28.8888 31.7411 28.9474 31.5221 28.9484H20.7881L22.4039 27.3326C22.6385 27.0982 22.7704 26.7803 22.7705 26.4487C22.7707 26.1171 22.6391 25.799 22.4047 25.5644C22.1703 25.3299 21.8524 25.198 21.5208 25.1978C21.1892 25.1977 20.8711 25.3293 20.6366 25.5637L16.8861 29.3141C16.7699 29.4302 16.6777 29.568 16.6148 29.7198C16.5519 29.8716 16.5195 30.0342 16.5195 30.1985C16.5195 30.3628 16.5519 30.5255 16.6148 30.6773C16.6777 30.829 16.7699 30.9669 16.8861 31.083L20.6366 34.8334C20.7527 34.9495 20.8906 35.0415 21.0423 35.1043C21.194 35.167 21.3566 35.1993 21.5208 35.1992C21.685 35.1991 21.8476 35.1667 21.9992 35.1038C22.1509 35.0409 22.2887 34.9488 22.4047 34.8326C22.5208 34.7165 22.6128 34.5786 22.6756 34.4269C22.7383 34.2752 22.7706 34.1126 22.7705 33.9484C22.7704 33.7842 22.738 33.6216 22.6751 33.47C22.6122 33.3183 22.5201 33.1805 22.4039 33.0645L20.7881 31.4487H31.5221C32.1803 31.4483 32.8267 31.2747 33.3965 30.9454C33.9663 30.616 34.4394 30.1425 34.7683 29.5725C35.0972 29.0024 35.2703 28.3558 35.2702 27.6977C35.2701 27.0395 35.0968 26.393 34.7678 25.8231H34.7615ZM17.7706 2.69554C17.9903 2.69334 18.2066 2.75019 18.3968 2.86014C18.587 2.9701 18.7442 3.12913 18.852 3.32061L24.2104 12.5794L22.0101 11.9887C21.6938 11.9145 21.361 11.9663 21.0822 12.1332C20.8035 12.3002 20.6007 12.5691 20.5167 12.883C20.4328 13.1969 20.4744 13.5311 20.6327 13.8148C20.791 14.0986 21.0536 14.3096 21.3648 14.4031L26.4872 15.7767C26.5928 15.8044 26.7015 15.8186 26.8107 15.8188C27.0857 15.8186 27.3529 15.7276 27.571 15.5601C27.7891 15.3926 27.9459 15.1578 28.017 14.8922L29.3906 9.76819C29.4378 9.60821 29.4525 9.44041 29.4338 9.27468C29.4151 9.10894 29.3634 8.94862 29.2818 8.80316C29.2003 8.6577 29.0904 8.53003 28.9587 8.42768C28.827 8.32533 28.6762 8.25036 28.5151 8.20719C28.354 8.16402 28.1859 8.15352 28.0206 8.17632C27.8554 8.19911 27.6964 8.25474 27.5531 8.33991C27.4097 8.42509 27.2848 8.5381 27.1857 8.67228C27.0867 8.80647 27.0155 8.95912 26.9763 9.12124L26.3825 11.3355L21.0163 2.07047C20.6868 1.50141 20.2135 1.02897 19.6438 0.700538C19.0742 0.372104 18.4282 0.199219 17.7706 0.199219C17.1131 0.199219 16.4671 0.372104 15.8974 0.700538C15.3277 1.02897 14.8544 1.50141 14.525 2.07047L10.9058 8.32115C10.7503 8.60751 10.7128 8.94327 10.8012 9.25691C10.8896 9.57054 11.097 9.83726 11.3791 10.0002C11.6613 10.1632 11.996 10.2096 12.3118 10.1295C12.6277 10.0493 12.8997 9.84907 13.0701 9.57129L16.6892 3.32061C16.797 3.12913 16.9542 2.9701 17.1444 2.86014C17.3346 2.75019 17.5509 2.69334 17.7706 2.69554Z" fill="#728C54"/>
</svg>
