<svg width="121" height="121" viewBox="0 0 121 121" fill="none" xmlns="http://www.w3.org/2000/svg">
<circle cx="60.4968" cy="60.8398" r="59.4" stroke="#728C54" stroke-width="1.2" stroke-dasharray="4 4"/>
<path d="M45.4781 87.3398H37.4781C36.5499 87.3398 35.6597 86.9711 35.0033 86.3147C34.3469 85.6583 33.9781 84.7681 33.9781 83.8398V37.8398C33.9781 36.9116 34.3469 36.0213 35.0033 35.365C35.6597 34.7086 36.5499 34.3398 37.4781 34.3398H73.4781C74.4064 34.3398 75.2966 34.7086 75.953 35.365C76.6094 36.0213 76.9781 36.9116 76.9781 37.8398V51.8398C76.9781 51.9725 76.9255 52.0996 76.8317 52.1934C76.7379 52.2872 76.6108 52.3398 76.4781 52.3398C76.3455 52.3398 76.2184 52.2872 76.1246 52.1934C76.0308 52.0996 75.9781 51.9725 75.9781 51.8398V37.8398C75.9781 37.1768 75.7148 36.5409 75.2459 36.0721C74.7771 35.6032 74.1412 35.3398 73.4781 35.3398H37.4781C36.8151 35.3398 36.1792 35.6032 35.7104 36.0721C35.2415 36.5409 34.9781 37.1768 34.9781 37.8398V83.8398C34.9781 84.5029 35.2415 85.1388 35.7104 85.6076C36.1792 86.0765 36.8151 86.3398 37.4781 86.3398H45.4781C45.6108 86.3398 45.7379 86.3925 45.8317 86.4863C45.9255 86.5801 45.9781 86.7072 45.9781 86.8398C45.9781 86.9725 45.9255 87.0996 45.8317 87.1934C45.7379 87.2872 45.6108 87.3398 45.4781 87.3398Z" fill="#344026"/>
<path d="M74.4781 43.3398H36.4781C36.3455 43.3398 36.2184 43.2872 36.1246 43.1934C36.0308 43.0996 35.9781 42.9725 35.9781 42.8398C35.9781 42.7072 36.0308 42.5801 36.1246 42.4863C36.2184 42.3925 36.3455 42.3398 36.4781 42.3398H74.4781C74.6108 42.3398 74.7379 42.3925 74.8317 42.4863C74.9255 42.5801 74.9781 42.7072 74.9781 42.8398C74.9781 42.9725 74.9255 43.0996 74.8317 43.1934C74.7379 43.2872 74.6108 43.3398 74.4781 43.3398Z" fill="#344026"/>
<path d="M38.4781 39.8398C39.0304 39.8398 39.4781 39.3921 39.4781 38.8398C39.4781 38.2876 39.0304 37.8398 38.4781 37.8398C37.9259 37.8398 37.4781 38.2876 37.4781 38.8398C37.4781 39.3921 37.9259 39.8398 38.4781 39.8398Z" fill="#344026"/>
<path d="M42.4781 39.8398C43.0304 39.8398 43.4781 39.3921 43.4781 38.8398C43.4781 38.2876 43.0304 37.8398 42.4781 37.8398C41.9259 37.8398 41.4781 38.2876 41.4781 38.8398C41.4781 39.3921 41.9259 39.8398 42.4781 39.8398Z" fill="#344026"/>
<path d="M46.4781 39.8398C47.0304 39.8398 47.4781 39.3921 47.4781 38.8398C47.4781 38.2876 47.0304 37.8398 46.4781 37.8398C45.9259 37.8398 45.4781 38.2876 45.4781 38.8398C45.4781 39.3921 45.9259 39.8398 46.4781 39.8398Z" fill="#344026"/>
<path d="M83.4781 87.34H50.4781C49.9742 87.3419 49.476 87.2337 49.0182 87.023C48.5605 86.8122 48.1543 86.5041 47.8281 86.12C47.496 85.7443 47.2484 85.3017 47.1018 84.8222C46.9551 84.3426 46.913 83.8372 46.9781 83.34L50.3181 61.64C50.367 61.2761 50.5477 60.9427 50.8261 60.7031C51.1044 60.4635 51.4609 60.3343 51.8281 60.34H82.1181C82.4757 60.3406 82.8213 60.4688 83.0926 60.7017C83.364 60.9345 83.5433 61.2567 83.5981 61.61L86.9781 83.34C87.0515 83.8367 87.0168 84.3433 86.8765 84.8254C86.7362 85.3074 86.4935 85.7535 86.1651 86.1332C85.8366 86.5129 85.4301 86.8173 84.9733 87.0256C84.5165 87.2338 84.0201 87.3411 83.5181 87.34H83.4781ZM51.8281 61.34C51.71 61.3409 51.5959 61.3835 51.5063 61.4604C51.4166 61.5373 51.357 61.6434 51.3381 61.76L47.9781 83.46C47.9248 83.8176 47.9494 84.1825 48.0501 84.5297C48.1509 84.8768 48.3255 85.1982 48.5619 85.4717C48.7984 85.7451 49.0911 85.9643 49.4201 86.1142C49.7491 86.2641 50.1066 86.3411 50.4681 86.34H83.4681C83.8323 86.3475 84.1937 86.2749 84.5269 86.1274C84.86 85.9799 85.1567 85.7612 85.396 85.4865C85.6354 85.2119 85.8116 84.8881 85.9121 84.5379C86.0127 84.1878 86.0352 83.8198 85.9781 83.46L82.6381 61.76C82.6192 61.6434 82.5596 61.5373 82.4699 61.4604C82.3802 61.3835 82.2662 61.3409 82.1481 61.34H51.8281Z" fill="#344026"/>
<path d="M76.9782 69.8398C76.3848 69.8398 75.8048 69.6639 75.3114 69.3343C74.8181 69.0046 74.4336 68.5361 74.2065 67.9879C73.9795 67.4397 73.92 66.8365 74.0358 66.2546C74.1516 65.6726 74.4373 65.1381 74.8568 64.7185C75.2764 64.299 75.8109 64.0132 76.3929 63.8975C76.9748 63.7817 77.578 63.8411 78.1262 64.0682C78.6744 64.2953 79.1429 64.6798 79.4726 65.1731C79.8022 65.6665 79.9782 66.2465 79.9782 66.8398C79.9782 67.6355 79.6621 68.3986 79.0995 68.9612C78.5369 69.5238 77.7738 69.8398 76.9782 69.8398ZM76.9782 64.8398C76.5826 64.8398 76.1959 64.9571 75.867 65.1769C75.5381 65.3967 75.2818 65.709 75.1304 66.0745C74.979 66.4399 74.9394 66.8421 75.0166 67.23C75.0938 67.618 75.2842 67.9744 75.5639 68.2541C75.8436 68.5338 76.2 68.7242 76.588 68.8014C76.9759 68.8786 77.3781 68.839 77.7435 68.6876C78.109 68.5362 78.4213 68.2799 78.6411 67.951C78.8609 67.6221 78.9782 67.2354 78.9782 66.8398C78.9782 66.3094 78.7674 65.8007 78.3924 65.4256C78.0173 65.0506 77.5086 64.8398 76.9782 64.8398Z" fill="#344026"/>
<path d="M56.9782 69.8398C56.3848 69.8398 55.8048 69.6639 55.3114 69.3343C54.8181 69.0046 54.4336 68.5361 54.2065 67.9879C53.9794 67.4397 53.92 66.8365 54.0358 66.2546C54.1516 65.6726 54.4373 65.1381 54.8568 64.7185C55.2764 64.299 55.8109 64.0132 56.3929 63.8975C56.9748 63.7817 57.578 63.8411 58.1262 64.0682C58.6744 64.2953 59.1429 64.6798 59.4726 65.1731C59.8022 65.6665 59.9782 66.2465 59.9782 66.8398C59.9782 67.6355 59.6621 68.3986 59.0995 68.9612C58.5369 69.5238 57.7738 69.8398 56.9782 69.8398ZM56.9782 64.8398C56.5826 64.8398 56.1959 64.9571 55.867 65.1769C55.5381 65.3967 55.2818 65.709 55.1304 66.0745C54.979 66.4399 54.9394 66.8421 55.0166 67.23C55.0938 67.618 55.2842 67.9744 55.5639 68.2541C55.8436 68.5338 56.2 68.7242 56.588 68.8014C56.9759 68.8786 57.3781 68.839 57.7435 68.6876C58.109 68.5362 58.4213 68.2799 58.6411 67.951C58.8609 67.6221 58.9782 67.2354 58.9782 66.8398C58.9782 66.3094 58.7674 65.8007 58.3924 65.4256C58.0173 65.0506 57.5086 64.8398 56.9782 64.8398Z" fill="#344026"/>
<path d="M76.9781 66.3398C76.8455 66.3398 76.7184 66.2872 76.6246 66.1934C76.5308 66.0996 76.4781 65.9725 76.4781 65.8398V60.8398C76.4781 58.3203 75.4773 55.9039 73.6957 54.1223C71.9141 52.3407 69.4977 51.3398 66.9781 51.3398C64.4586 51.3398 62.0422 52.3407 60.2606 54.1223C58.479 55.9039 57.4781 58.3203 57.4781 60.8398V65.8398C57.4781 65.9725 57.4255 66.0996 57.3317 66.1934C57.2379 66.2872 57.1108 66.3398 56.9781 66.3398C56.8455 66.3398 56.7184 66.2872 56.6246 66.1934C56.5308 66.0996 56.4781 65.9725 56.4781 65.8398V60.8398C56.4781 58.0551 57.5844 55.3844 59.5535 53.4152C61.5227 51.4461 64.1934 50.3398 66.9781 50.3398C69.7629 50.3398 72.4336 51.4461 74.4028 53.4152C76.3719 55.3844 77.4781 58.0551 77.4781 60.8398V65.8398C77.4781 65.9725 77.4255 66.0996 77.3317 66.1934C77.2379 66.2872 77.1108 66.3398 76.9781 66.3398Z" fill="#344026"/>
</svg>
