<svg width="121" height="121" viewBox="0 0 121 121" fill="none" xmlns="http://www.w3.org/2000/svg">
<circle cx="60.1051" cy="60.8398" r="59.4" stroke="#728C54" stroke-width="1.2" stroke-dasharray="4 4"/>
<g clip-path="url(#clip0_4569_8164)">
<path d="M64.1051 87.3398H38.1051C36.9124 87.3372 35.7694 86.8622 34.926 86.0189C34.0827 85.1756 33.6077 84.0325 33.6051 82.8398V49.8398C33.6051 49.442 33.7631 49.0605 34.0444 48.7792C34.3257 48.4979 34.7073 48.3398 35.1051 48.3398H71.1051C71.5029 48.3398 71.8845 48.4979 72.1658 48.7792C72.4471 49.0605 72.6051 49.442 72.6051 49.8398V56.8398C72.6051 56.9725 72.5524 57.0996 72.4587 57.1934C72.3649 57.2872 72.2377 57.3398 72.1051 57.3398C71.9725 57.3398 71.8453 57.2872 71.7515 57.1934C71.6578 57.0996 71.6051 56.9725 71.6051 56.8398V49.8398C71.6051 49.7072 71.5524 49.5801 71.4587 49.4863C71.3649 49.3925 71.2377 49.3398 71.1051 49.3398H35.1051C34.9725 49.3398 34.8453 49.3925 34.7515 49.4863C34.6578 49.5801 34.6051 49.7072 34.6051 49.8398V82.8398C34.6051 83.7681 34.9739 84.6583 35.6302 85.3147C36.2866 85.9711 37.1768 86.3398 38.1051 86.3398H64.1051C64.2377 86.3398 64.3649 86.3925 64.4587 86.4863C64.5524 86.5801 64.6051 86.7072 64.6051 86.8398C64.6051 86.9725 64.5524 87.0996 64.4587 87.1934C64.3649 87.2872 64.2377 87.3398 64.1051 87.3398Z" fill="#344026"/>
<path d="M63.1051 58.8398C62.5118 58.8398 61.9317 58.6639 61.4384 58.3343C60.945 58.0046 60.5605 57.5361 60.3335 56.9879C60.1064 56.4397 60.047 55.8365 60.1627 55.2546C60.2785 54.6726 60.5642 54.1381 60.9838 53.7185C61.4033 53.299 61.9379 53.0132 62.5198 52.8975C63.1018 52.7817 63.705 52.8411 64.2532 53.0682C64.8013 53.2953 65.2699 53.6798 65.5995 54.1731C65.9292 54.6665 66.1051 55.2465 66.1051 55.8398C66.1051 56.6355 65.789 57.3986 65.2264 57.9612C64.6638 58.5238 63.9008 58.8398 63.1051 58.8398ZM63.1051 53.8398C62.7095 53.8398 62.3229 53.9571 61.994 54.1769C61.6651 54.3967 61.4087 54.709 61.2573 55.0745C61.106 55.4399 61.0664 55.8421 61.1435 56.23C61.2207 56.618 61.4112 56.9744 61.6909 57.2541C61.9706 57.5338 62.327 57.7242 62.7149 57.8014C63.1029 57.8786 63.505 57.839 63.8705 57.6876C64.2359 57.5362 64.5483 57.2799 64.768 56.951C64.9878 56.6221 65.1051 56.2354 65.1051 55.8398C65.1051 55.3094 64.8944 54.8007 64.5193 54.4256C64.1442 54.0506 63.6355 53.8398 63.1051 53.8398Z" fill="#344026"/>
<path d="M43.1051 58.8398C42.5118 58.8398 41.9317 58.6639 41.4384 58.3343C40.945 58.0046 40.5605 57.5361 40.3335 56.9879C40.1064 56.4397 40.047 55.8365 40.1627 55.2546C40.2785 54.6726 40.5642 54.1381 40.9838 53.7185C41.4033 53.299 41.9379 53.0132 42.5198 52.8975C43.1018 52.7817 43.705 52.8411 44.2532 53.0682C44.8013 53.2953 45.2699 53.6798 45.5995 54.1731C45.9292 54.6665 46.1051 55.2465 46.1051 55.8398C46.1051 56.6355 45.789 57.3986 45.2264 57.9612C44.6638 58.5238 43.9008 58.8398 43.1051 58.8398ZM43.1051 53.8398C42.7095 53.8398 42.3229 53.9571 41.994 54.1769C41.6651 54.3967 41.4087 54.709 41.2573 55.0745C41.106 55.4399 41.0664 55.8421 41.1435 56.23C41.2207 56.618 41.4112 56.9744 41.6909 57.2541C41.9706 57.5338 42.327 57.7242 42.7149 57.8014C43.1029 57.8786 43.505 57.839 43.8705 57.6876C44.2359 57.5362 44.5483 57.2799 44.768 56.951C44.9878 56.6221 45.1051 56.2354 45.1051 55.8398C45.1051 55.3094 44.8944 54.8007 44.5193 54.4256C44.1442 54.0506 43.6355 53.8398 43.1051 53.8398Z" fill="#344026"/>
<path d="M63.1051 55.3398C62.9725 55.3398 62.8453 55.2872 62.7515 55.1934C62.6578 55.0996 62.6051 54.9725 62.6051 54.8398V39.8398C62.6025 38.6472 62.1275 37.5041 61.2842 36.6608C60.4408 35.8174 59.2978 35.3425 58.1051 35.3398H48.1051C46.9124 35.3425 45.7694 35.8174 44.926 36.6608C44.0827 37.5041 43.6077 38.6472 43.6051 39.8398V54.8398C43.6051 54.9725 43.5524 55.0996 43.4587 55.1934C43.3649 55.2872 43.2377 55.3398 43.1051 55.3398C42.9725 55.3398 42.8453 55.2872 42.7515 55.1934C42.6578 55.0996 42.6051 54.9725 42.6051 54.8398V39.8398C42.6077 38.382 43.1881 36.9846 44.2189 35.9537C45.2498 34.9228 46.6472 34.3425 48.1051 34.3398H58.1051C59.563 34.3425 60.9604 34.9228 61.9913 35.9537C63.0221 36.9846 63.6025 38.382 63.6051 39.8398V54.8398C63.6051 54.9725 63.5524 55.0996 63.4587 55.1934C63.3649 55.2872 63.2377 55.3398 63.1051 55.3398Z" fill="#344026"/>
<path d="M72.1051 87.3398C71.2451 87.3398 70.6151 86.6198 70.0151 85.9298C69.7188 85.508 69.324 85.1647 68.8651 84.9298C68.3285 84.9021 67.7932 85.0051 67.3051 85.2298C66.9326 85.431 66.5216 85.5511 66.0994 85.5821C65.6771 85.6131 65.2531 85.5544 64.8551 85.4098C64.1251 84.9898 63.9451 84.0598 63.7651 83.1698C63.717 82.6441 63.5457 82.137 63.2651 81.6898C62.8179 81.4092 62.3109 81.2379 61.7851 81.1898C60.8951 81.0098 59.9651 80.8298 59.5451 80.0998C59.4034 79.6996 59.3462 79.2744 59.3772 78.851C59.4082 78.4275 59.5266 78.0152 59.7251 77.6398C59.9506 77.1556 60.0536 76.6233 60.0251 76.0898C59.7902 75.6309 59.447 75.2362 59.0251 74.9398C58.3251 74.3398 57.6051 73.6998 57.6051 72.8398C57.6051 71.9798 58.3251 71.3498 59.0151 70.7498C59.437 70.4535 59.7802 70.0588 60.0151 69.5998C60.0428 69.0632 59.9399 68.5279 59.7151 68.0398C59.5139 67.6673 59.3939 67.2564 59.3628 66.8341C59.3318 66.4118 59.3905 65.9878 59.5351 65.5898C59.9551 64.8598 60.8851 64.6798 61.7751 64.4998C62.3009 64.4518 62.8079 64.2805 63.2551 63.9998C63.5357 63.5526 63.707 63.0456 63.7551 62.5198C63.9351 61.6298 64.1151 60.6998 64.8451 60.2798C65.2453 60.1381 65.6706 60.0809 66.094 60.1119C66.5174 60.1429 66.9298 60.2614 67.3051 60.4598C67.7894 60.6853 68.3217 60.7884 68.8551 60.7598C69.314 60.525 69.7088 60.1817 70.0051 59.7598C70.6051 59.0598 71.2451 58.3398 72.1051 58.3398C72.9651 58.3398 73.5951 59.0598 74.1951 59.7498C74.4914 60.1717 74.8862 60.515 75.3451 60.7498C75.8817 60.7776 76.417 60.6746 76.9051 60.4498C77.2776 60.2487 77.6886 60.1286 78.1108 60.0976C78.5331 60.0665 78.9571 60.1253 79.3551 60.2698C80.0851 60.6898 80.2651 61.6198 80.4451 62.5098C80.4932 63.0356 80.6645 63.5426 80.9451 63.9898C81.3923 64.2705 81.8993 64.4418 82.4251 64.4898C83.3151 64.6698 84.2451 64.8498 84.6651 65.5798C84.8068 65.98 84.864 66.4053 84.833 66.8287C84.802 67.2521 84.6836 67.6645 84.4851 68.0398C84.2596 68.5241 84.1566 69.0564 84.1851 69.5898C84.42 70.0488 84.7632 70.4435 85.1851 70.7398C85.8851 71.3398 86.6051 71.9798 86.6051 72.8398C86.6051 73.6998 85.8851 74.3298 85.1951 74.9298C84.7732 75.2262 84.43 75.6209 84.1951 76.0798C84.1674 76.6165 84.2703 77.1518 84.4951 77.6398C84.6963 78.0124 84.8164 78.4233 84.8474 78.8456C84.8784 79.2678 84.8197 79.6919 84.6751 80.0898C84.2551 80.8198 83.3251 80.9998 82.4351 81.1798C81.9093 81.2279 81.4023 81.3992 80.9551 81.6798C80.6745 82.127 80.5032 82.6341 80.4551 83.1598C80.2751 84.0498 80.0951 84.9798 79.3651 85.3998C78.9649 85.5416 78.5397 85.5988 78.1162 85.5678C77.6928 85.5368 77.2804 85.4183 76.9051 85.2198C76.4208 84.9944 75.8885 84.8913 75.3551 84.9198C74.8962 85.1547 74.5014 85.498 74.2051 85.9198C73.6051 86.6198 72.9651 87.3398 72.1051 87.3398ZM68.6551 83.8898C68.8137 83.8895 68.9717 83.9097 69.1251 83.9498C69.7878 84.2223 70.3574 84.6807 70.7651 85.2698C71.2051 85.7698 71.6951 86.3398 72.1051 86.3398C72.5151 86.3398 73.0051 85.7698 73.4451 85.2698C73.8528 84.6807 74.4224 84.2223 75.0851 83.9498C75.8153 83.8523 76.5582 83.9668 77.2251 84.2798C77.8351 84.4798 78.5351 84.7198 78.8551 84.5298C79.1751 84.3398 79.3351 83.6098 79.4651 82.9698C79.5229 82.2427 79.7904 81.548 80.2351 80.9698C80.8132 80.5251 81.508 80.2576 82.2351 80.1998C82.8751 80.0698 83.6051 79.9298 83.7951 79.5898C83.9851 79.2498 83.7951 78.5898 83.5451 77.9598C83.2321 77.2929 83.1175 76.5501 83.2151 75.8198C83.4875 75.1572 83.946 74.5876 84.5351 74.1798C85.0351 73.7398 85.6051 73.2498 85.6051 72.8398C85.6051 72.4298 85.0351 71.9398 84.5351 71.4998C83.946 71.0921 83.4875 70.5225 83.2151 69.8598C83.1175 69.1296 83.2321 68.3868 83.5451 67.7198C83.7451 67.1098 83.9851 66.4098 83.7951 66.0898C83.6051 65.7698 82.8751 65.6098 82.2351 65.4798C81.508 65.4221 80.8132 65.1546 80.2351 64.7098C79.7904 64.1317 79.5229 63.437 79.4651 62.7098C79.3351 62.0698 79.1951 61.3398 78.8551 61.1498C78.5151 60.9598 77.8551 61.1998 77.2251 61.3998C76.5582 61.7128 75.8153 61.8274 75.0851 61.7298C74.4224 61.4574 73.8528 60.999 73.4451 60.4098C73.0051 59.9098 72.5151 59.3398 72.1051 59.3398C71.6951 59.3398 71.2051 59.9098 70.7651 60.4098C70.3574 60.999 69.7878 61.4574 69.1251 61.7298C68.3949 61.8274 67.652 61.7128 66.9851 61.3998C66.3751 61.1998 65.6751 60.9598 65.3551 61.1498C65.0351 61.3398 64.8751 62.0698 64.7451 62.7098C64.6873 63.437 64.4198 64.1317 63.9751 64.7098C63.397 65.1546 62.7022 65.4221 61.9751 65.4798C61.3351 65.6098 60.6051 65.7498 60.4151 66.0898C60.2251 66.4298 60.4651 67.0898 60.6651 67.7198C60.9781 68.3868 61.0927 69.1296 60.9951 69.8598C60.7227 70.5225 60.2642 71.0921 59.6751 71.4998C59.1751 71.9398 58.6051 72.4298 58.6051 72.8398C58.6051 73.2498 59.1751 73.7398 59.6751 74.1798C60.2642 74.5876 60.7227 75.1572 60.9951 75.8198C61.0927 76.5501 60.9781 77.2929 60.6651 77.9598C60.4651 78.5698 60.2251 79.2698 60.4151 79.5898C60.6051 79.9098 61.3351 80.0698 61.9751 80.1998C62.7022 80.2576 63.397 80.5251 63.9751 80.9698C64.4198 81.548 64.6873 82.2427 64.7451 82.9698C64.8751 83.6098 65.0151 84.3398 65.3551 84.5298C65.6951 84.7198 66.3551 84.5298 66.9851 84.2798C67.5178 84.0627 68.0814 83.9311 68.6551 83.8898Z" fill="#344026"/>
<path d="M72.1051 81.3399C69.8508 81.3399 67.6888 80.4444 66.0947 78.8503C64.5006 77.2563 63.6051 75.0943 63.6051 72.8399C63.6051 70.5856 64.5006 68.4236 66.0947 66.8295C67.6888 65.2355 69.8508 64.3399 72.1051 64.3399C74.0019 64.3307 75.8457 64.9653 77.3351 66.1399C77.3916 66.1782 77.4397 66.2277 77.4763 66.2853C77.513 66.3429 77.5374 66.4074 77.5482 66.4748C77.559 66.5422 77.5559 66.6111 77.539 66.6772C77.5222 66.7433 77.492 66.8053 77.4503 66.8594C77.4085 66.9134 77.3562 66.9583 77.2965 66.9913C77.2367 67.0244 77.1709 67.0448 77.1029 67.0514C77.035 67.058 76.9664 67.0507 76.9015 67.0298C76.8365 67.0089 76.7765 66.9749 76.7251 66.9299C75.3891 65.8853 73.7386 65.3242 72.0427 65.3383C70.3468 65.3524 68.7058 65.9409 67.3874 67.0076C66.0691 68.0744 65.1511 69.5565 64.7835 71.2121C64.4158 72.8677 64.6201 74.599 65.363 76.1235C66.1059 77.6481 67.3436 78.8758 68.8741 79.6064C70.4046 80.337 72.1375 80.5273 73.7901 80.1463C75.4426 79.7653 76.9173 78.8355 77.9734 77.5085C79.0295 76.1816 79.6047 74.5359 79.6051 72.8399C79.6051 72.7073 79.6578 72.5802 79.7515 72.4864C79.8453 72.3926 79.9725 72.3399 80.1051 72.3399C80.2377 72.3399 80.3649 72.3926 80.4587 72.4864C80.5524 72.5802 80.6051 72.7073 80.6051 72.8399C80.6025 75.0935 79.7061 77.2539 78.1126 78.8474C76.5191 80.4409 74.3586 81.3373 72.1051 81.3399Z" fill="#344026"/>
<path d="M71.7051 76.9995C71.5716 77.0007 71.4427 76.9506 71.3451 76.8595L67.7751 73.3395C67.6829 73.2443 67.6313 73.117 67.6313 72.9845C67.6313 72.8519 67.6829 72.7246 67.7751 72.6295C67.8216 72.5826 67.8769 72.5454 67.9378 72.52C67.9988 72.4946 68.0641 72.4816 68.1301 72.4816C68.1961 72.4816 68.2615 72.4946 68.3224 72.52C68.3833 72.5454 68.4386 72.5826 68.4851 72.6295L71.7051 75.8495L78.7951 68.7495C78.8416 68.7026 78.8969 68.6654 78.9578 68.64C79.0188 68.6146 79.0841 68.6016 79.1501 68.6016C79.2161 68.6016 79.2815 68.6146 79.3424 68.64C79.4033 68.6654 79.4586 68.7026 79.5051 68.7495C79.553 68.7944 79.5911 68.8486 79.6171 68.9088C79.6432 68.969 79.6566 69.0339 79.6566 69.0995C79.6566 69.1651 79.6432 69.23 79.6171 69.2902C79.5911 69.3504 79.553 69.4046 79.5051 69.4495L72.0551 76.9095C71.9538 76.982 71.8289 77.0141 71.7051 76.9995Z" fill="#344026"/>
</g>
<defs>
<clipPath id="clip0_4569_8164">
<rect width="53" height="53" fill="white" transform="translate(33.6051 34.3398)"/>
</clipPath>
</defs>
</svg>
