<svg width="13" height="12" viewBox="0 0 13 12" fill="none" xmlns="http://www.w3.org/2000/svg">
<path d="M11.3672 1.88398C11.087 1.60374 10.7545 1.38142 10.3884 1.22975C10.0223 1.07807 9.62998 1 9.23374 1C8.8375 1 8.44515 1.07807 8.07909 1.22975C7.71303 1.38142 7.38044 1.60374 7.10032 1.88398L6.51898 2.46533L5.93764 1.88398C5.37182 1.31817 4.60441 1.00029 3.80422 1.00029C3.00403 1.00029 2.23662 1.31817 1.6708 1.88398C1.10498 2.4498 0.787109 3.21721 0.787109 4.0174C0.787109 4.81759 1.10498 5.585 1.6708 6.15082L2.25214 6.73216L6.51898 10.999L10.7858 6.73216L11.3672 6.15082C11.6474 5.8707 11.8697 5.53811 12.0214 5.17206C12.1731 4.806 12.2511 4.41364 12.2511 4.0174C12.2511 3.62116 12.1731 3.22881 12.0214 2.86275C11.8697 2.49669 11.6474 2.1641 11.3672 1.88398Z" stroke="white" stroke-linecap="round" stroke-linejoin="round"/>
</svg>
