<svg width="723" height="382" viewBox="0 0 723 382" fill="none" xmlns="http://www.w3.org/2000/svg">
<path d="M721.238 380.505C715.931 380.358 508.319 380.063 503.013 379.916C479.133 379.179 458.791 377.115 434.616 376.82C388.184 376.378 341.751 376.526 296.792 376.526C234.44 376.378 64.0315 379.179 1.53149 379.768" stroke="#222221" stroke-width="3" stroke-miterlimit="10" stroke-linecap="round"/>
<path d="M275.428 172.475C274.691 170.411 273.659 168.347 272.332 166.726C271.743 166.284 271.153 165.694 270.564 165.252C268.353 162.009 265.699 158.913 262.456 156.85C259.803 155.081 256.855 153.459 254.202 151.69C252.58 150.216 251.106 149.037 249.927 148.3C247.863 146.679 246.094 144.32 243.588 143.731C240.935 143.288 239.166 145.942 237.987 147.858C234.891 153.017 234.891 157.587 231.501 161.272C230.617 162.304 228.995 164.515 227.669 166.431C226.784 165.694 225.752 164.957 224.573 164.515C221.625 163.925 220.298 163.778 218.677 162.893C217.645 162.009 216.318 161.272 214.992 160.682C213.223 159.503 212.044 158.471 210.422 157.292C208.358 155.523 206.295 154.049 203.789 153.164C202.904 152.87 202.02 152.575 200.988 152.722C199.956 153.017 199.219 153.754 198.63 154.639C197.303 156.26 197.156 156.555 195.239 158.766C191.849 161.419 188.606 164.073 185.511 166.873C184.036 166.873 182.71 168.347 181.973 170.116C181.088 171.001 180.204 171.738 179.172 172.622C179.172 172.622 179.025 172.622 179.025 172.769L178.877 172.917C177.845 171.738 177.845 171.738 176.961 170.558C173.276 165.841 170.623 160.387 167.232 155.523C167.232 155.376 167.232 155.228 167.38 155.081C167.38 155.081 167.38 154.933 167.527 154.933C167.822 154.491 168.117 153.902 168.117 153.459C168.117 151.543 165.906 150.511 164.432 151.396C163.695 150.511 162.957 149.774 161.778 149.627C158.683 150.069 156.472 152.427 154.261 154.344C151.46 156.85 149.396 158.324 145.416 160.83C142.616 162.598 139.962 164.367 137.014 165.989C133.034 167.905 131.707 168.937 129.054 172.769C128.022 174.243 127.58 176.012 126.548 177.634C126.253 177.929 125.959 178.371 125.811 178.518C125.074 179.255 125.222 180.435 125.516 181.319C126.843 184.414 129.939 186.331 132.15 188.837C134.508 190.9 136.572 193.701 139.667 194.733C142.173 195.175 144.679 195.175 146.89 193.848C149.544 192.227 152.049 190.458 154.555 188.689C155.44 188.689 156.177 188.1 156.619 187.363C157.798 186.626 158.978 186.036 160.157 185.446C160.157 185.889 160.157 186.331 160.009 186.773C159.272 186.92 158.535 187.51 158.24 188.394C158.24 188.542 158.24 188.837 158.24 188.984C158.24 189.574 158.24 190.016 158.24 190.606C158.24 191.343 158.24 192.08 158.24 192.817C158.24 194.143 158.093 195.47 158.093 196.797C156.472 198.713 156.029 204.462 156.029 208.736C156.029 211.242 156.177 213.748 156.324 216.254C156.472 217.728 156.619 219.792 158.093 220.381C157.209 223.477 156.029 227.457 155.587 229.521C154.998 233.353 155.145 237.186 154.998 241.018C154.85 242.492 154.998 242.935 154.113 245.44C153.966 245.735 153.818 246.177 153.818 246.325C153.671 247.504 153.671 248.831 154.555 249.715C157.798 252.368 163.105 249.568 165.021 250.01C165.906 250.01 166.79 250.01 167.527 249.863C168.264 250.157 169.149 250.452 170.623 251.042C174.16 251.337 177.403 250.452 180.646 249.568C182.415 249.568 184.184 249.42 185.953 249.273C190.965 248.831 195.829 248.683 200.841 248.094C206.737 247.946 212.633 247.799 218.382 247.357C220.888 247.357 222.952 248.094 226.784 247.946C230.469 247.799 235.776 246.03 237.397 246.03C240.788 245.735 241.082 245.883 244.178 246.767C249.485 247.652 249.19 240.871 248.895 237.186C248.748 235.564 248.6 233.943 248.6 232.321C248.748 231.879 248.748 231.437 248.748 230.995C248.748 230.258 248.6 229.668 248.6 228.931C248.748 224.804 249.042 220.676 249.337 216.549C249.337 207.999 248.895 199.302 249.19 190.753C249.19 190.458 249.19 190.163 249.19 189.868C251.99 190.606 255.97 192.08 257.887 194.585C258.919 195.765 258.034 194.585 259.066 196.207C259.95 197.976 262.604 197.828 263.636 196.06C265.994 190.753 270.121 186.478 272.922 181.466C274.101 179.55 274.691 178.223 274.544 176.897C275.281 176.602 275.87 175.865 275.87 174.981C275.87 174.391 275.575 173.506 275.428 172.475ZM132.15 176.602C132.445 176.16 132.592 175.718 132.887 175.275C134.213 173.506 133.624 174.096 135.393 172.475C135.245 172.622 135.098 172.769 134.95 172.917C135.687 172.18 136.572 171.738 137.604 171.148C135.54 172.917 133.771 174.686 132.15 176.602ZM268.058 176.749C267.615 176.16 266.878 175.718 265.994 175.865C265.994 175.423 265.994 174.981 265.994 174.538C266.141 174.686 266.436 174.833 266.584 174.833C266.878 174.833 267.173 174.833 267.321 174.833C267.615 175.128 267.91 175.57 268.205 175.718C268.205 176.16 268.205 176.455 268.058 176.749ZM192.439 176.749C191.849 176.749 191.407 176.897 190.965 177.339C191.554 176.455 191.996 175.423 192.439 174.538C192.439 175.275 192.439 176.012 192.439 176.749ZM177.845 228.194C179.025 230.405 180.204 232.469 181.236 234.68C180.941 234.68 180.646 234.68 180.351 234.68C179.467 234.09 178.582 233.501 177.845 233.058C177.698 231.584 177.698 229.963 177.551 228.489C177.698 228.341 177.698 228.194 177.845 228.194ZM234.891 227.457C234.744 227.457 234.449 227.604 234.302 227.752C234.154 226.867 234.007 225.835 233.712 224.951C234.007 225.541 234.449 226.278 234.891 226.72C234.891 226.867 234.891 227.162 234.891 227.457ZM205.41 182.646C205.41 181.761 205.41 180.877 205.41 179.992C205.558 180.877 205.853 181.614 206 182.498C205.853 182.646 205.558 182.646 205.41 182.646ZM189.196 238.66C189.048 238.365 188.901 238.07 188.901 237.628C189.343 237.481 189.933 237.333 190.375 237.038C190.965 237.923 191.554 238.807 192.144 239.692C191.554 239.692 190.817 239.839 190.228 239.839C190.08 239.397 189.785 238.955 189.196 238.66ZM166.79 233.943C166.937 235.712 167.38 237.333 168.117 238.955C167.822 238.955 167.38 239.102 167.085 239.102C167.085 237.481 166.937 235.712 166.79 233.943ZM200.693 237.923C200.988 238.07 201.283 238.218 201.725 238.365C202.02 238.512 202.315 238.512 202.61 238.66V238.807C202.167 238.807 201.725 238.955 201.43 238.955C201.136 238.512 200.988 238.218 200.693 237.923ZM253.022 157.439C252.875 157.587 252.728 157.734 252.58 157.881C252.433 158.471 252.285 158.913 252.285 159.503C252.285 159.356 252.138 159.208 252.138 159.061C251.843 158.176 251.401 156.997 250.664 156.113C250.664 155.818 250.811 155.523 250.811 155.228L250.959 155.376C251.696 156.113 252.138 156.702 253.022 157.439ZM188.164 171.148C188.164 171.001 188.164 170.853 188.164 170.706C188.901 170.116 189.638 169.527 190.228 168.937C190.08 169.232 189.785 169.527 189.638 169.821C189.196 170.264 188.753 170.706 188.164 171.148ZM195.682 164.367C195.829 164.367 195.829 164.22 195.829 164.22C195.682 164.367 195.682 164.662 195.534 164.81C194.945 165.252 194.355 165.841 193.765 166.284H193.618C193.47 166.284 193.323 166.284 193.176 166.431C194.06 165.694 194.945 164.957 195.682 164.367ZM244.031 242.05C243.441 241.903 242.999 241.755 242.409 241.608C242.851 241.018 243.294 240.281 243.441 239.397C243.588 239.397 243.883 239.397 244.031 239.249C244.031 239.692 244.031 240.134 244.031 240.429C244.178 240.871 244.031 241.608 244.031 242.05Z" fill="#728C54"/>
<path d="M234.597 144.762C232.975 145.351 231.649 146.383 230.027 146.973C226.342 147.857 222.804 149.331 219.119 150.216C214.992 150.953 213.665 151.542 210.128 151.247C209.98 151.395 207.032 150.363 204.968 150.805C202.168 151.247 199.22 151.69 196.271 151.984C196.124 151.837 195.829 151.69 195.682 151.69C194.797 151.395 193.913 151.837 193.029 152.279C188.901 152.721 184.332 152.721 179.172 152.427C179.025 152.427 178.288 152.427 177.551 152.132C176.961 151.69 176.224 151.542 175.635 151.247C174.455 150.658 173.129 149.921 171.36 148.889C170.475 148.447 169.444 147.562 168.264 147.71C168.117 147.71 167.97 147.71 167.97 147.71C167.822 147.562 167.675 147.562 167.527 147.415C166.053 146.383 163.695 145.351 162.663 147.415C161.778 148.742 162.663 150.51 164.137 150.953C164.727 151.247 165.169 151.542 165.611 151.837C165.758 151.837 165.758 151.984 165.906 151.984C167.38 155.08 169.886 157.586 171.507 160.534C173.276 163.187 174.161 166.283 176.372 168.641C179.762 171.295 181.826 166.872 182.857 165.693C184.921 163.777 187.28 162.155 189.491 160.239C191.112 159.207 192.734 158.175 194.503 157.144C194.65 156.996 194.797 156.996 194.945 156.849C198.04 156.554 200.988 155.964 204.231 155.67C204.526 155.67 204.674 155.522 204.821 155.522C204.821 155.67 204.968 155.817 204.968 155.817C205.558 156.554 206.442 156.849 207.327 156.849C208.359 157.144 208.211 157.291 210.128 158.028C214.845 159.65 216.024 159.944 220.446 162.598C221.92 163.335 223.247 164.367 224.868 164.514C226.49 164.514 227.374 163.335 227.669 161.861C228.553 160.387 229.88 159.06 229.732 157.291C232.681 154.933 235.481 151.837 236.366 150.068C236.513 149.626 236.661 149.184 236.513 148.889C238.577 147.562 237.25 144.172 234.597 144.762Z" fill="#9CAD88"/>
<path d="M257.445 362.038C252.875 359.974 248.011 359.09 242.999 359.09C242.409 359.09 241.82 359.09 241.23 359.09C241.083 357.91 240.788 355.699 240.641 354.52C239.904 350.245 240.051 345.971 239.904 341.548C239.904 341.254 239.904 340.811 239.609 340.517C239.461 340.369 239.167 340.369 238.872 340.369C237.398 340.517 235.776 340.664 234.45 341.254C235.039 347.445 235.629 353.783 236.661 359.974C233.123 361.448 230.175 364.544 229.733 368.524C229.143 372.356 234.45 374.125 239.167 375.304C242.704 376.336 246.389 376.484 250.075 376.336C253.612 376.041 257.297 375.746 260.54 374.125C263.046 373.093 265.257 369.998 263.931 367.197C262.899 364.396 259.951 363.217 257.445 362.038ZM259.361 369.113C258.624 369.85 259.214 369.408 257.74 370.145C253.317 371.767 245.505 372.504 239.461 370.587C238.282 370.292 235.629 369.998 234.892 368.818C234.007 367.639 235.481 366.607 236.071 365.723C236.218 365.576 236.366 365.428 236.513 365.281C236.218 365.428 235.776 365.87 236.218 365.428C236.366 365.133 237.545 364.691 237.987 364.396C238.724 364.101 239.461 363.954 240.051 363.659C241.23 363.954 242.409 363.659 243.589 363.807C246.832 363.954 247.569 363.954 249.927 364.396C254.202 365.576 255.823 366.018 259.066 368.229C259.214 368.671 259.361 368.818 259.361 369.113C259.361 368.966 259.361 368.966 259.361 369.113Z" fill="#222221"/>
<path d="M74.9568 225.099C75.8412 224.804 76.8731 224.657 77.7575 224.362C78.1997 224.362 78.6419 224.362 79.0841 224.214C85.1278 222.888 91.024 220.087 95.4462 218.318C99.8683 216.697 103.996 214.633 108.27 212.717C114.019 210.358 119.621 207.558 124.632 203.872C127.433 201.809 130.087 199.303 131.855 196.355C132.15 196.65 132.298 196.797 132.592 197.092C132.74 196.944 132.887 196.797 133.035 196.797C133.477 197.092 133.919 197.534 134.361 197.976C136.278 199.303 137.604 202.251 140.11 202.398C142.911 201.956 145.122 199.893 147.333 198.418C149.102 197.092 151.018 195.913 152.787 194.733C152.787 203.43 152.934 212.127 152.197 220.677C151.755 228.489 151.46 236.154 151.018 243.967C150.871 246.325 150.723 248.536 150.723 250.895C150.723 251.485 151.018 252.222 151.46 252.664C151.608 252.811 151.903 252.959 152.05 253.106C150.871 265.635 151.166 278.312 151.903 290.989C152.197 302.339 152.05 313.542 152.05 324.893C152.345 331.821 150.871 335.211 150.428 341.844C149.691 347.151 153.819 346.709 157.651 346.709C159.715 346.856 161.926 346.856 163.99 346.709C163.695 350.394 163.253 354.226 163.105 357.911C161.484 358.354 159.715 359.091 158.094 359.533C152.197 361.302 146.154 363.071 141.142 366.756C139.963 367.64 138.931 368.672 138.489 369.999C138.194 371.473 138.636 373.094 139.373 374.273C142.174 379.875 154.703 378.696 162.074 377.074C167.528 376.042 170.918 372.062 170.623 366.314C170.476 364.545 169.886 362.776 169.002 361.154C168.707 360.565 168.265 359.975 167.675 359.68C167.675 359.533 167.675 359.533 167.675 359.385C167.675 357.174 167.822 354.816 167.97 352.605C168.117 350.541 168.265 348.477 168.559 346.266C169.591 346.266 170.476 346.119 171.507 346.119C172.392 346.709 173.571 346.561 174.308 345.972C176.814 345.824 179.173 345.529 181.678 345.382C184.332 344.94 187.575 345.382 189.491 343.171C191.112 341.402 191.849 339.191 192.586 336.98C194.061 332.558 194.798 327.841 195.535 323.124C196.714 316.49 198.63 309.857 199.957 303.224C201.283 296.738 203.052 290.842 205.263 286.42C205.558 285.683 205.558 285.535 205.558 285.388C206.148 285.388 206.737 285.388 207.474 285.388C207.769 285.388 208.506 285.388 209.243 285.388C209.243 285.977 209.391 286.567 209.391 286.714C209.391 299.539 210.423 315.753 212.191 326.219C212.634 329.609 212.781 333 213.076 336.39C213.223 338.159 213.371 340.075 214.992 341.107C216.761 342.581 219.12 343.023 221.331 343.318C225.605 344.055 230.028 343.466 234.302 343.318C234.745 343.318 235.039 343.318 235.482 343.318V343.466C237.398 343.171 239.314 342.876 241.23 343.023C244.326 342.876 247.421 342.434 250.37 341.844C252.138 341.402 254.055 340.812 255.676 339.633C256.708 338.601 256.708 336.98 257.003 335.506C257.15 332.558 257.15 329.757 257.298 326.809C257.445 317.817 257.592 308.825 257.15 299.834C256.413 285.683 254.939 271.532 252.728 257.528C252.433 255.317 252.286 252.959 251.991 250.747C251.844 249.716 251.991 248.684 251.549 247.652C251.696 247.21 251.991 246.768 251.991 246.325C253.907 238.66 253.318 230.553 252.728 222.74C252.286 212.569 250.812 204.315 250.37 195.323C252.433 196.65 255.676 198.713 257.74 199.45C258.919 199.893 260.098 200.777 261.278 201.367C262.899 201.809 264.52 200.63 265.405 199.45C268.058 196.207 269.974 192.522 271.891 188.837C274.102 192.227 277.197 195.028 279.998 197.976C284.42 202.841 289.579 206.821 295.476 209.916C300.34 213.306 305.499 215.812 310.953 218.171C311.985 218.466 312.87 219.203 313.901 219.645C313.754 220.235 313.754 220.677 313.607 221.266C313.312 224.214 314.638 226.868 315.818 229.374C319.061 234.68 325.399 236.891 331.295 237.039C333.654 237.186 335.717 236.597 337.191 235.565C337.781 234.828 338.223 234.091 338.518 233.206C338.518 232.469 338.665 231.585 339.108 230.848C339.403 228.489 338.813 225.836 337.781 223.772C336.602 221.561 334.833 219.645 332.917 218.171C330.411 216.992 327.463 216.549 324.809 216.107C322.598 215.812 320.387 215.665 318.176 215.37C317.439 215.37 316.555 215.075 315.67 215.075C314.933 214.633 314.049 214.338 313.312 213.896C307.71 211.39 302.256 208.589 297.097 205.052C292.528 202.546 290.759 201.367 287.221 197.976C282.799 193.554 277.934 189.279 275.576 185.299C275.281 184.857 274.986 184.562 274.691 184.415C276.608 180.582 278.819 176.897 279.998 172.917C279.851 170.854 278.229 169.38 277.05 167.905C274.839 165.4 272.333 163.041 269.974 160.83C266.289 157.587 262.899 154.049 259.214 150.659C257.003 148.743 253.76 146.679 247.569 142.404C246.684 141.815 245.947 140.783 245.358 140.93C217.94 148.743 190.818 150.217 163.842 144.321C157.651 146.532 153.671 149.332 151.018 151.396C147.923 153.902 146.301 156.408 139.815 162.009C138.489 163.189 137.162 164.368 135.835 165.4C131.266 169.527 126.401 173.36 122.569 178.076C122.274 178.519 121.832 178.961 121.684 179.551L121.537 179.698C121.537 179.698 121.537 179.698 121.39 179.698C120.358 180.288 119.768 181.319 119.768 182.351C122.716 185.889 125.517 189.427 128.465 192.964C123.306 202.693 109.892 206.968 98.3943 212.569C94.1195 214.043 89.6974 216.255 85.1278 218.023C84.833 218.023 84.6856 218.023 84.3908 218.171C80.853 219.497 77.1679 220.087 73.4827 221.119C73.3353 221.119 73.1879 221.119 72.8931 221.119C72.5983 220.529 72.1561 220.087 71.7139 219.497M236.513 146.237C232.681 151.691 228.996 157.292 226.195 163.336L226.048 163.189C220.741 160.093 214.992 157.882 209.686 154.786C208.359 154.049 207.032 153.018 205.706 152.133C217.351 151.838 227.374 150.364 236.513 146.237ZM195.829 152.133C195.24 152.87 194.65 153.46 194.208 153.902C190.67 158.029 186.543 161.862 182.416 165.547C180.794 166.874 179.467 168.2 177.993 169.674C177.109 167.905 176.372 166.137 175.487 164.368C172.392 158.914 168.559 153.902 165.316 148.448C165.169 148.301 165.022 148.153 164.874 147.858C165.316 148.006 165.759 148.006 166.201 147.858C166.496 147.858 166.791 147.711 166.938 147.416C168.559 148.006 170.328 148.448 171.95 149.038C179.615 151.691 187.722 152.133 195.829 152.133ZM162.663 301.16C162.958 314.427 162.811 327.841 162.958 341.107C162.958 341.255 162.958 341.402 162.958 341.549C160.157 341.549 157.504 341.549 155.44 341.549C155.588 338.896 155.735 338.159 156.177 334.916C157.357 327.841 156.914 320.765 156.914 313.69C157.357 299.539 156.177 285.683 156.177 271.679C156.177 267.109 156.325 262.54 156.472 257.97C156.472 257.086 156.62 256.201 156.767 255.17C158.388 253.696 160.305 252.811 162.663 252.222C162.368 254.285 162.368 256.496 162.368 258.56C162.516 264.456 162.811 270.205 162.958 276.101C163.4 284.503 162.516 292.758 162.663 301.16ZM166.201 368.377C165.464 370.441 165.906 369.999 164.432 371.325C164.285 371.325 164.285 371.473 164.137 371.473C163.99 371.62 163.695 371.62 163.4 371.768C156.177 373.979 148.807 375.01 144.827 372.799C144.532 372.505 143.943 371.915 143.648 371.62C143.648 371.62 143.648 371.473 143.5 371.473C143.5 371.325 143.5 371.325 143.5 371.178C143.5 371.178 143.5 371.178 143.5 371.03C144.532 369.851 146.891 368.672 149.397 367.345C150.576 366.756 158.831 364.102 162.368 363.071C162.958 362.776 163.695 362.628 164.432 362.481C164.579 362.776 164.727 363.071 165.022 363.365L165.169 363.513C165.316 363.808 165.611 364.102 165.759 364.397C166.053 364.987 166.496 367.493 166.201 368.377ZM175.487 288.631C175.193 295.854 174.308 303.076 173.571 310.152C172.982 319.586 172.539 329.02 171.507 338.454C171.36 340.075 171.213 340.518 171.213 341.255C170.033 341.255 168.854 341.402 167.675 341.402C167.675 341.255 167.675 341.255 167.675 341.107C167.528 326.219 167.528 311.331 167.38 296.443C167.528 287.304 168.265 278.018 167.675 268.878C167.675 262.54 166.496 256.054 167.822 251.337C170.033 251.042 172.539 251.042 175.045 250.895C175.045 251.337 175.193 251.632 175.487 252.074C175.93 258.118 175.93 264.309 176.077 270.352C175.782 276.691 175.487 283.324 175.487 288.631ZM183.742 312.953C183.595 322.092 182.563 331.231 182.71 340.37C181.089 340.518 179.173 340.665 177.256 340.96C177.551 340.223 177.551 339.191 177.699 338.454C179.025 325.924 178.141 313.395 179.32 300.865C180.647 290.547 180.794 280.229 180.647 269.91C180.941 263.572 181.826 257.823 182.268 252.959C182.268 251.927 181.678 251.19 180.794 250.895C183.153 250.747 185.511 250.6 187.87 250.453C187.87 250.6 187.87 250.747 187.87 250.895C187.575 259.739 186.248 265.488 185.511 273.595C185.216 286.714 184.332 299.834 183.742 312.953ZM200.546 270.205C198.778 278.46 197.746 288.189 197.009 294.674C196.714 297.033 196.272 299.391 195.682 301.75C195.24 303.814 194.798 305.877 194.355 307.941C194.355 308.236 194.208 308.383 194.208 308.678C193.471 312.216 192.734 315.606 191.849 318.996C190.965 324.598 188.901 334.916 187.575 338.012C188.312 316.49 189.491 295.117 190.523 273.743C191.26 266.225 192.734 259.15 193.029 250.305C193.913 250.305 194.65 250.305 195.535 250.305C198.041 250.453 200.694 250.453 203.2 250.6C202.02 257.676 201.578 264.309 200.546 270.205ZM209.833 279.049C209.98 279.492 209.98 279.934 209.98 280.376C207.769 280.376 205.411 280.081 203.347 280.671C204.969 271.974 206.443 263.13 207.18 254.285C207.327 252.959 207.474 252.369 207.769 250.305C208.506 250.305 209.243 250.305 209.98 250.305C209.833 252.369 209.833 254.285 209.686 256.349C209.391 264.014 208.949 271.532 209.833 279.049ZM218.677 337.422C218.235 333.442 218.088 329.462 217.645 325.482C216.319 316.785 215.582 310.742 215.287 301.308C215.14 296.885 214.992 292.611 214.992 288.189C214.992 287.157 214.992 285.683 214.845 284.503C215.14 284.209 215.287 283.766 215.14 283.324C213.666 273.301 214.255 263.277 214.697 253.253C214.697 252.369 214.845 251.337 214.845 250.453C216.024 250.453 217.351 250.453 218.53 250.305C221.625 263.719 220.299 280.081 221.036 295.559C221.183 303.076 222.362 310.447 223.099 317.817C223.689 324.155 223.542 330.641 223.394 336.98C223.394 337.569 223.689 338.159 223.984 338.454C221.478 338.454 219.414 338.012 218.677 337.422ZM231.796 338.601C230.47 338.601 228.996 338.749 227.669 338.749C228.996 337.127 228.111 334.916 228.406 333C228.996 318.849 225.9 304.845 225.9 290.694C225.311 277.28 226.342 263.572 223.542 250.305C225.016 250.305 226.49 250.158 227.964 250.158C228.406 250.158 228.848 250.158 229.438 250.01C229.438 250.158 229.438 250.305 229.29 250.6C227.669 258.56 228.848 266.667 228.553 274.775C227.816 288.631 230.617 302.339 231.354 316.196C231.649 323.566 232.091 331.084 231.796 338.601ZM236.513 338.306C236.808 327.988 236.219 317.522 235.334 307.204C234.597 299.244 233.27 291.431 233.123 283.324C233.123 276.543 233.27 269.615 233.123 262.835C232.828 257.233 233.27 254.727 234.155 249.716C234.155 249.568 234.155 249.568 234.155 249.421C234.745 249.421 235.482 249.273 236.071 249.273C237.103 260.771 238.577 272.416 240.051 283.914C240.641 289.515 240.641 295.117 241.23 300.718C241.967 307.646 243.147 314.574 243.441 321.502C243.736 326.956 243.294 332.41 244.031 337.717V337.864C241.673 338.012 239.167 338.159 236.513 338.306ZM252.433 293.79C253.17 306.025 253.023 318.259 252.728 330.494C252.581 333.147 252.728 334.621 252.433 336.095C251.254 336.538 250.075 336.98 248.601 337.275C248.601 336.98 248.453 336.538 248.453 336.243C248.011 333.884 248.306 324.598 248.011 319.881C247.569 313.985 246.684 308.088 246.095 302.339C245.21 292.168 244.915 281.85 243.294 271.826C242.115 264.309 241.673 256.791 240.788 249.273C242.557 249.273 244.178 249.273 245.505 249.568C246.242 249.716 246.979 249.863 247.716 249.863C247.716 250.895 248.011 251.927 248.011 252.811C248.453 260.034 250.075 265.93 250.517 271.679C250.959 278.902 251.991 286.272 252.433 293.79ZM262.604 195.913C260.688 194.881 258.477 193.996 256.561 192.817C254.202 191.49 252.138 189.427 249.338 189.132C245.358 189.132 246.095 193.996 246.242 196.65C247.421 208.737 248.895 220.677 249.19 234.091C249.19 237.923 248.453 243.082 248.158 244.704C246.832 244.704 243.884 243.819 240.936 243.967C233.27 244.851 225.458 245.293 217.645 245.588C209.686 246.03 201.578 245.293 193.618 245.293C186.985 245.441 180.352 246.178 173.719 246.03C167.822 246.325 161.484 246.62 156.177 249.568C156.03 249.568 156.03 249.716 155.882 249.716C155.882 248.389 155.735 247.062 156.03 245.736C156.177 241.019 156.472 236.449 156.767 231.732C156.914 224.362 157.799 216.992 157.799 209.474C157.799 204.315 157.799 199.303 157.946 194.144C157.946 193.701 157.946 193.407 157.946 192.964C158.536 192.227 158.536 191.343 158.683 190.459C158.831 189.722 159.125 188.985 159.125 188.247C159.125 186.184 156.472 185.005 154.998 186.626C154.556 187.068 154.114 187.51 153.671 187.805C153.082 187.953 152.64 188.247 152.197 188.542C147.038 191.196 142.616 193.407 138.931 193.554C135.835 190.459 132.592 187.363 129.497 184.12C129.202 183.678 128.907 183.236 128.612 182.646C128.612 182.793 128.465 182.793 128.465 182.941C128.023 182.351 127.433 181.909 126.991 181.319C130.824 177.634 134.951 174.244 138.636 170.559C140.257 168.79 142.174 166.874 144.09 164.957C149.691 160.093 155.145 155.376 160.747 150.512C165.022 157.145 169.739 163.483 173.129 170.559C174.013 172.18 174.308 174.244 175.93 175.423C179.025 176.897 181.089 173.212 183.005 171.443C186.69 168.053 190.523 164.957 194.061 161.272C195.535 159.503 199.072 155.966 200.694 154.049C205.558 157.735 210.717 160.683 216.319 163.189C218.825 164.368 221.183 165.547 223.542 167.021C225.163 168.053 227.079 169.822 228.996 168.348C230.322 167.168 230.765 165.105 231.649 163.631C233.565 159.946 235.776 156.26 238.135 152.87C239.904 150.217 241.82 147.564 243.736 144.91C245.063 145.795 246.242 146.532 247.421 147.416C253.76 151.543 257.15 154.049 262.309 159.356C266.732 163.631 273.217 169.085 275.723 172.77C272.923 178.224 265.847 191.933 262.604 195.913ZM336.307 230.553C336.307 230.7 336.16 230.7 336.16 230.848L336.012 230.995C335.717 231.143 334.98 231.732 334.686 231.732C330.263 232.911 321.272 230.7 319.945 224.951C318.913 221.856 319.061 222.298 319.503 220.087C323.778 220.529 326.726 220.677 331.295 222.151C331.59 222.298 331.737 222.298 332.032 222.446C332.18 222.446 332.327 222.593 332.474 222.74C333.064 223.035 333.654 223.477 334.243 223.92C334.096 223.92 334.096 223.772 334.243 223.92L334.391 224.067C334.686 224.214 334.98 224.804 335.275 224.951C337.191 227.605 336.749 229.668 336.307 230.553Z" fill="#222221"/>
<path d="M178.14 203.576C175.045 203.576 175.045 208.293 178.14 208.293C181.236 208.293 181.236 203.576 178.14 203.576Z" fill="white"/>
<path d="M204.232 185.594C201.136 185.594 201.136 190.311 204.232 190.311C207.327 190.311 207.327 185.594 204.232 185.594Z" fill="white"/>
<path d="M212.486 211.686C209.391 211.686 209.391 216.403 212.486 216.403C215.582 216.55 215.582 211.686 212.486 211.686Z" fill="white"/>
<path d="M235.039 189.574C231.944 189.574 231.944 194.291 235.039 194.291C238.135 194.291 238.135 189.574 235.039 189.574Z" fill="white"/>
<path d="M232.681 226.57C229.585 226.57 229.585 231.287 232.681 231.287C235.777 231.287 235.777 226.57 232.681 226.57Z" fill="white"/>
<path d="M186.69 233.502C183.594 233.502 183.594 238.219 186.69 238.219C189.933 238.366 189.785 233.502 186.69 233.502Z" fill="white"/>
<path d="M171.508 216.105C168.412 216.105 168.412 220.822 171.508 220.822C174.603 220.822 174.603 216.105 171.508 216.105Z" fill="white"/>
<path d="M200.399 213.6C197.303 213.6 197.303 218.317 200.399 218.317C203.494 218.464 203.494 213.747 200.399 213.6Z" fill="white"/>
<path d="M173.424 178.225C170.328 178.225 170.328 182.942 173.424 182.942C176.519 183.089 176.519 178.372 173.424 178.225Z" fill="white"/>
<path d="M201.873 172.768C198.778 172.768 198.778 177.485 201.873 177.485C205.116 177.485 205.116 172.768 201.873 172.768Z" fill="white"/>
<path d="M186.69 200.775C183.594 200.775 183.594 205.492 186.69 205.492C189.933 205.64 189.785 200.775 186.69 200.775Z" fill="white"/>
<path d="M215.14 196.943C212.044 196.943 212.044 201.66 215.14 201.66C218.382 201.66 218.235 196.943 215.14 196.943Z" fill="white"/>
<path d="M242.851 169.967C239.756 169.967 239.756 174.684 242.851 174.684C245.947 174.831 245.947 170.114 242.851 169.967Z" fill="white"/>
<path d="M256.118 163.334C253.023 163.334 253.023 168.051 256.118 168.051C259.214 168.198 259.214 163.481 256.118 163.334Z" fill="white"/>
<path d="M259.656 177.781C256.56 177.781 256.56 182.498 259.656 182.498C262.751 182.646 262.751 177.781 259.656 177.781Z" fill="white"/>
<path d="M147.038 165.842C143.942 165.842 143.942 170.559 147.038 170.559C150.133 170.559 150.133 165.842 147.038 165.842Z" fill="white"/>
<path d="M169.591 184.119C166.496 184.119 166.496 188.836 169.591 188.836C172.687 188.836 172.687 184.119 169.591 184.119Z" fill="white"/>
<path d="M197.598 163.777C194.503 163.777 194.503 168.494 197.598 168.494C200.841 168.494 200.841 163.777 197.598 163.777Z" fill="white"/>
<path d="M187.575 186.771C184.479 186.771 184.479 191.488 187.575 191.488C190.67 191.488 190.67 186.771 187.575 186.771Z" fill="white"/>
<path d="M199.22 226.57C196.124 226.57 196.124 231.287 199.22 231.287C202.315 231.287 202.315 226.57 199.22 226.57Z" fill="white"/>
<path d="M224.574 224.215C221.478 224.215 221.478 228.932 224.574 228.932C227.669 228.932 227.669 224.215 224.574 224.215Z" fill="white"/>
<path d="M177.551 155.818C174.456 155.818 174.456 160.535 177.551 160.535C180.647 160.683 180.647 155.966 177.551 155.818Z" fill="#222221"/>
<path d="M224.869 153.016C221.773 153.016 221.773 157.733 224.869 157.733C227.965 157.733 227.965 153.016 224.869 153.016Z" fill="#222221"/>
<path d="M526.164 209.325C525.869 202.397 526.164 195.616 525.869 188.688C525.427 181.023 524.395 173.506 523.069 165.988C521.89 159.207 521.152 155.67 521.152 149.036C521.005 145.793 521.3 142.55 521.005 139.455C520.121 136.802 517.173 132.232 515.404 133.706C510.392 137.981 511.866 135.475 505.675 137.539C505.233 137.686 496.831 148.152 495.504 149.921C493.44 152.721 493.145 153.311 490.345 155.964C488.428 158.028 483.711 159.797 480.321 159.944C476.783 160.239 476.489 159.944 473.098 158.618C471.477 158.175 466.76 155.522 466.023 154.638C464.844 153.606 463.959 152.279 462.632 151.542C460.421 150.363 457.768 150.363 455.262 150.068C454.967 150.068 454.673 148.447 454.378 148.299C451.282 147.857 449.219 144.024 446.123 142.993C445.386 142.845 441.111 141.519 440.522 141.519C439.637 140.929 440.964 146.53 440.227 147.12C438.605 147.71 438.605 149.626 439.49 152.427C439.785 155.375 440.374 158.028 441.111 160.534C441.406 163.777 441.553 167.167 441.553 170.115C441.111 182.497 439.637 194.879 440.669 207.114C440.816 209.62 440.669 212.126 440.522 214.632C440.374 216.253 439.932 218.17 441.111 219.349C444.059 221.56 447.745 218.907 450.84 218.17C450.987 218.17 450.987 218.17 451.135 218.022C460.421 218.612 470.887 215.958 477.815 215.369C486.66 214.19 495.504 216.106 504.348 215.074C510.687 214.19 515.404 213.305 522.332 213.453C522.479 213.6 522.774 213.6 522.921 213.747C523.953 214.19 524.985 213.895 525.722 213.158C526.017 213.01 526.312 212.863 526.459 212.568C527.049 211.536 526.754 210.357 526.164 209.325Z" fill="#D29C37"/>
<path d="M452.02 216.253C450.988 216.843 450.841 217.875 450.546 218.907C446.418 230.994 443.765 243.523 440.227 255.905C438.753 260.18 437.279 264.602 436.1 268.877C435.805 270.498 434.479 272.267 435.363 273.889C436.395 275.658 439.196 275.363 439.785 273.299C443.47 262.244 446.861 251.041 449.661 239.691C451.135 232.468 454.378 224.803 455.705 218.022C455.41 216.253 453.347 215.369 452.02 216.253Z" fill="#D29C37"/>
<path d="M531.324 248.828C528.965 249.418 527.049 249.86 524.985 250.155C524.101 247.502 523.069 244.848 522.332 241.9C522.185 241.458 522.037 241.016 521.89 240.574C523.659 240.721 525.28 240.868 527.049 241.163C529.555 241.016 529.85 237.036 527.344 236.446C525.133 236.004 522.774 235.709 520.563 235.562C519.973 232.908 519.236 230.403 518.499 227.897C519.384 227.897 520.121 227.897 521.005 228.044C524.101 228.339 523.953 228.339 526.902 228.781C527.491 228.928 528.228 228.929 528.67 228.486C530.439 227.454 530.144 224.654 528.081 224.064C524.248 223.327 520.268 223.032 516.583 223.032C515.109 219.642 513.045 215.662 512.603 214.925C511.719 211.387 506.56 213.156 508.181 216.546C509.213 218.758 510.392 221.116 511.424 223.18C508.328 223.327 505.233 223.769 502.58 224.212C500.811 224.359 498.894 224.359 496.978 224.359C495.946 221.558 495.062 218.61 493.735 215.072C492.261 213.009 488.723 214.778 489.608 217.136C490.198 219.642 491.082 222.148 491.966 224.506C491.819 224.506 491.524 224.506 491.377 224.506C489.166 224.801 486.66 225.243 484.744 225.538C484.596 223.474 484.596 221.558 484.596 220.232C484.596 219.052 485.186 217.726 484.744 216.694C484.154 215.072 481.943 214.778 480.911 215.957C479.584 217.873 480.469 217.873 479.879 219.937C479.732 222 479.879 223.917 480.027 225.98C477.226 225.98 474.425 225.686 471.624 225.538C471.919 223.917 472.214 222.443 472.509 220.821C472.361 218.315 468.382 218.02 467.792 220.526C467.497 222.148 467.202 223.622 466.907 225.243C463.37 224.949 459.832 224.801 456.294 224.949C452.019 225.391 443.028 228.044 441.111 228.044C436.542 227.749 436.542 233.645 441.111 232.761C445.976 232.319 453.494 229.813 456.147 229.666C459.39 229.518 462.78 229.666 466.023 229.813C465.581 232.171 465.139 234.53 464.696 236.888C454.083 238.657 444.354 241.605 434.92 241.753C433.152 242.342 433.004 245.143 434.626 246.028C436.542 246.765 438.606 246.175 440.522 246.175C447.892 245.291 456.736 243.079 463.665 241.753C462.78 246.028 462.043 250.155 461.159 254.43C458.8 254.43 456.294 254.282 453.936 254.282C448.629 253.545 443.47 253.398 438.163 253.84C436.394 254.135 434.036 253.398 432.562 254.577C431.53 255.609 431.677 257.525 433.004 258.262C434.626 258.999 436.394 258.41 438.163 258.557C440.669 258.557 443.175 258.115 445.534 258.262C448.629 258.41 451.725 258.852 454.82 259.147C456.589 259.294 458.358 259.294 460.127 259.294C459.979 260.178 459.832 260.916 459.685 261.8C458.8 266.075 458.063 270.349 457.179 274.624C458.8 274.477 460.422 274.477 462.043 274.329C462.927 269.318 463.959 264.306 464.844 259.294C468.529 259.294 472.214 259.147 475.752 259.147C476.784 259.147 477.963 259.294 478.7 258.41C480.174 256.936 479.142 254.282 477.078 254.282C473.246 254.43 469.561 254.577 465.728 254.577C466.613 250.155 467.497 245.585 468.381 241.163C468.529 241.163 468.676 241.163 468.824 241.163C472.804 240.721 476.636 241.016 480.616 241.016C480.764 242.932 481.058 244.848 481.795 246.765C483.269 248.828 486.66 247.059 485.923 244.701C485.775 243.669 485.628 242.342 485.481 240.868C489.903 240.426 494.472 240.131 498.894 239.984C500.368 242.932 501.99 245.88 503.464 248.828C504.201 250.302 504.791 251.629 505.38 252.956C503.317 253.398 501.695 253.693 499.042 253.693C496.683 253.545 497.568 253.545 495.504 253.25C494.915 253.103 494.177 253.103 493.735 253.545C492.409 254.282 492.114 256.199 493.293 257.23C494.325 258.262 495.946 257.967 497.273 258.262C501.106 258.557 504.348 258.115 507.444 257.378C508.181 259.294 509.065 261.21 509.802 263.127C510.687 264.748 510.54 267.107 512.014 268.138C513.34 268.875 515.109 268.138 515.551 266.664C515.846 265.485 515.109 264.306 514.814 263.127C513.93 260.768 513.045 258.557 512.161 256.346C513.782 256.051 515.551 255.756 517.32 255.756C518.794 255.609 520.121 255.462 521.595 255.167C523.216 259.294 524.838 263.274 526.312 266.959C527.933 266.517 529.407 266.222 531.029 266.075C529.407 262.095 527.933 258.41 526.312 254.43C527.344 254.282 528.523 253.987 529.555 253.693C530.881 253.25 532.798 253.398 533.535 252.071C535.156 250.597 533.387 248.091 531.324 248.828ZM469.856 236.446C470.298 234.383 470.593 232.466 471.035 230.403C472.656 230.55 474.278 230.55 475.899 230.697C477.521 230.845 478.995 230.992 480.616 230.845C480.616 231.877 480.764 232.908 480.764 233.94C480.911 234.677 480.911 235.562 480.911 236.446C477.226 236.299 473.541 236.151 469.856 236.446ZM485.628 236.299C485.481 234.382 485.333 232.466 485.333 230.55C487.102 230.403 488.723 230.108 490.492 229.813C491.524 229.666 492.851 229.518 494.325 229.518C495.209 231.582 496.094 233.498 497.126 235.414C493.146 235.562 489.46 235.857 485.628 236.299ZM502.285 235.267C501.253 233.351 500.369 231.287 499.337 229.371C499.926 229.371 500.663 229.371 501.253 229.371C505.97 228.928 509.508 228.339 513.488 228.044C514.225 230.55 514.962 233.056 515.551 235.414C513.635 235.414 511.719 235.414 509.95 235.267C507.444 235.267 504.938 235.267 502.285 235.267ZM510.54 251.924C508.771 247.944 506.707 243.964 504.791 239.984C507.149 239.984 509.36 239.984 511.719 240.131C513.635 240.131 515.404 240.131 517.025 240.279C517.32 241.605 517.762 242.785 518.057 243.964C518.794 246.175 519.531 248.533 520.268 250.745C517.32 251.187 514.225 251.482 510.54 251.924Z" fill="#D29C37"/>
<path d="M435.068 146.527C435.068 146.38 435.068 146.38 435.216 146.232C435.216 146.38 435.216 146.527 435.068 146.527Z" fill="#222221"/>
<path d="M441.849 130.46C441.554 131.197 435.658 145.348 435.51 145.938C435.51 146.085 435.363 146.233 435.363 146.38C435.363 146.233 435.51 146.233 435.216 146.675V146.822C435.216 146.822 435.216 146.822 435.216 146.675C433.889 149.328 432.12 151.687 430.499 154.193C426.076 161.858 421.654 168.933 416.79 174.535C404.408 186.917 392.91 196.351 378.907 205.785C369.473 212.418 361.513 215.808 350.31 218.756C350.015 218.904 349.573 218.904 349.131 218.904C348.983 218.609 348.836 218.314 348.688 218.167C346.477 215.071 342.497 213.302 338.665 213.745C336.012 214.187 333.211 214.334 330.852 215.661C329.673 216.545 328.052 217.43 327.904 219.051C327.904 220.82 330.263 221.852 331.442 220.525C332.916 219.051 332.916 219.051 335.127 218.461C337.928 218.019 338.37 217.724 341.466 217.872C341.76 217.872 342.055 218.019 342.497 218.167C342.94 218.461 343.529 218.609 343.972 218.904C344.119 219.051 344.266 219.051 344.266 219.199C344.414 219.346 344.561 219.346 344.561 219.493C344.856 219.641 345.298 220.378 345.593 220.673C345.298 221.41 345.446 222.147 345.888 222.736C345.74 224.653 344.709 227.306 342.94 228.927C342.203 229.664 339.844 231.138 337.633 231.581C337.338 231.875 335.127 231.286 333.358 231.728C332.032 232.17 331.737 234.086 332.769 235.118C334.538 236.298 337.043 235.855 338.96 235.561C342.94 234.381 346.92 231.875 348.541 227.895C349.131 226.569 349.72 225.095 349.868 223.621C353.848 223.031 357.533 221.704 361.218 220.378C364.903 219.051 368.736 217.724 372.126 215.661C381.413 210.207 390.109 204.016 398.659 197.382C406.766 190.749 414.874 183.821 421.949 176.009C427.551 169.081 431.825 161.415 436.542 153.898C437.132 163.627 436.837 173.208 436.984 182.937C436.984 194.582 437.132 206.079 437.427 217.724C436.984 218.461 436.837 219.346 437.279 220.23C437.574 220.673 437.869 220.967 438.164 221.115C436.395 227.895 435.216 234.971 433.447 241.752C431.973 250.891 430.056 260.03 428.877 269.316C429.909 275.065 438.016 274.476 442.586 275.36C443.47 275.507 444.355 275.507 445.387 275.655C444.06 285.826 442.144 297.471 440.817 309.853C440.522 318.108 440.08 323.362 439.49 331.765C439.196 340.167 438.901 348.569 438.016 356.971C431.236 356.086 424.013 355.792 417.674 358.445C414.284 360.066 410.157 362.572 409.714 366.552C409.714 370.68 412.957 374.07 416.642 375.397C421.654 377.165 427.256 375.986 431.973 373.923C437.132 371.564 441.112 366.7 442.144 361.098C442.291 360.509 442.438 360.066 442.291 359.477C442.881 358.298 442.733 356.824 442.881 355.497C443.913 346.063 443.765 336.629 444.355 327.195C445.092 318.645 444.797 313.096 445.976 304.546C447.155 295.407 448.63 285.531 449.956 275.802C450.398 275.802 450.841 275.802 451.43 275.802C453.789 275.95 456.295 276.539 458.653 276.539C461.601 276.687 464.402 276.539 467.35 276.982C467.645 276.982 469.561 277.276 470.003 277.129C471.33 276.687 472.214 275.507 473.099 274.476C477.079 269.022 478.995 262.241 481.501 256.05C482.533 253.397 483.565 250.891 484.597 248.237C490.198 255.165 497.273 263.862 501.253 268.579C502.875 270.643 502.138 271.085 504.349 272.412C508.624 273.739 514.225 272.707 518.795 271.97C522.775 270.79 526.902 270.348 531.029 270.79C532.798 270.643 534.714 270.643 536.483 270.348C540.168 270.348 541.642 267.99 541.2 264.452C540.316 258.703 537.81 253.249 535.746 247.795C533.977 243.078 532.651 238.214 531.471 233.349C530.587 228.19 529.85 223.031 528.081 218.019C527.934 217.724 527.934 217.282 527.786 216.987C528.376 216.84 528.966 216.545 529.408 215.808C529.85 215.071 529.85 214.187 529.408 213.45C529.703 208.29 529.85 203.131 529.703 198.12C529.555 184.263 527.786 170.555 526.165 156.699C525.28 151.539 524.101 147.412 523.954 143.432C523.806 142.4 523.806 141.516 523.806 140.484C530.44 146.675 538.105 151.982 546.949 154.193C551.519 155.814 556.236 156.551 561.1 155.814C566.112 155.372 571.124 154.487 575.546 152.276C580.115 150.213 584.832 148.296 589.255 145.938C594.266 142.842 598.836 139.157 603.111 135.03C613.871 123.68 621.389 109.824 627.58 95.5252C630.086 89.9237 632.887 84.3223 634.95 78.5735C636.424 74.5936 638.783 67.2233 639.667 63.5381C639.962 63.6855 640.257 63.6855 640.552 63.6855C641.731 63.6855 642.615 62.6537 643.5 61.9167C645.269 60.2952 646.595 58.2315 647.775 56.0204C650.575 50.8612 652.197 44.228 649.249 38.6266C644.679 31.6985 637.309 31.6985 632.887 38.9214C630.97 42.1643 629.791 46.2917 630.381 50.1242C630.97 54.2516 632.15 58.6737 634.95 61.9167C634.066 64.8648 630.97 75.1832 629.496 78.7209C622.273 95.5252 612.692 118.226 599.131 131.787C592.94 137.683 588.37 141.221 580.263 144.759C574.661 147.559 567.291 150.36 563.016 150.655C557.267 151.392 554.025 151.539 549.16 149.918C542.085 148.149 536.041 144.906 531.324 140.926C529.113 138.862 526.607 137.094 524.396 135.03C523.954 134.588 496.242 118.226 495.799 117.931M431.678 368.174C429.025 369.648 428.877 369.795 425.634 370.532C421.654 371.269 422.391 371.417 418.706 370.68C418.559 370.68 418.411 370.532 418.264 370.532C417.527 370.237 416.79 369.943 416.2 369.353C416.053 369.206 415.905 369.058 415.758 368.911C415.463 368.616 415.168 368.174 414.874 367.879C414.726 367.732 414.726 367.584 414.579 367.437C414.431 366.994 414.431 366.7 414.284 366.257C415.021 364.194 421.359 360.656 426.224 360.656C430.646 360.214 433.594 360.656 436.984 361.098C435.953 364.194 434.036 366.847 431.678 368.174ZM498.01 122.648C505.528 123.237 502.285 140.484 492.114 151.097C492.262 151.097 492.409 150.95 492.556 150.95C487.25 158.762 477.521 160.826 469.414 154.782C468.677 154.34 441.701 136.062 440.522 134.882C441.407 134.882 497.126 122.5 498.01 122.648ZM531.177 248.68C533.093 254.134 536.188 260.767 536.336 265.189C535.451 265.189 533.535 265.336 533.093 265.484C529.113 265.779 525.28 265.631 521.301 266.221C515.994 267.105 513.635 267.842 508.771 267.842C508.329 267.842 507.15 267.842 506.707 267.842C505.528 265.779 503.907 263.862 502.285 262.094C499.632 258.998 497.126 255.903 494.62 252.66C492.262 249.564 489.756 246.616 487.25 243.668C486.218 242.636 485.481 240.72 483.859 240.867C482.533 240.867 481.648 241.899 481.501 243.078C480.764 244.552 480.322 246.321 479.585 247.795C477.521 253.102 475.31 258.261 473.541 263.715C472.804 265.631 470.298 270.643 468.677 272.265C463.517 271.528 458.358 271.97 453.199 271.085C445.976 270.643 439.933 270.791 434.331 269.022L434.184 268.874C434.036 268.727 433.889 268.727 433.889 268.579C435.658 258.703 438.164 241.899 441.259 229.959C441.701 227.748 441.996 225.537 442.586 223.326C442.733 222.736 443.028 222.147 443.176 221.557C451.725 221.41 460.127 220.083 468.529 219.199C477.079 218.609 485.628 217.724 494.178 217.577C500.516 217.577 506.707 217.282 513.046 217.282C516.436 217.43 519.974 217.577 523.364 217.282C523.512 217.724 523.512 218.019 523.659 218.461C524.691 221.852 525.87 225.39 526.312 228.927C526.902 235.561 528.818 242.341 531.177 248.68ZM462.191 154.045C466.613 159.941 474.131 163.921 481.501 162.89C486.66 162.153 491.525 159.941 494.767 155.814C496.242 153.898 498.305 151.834 498.6 149.328C498.6 149.033 498.895 148.739 499.042 148.591C499.484 147.854 500.516 147.117 500.664 147.117C503.17 145.79 505.676 140.336 508.329 139.305C512.604 137.094 515.257 135.03 518.795 137.536C518.942 140.484 519.237 145.348 519.679 148.002C521.3 155.372 521.89 159.499 522.48 166.87C523.954 177.778 524.691 188.686 524.838 199.741C524.986 204.016 524.838 208.143 524.543 212.418C521.006 213.007 517.321 212.86 512.604 212.565C503.022 212.86 493.441 212.565 483.859 213.45C474.72 214.039 465.581 214.776 456.589 215.808C451.872 216.398 447.303 216.693 442.586 216.84C442.291 216.84 441.996 216.84 441.849 216.84C441.701 212.418 441.701 207.996 441.701 203.574C441.259 187.801 441.554 171.881 441.112 156.109C441.112 152.719 440.817 149.181 440.375 145.79V145.643C440.964 138.42 445.092 145.053 447.303 145.938M639.372 58.9686L639.225 59.116C636.424 56.0204 635.098 51.3035 635.098 47.0287C635.245 45.9969 635.54 44.965 635.835 43.9332C636.572 41.8695 636.13 42.7539 637.161 40.9851C637.751 40.248 638.341 39.511 638.93 38.9214C638.93 38.9214 638.93 38.9214 639.078 38.9214C640.109 38.3318 639.372 38.6266 640.846 38.1844C642.615 38.3318 642.173 38.0369 644.089 39.6584C645.858 41.4273 645.121 40.5428 646.006 43.0487C647.332 47.3235 643.058 56.6101 639.372 58.9686Z" fill="#222221"/>
<path d="M568.617 360.707C563.9 359.086 558.741 359.381 553.877 359.97C553.729 359.97 553.729 359.97 553.582 359.97C553.582 359.528 553.435 359.086 553.435 358.791C550.487 338.449 544.885 312.358 540.021 292.311C538.252 283.761 535.599 275.359 532.208 267.399C531.766 266.368 530.734 265.483 529.555 265.925C528.523 266.22 527.491 267.547 528.081 268.579C530.734 274.917 532.798 281.993 534.272 288.773C536.483 297.618 538.694 306.609 540.905 315.454C542.969 323.856 544.738 338.449 546.507 346.851C547.833 352.305 548.718 356.727 548.865 360.855C548.865 361.002 548.865 361.297 548.865 361.444C546.359 362.623 543.853 364.097 542.232 366.309C539.136 371.026 541.347 375.3 545.917 377.806C554.761 382.228 570.239 381.197 578.051 374.858C584.39 368.077 574.219 362.623 568.617 360.707ZM546.359 372.205C546.212 372.057 546.064 371.615 545.917 371.468C545.77 371.173 545.77 371.026 545.622 370.731C546.359 368.077 547.391 367.488 551.518 365.424C551.813 365.424 551.961 365.277 552.255 365.129C552.845 365.129 553.435 364.835 554.024 364.835C554.172 364.835 554.466 364.835 554.614 364.687C555.351 364.687 558.004 364.392 558.741 364.392C566.849 363.36 574.366 368.667 575.251 370.436C572.745 375.743 552.255 378.101 546.359 372.205Z" fill="#222221"/>
<path d="M182.857 75.6289C182.71 75.1867 182.415 74.8919 182.12 74.5971C181.236 73.7127 179.909 73.123 178.435 73.123C177.403 73.123 176.372 73.5653 175.635 74.3023C175.34 74.4497 174.898 74.7445 174.75 75.0393C174.455 75.3341 174.308 75.6289 174.013 76.0712C173.571 76.5134 173.276 76.9556 173.276 77.5452C172.981 77.9874 172.834 78.5771 172.686 79.0193V79.1667C172.392 80.3459 172.392 81.3778 172.834 82.557C173.866 84.1785 173.718 84.1785 175.635 85.0629C176.372 85.2103 176.666 85.6525 178.583 85.0629C178.877 84.9155 179.172 84.7681 179.467 84.4733C179.909 84.3259 180.352 84.3259 180.794 84.1785C182.415 83.4414 183.447 81.82 183.742 80.0511C183.889 78.5771 183.594 76.9556 182.857 75.6289Z" fill="#222221"/>
<path d="M223.984 75.0362C223.394 74.2992 222.804 73.5621 221.92 73.1199C220.593 72.6777 218.972 72.6777 217.645 73.2673C216.908 72.8251 215.729 72.8251 215.139 73.7095C213.223 75.7732 212.486 79.1635 214.402 81.522C215.729 83.2909 216.613 84.4701 219.562 84.3227C223.984 84.0279 227.079 78.4265 223.984 75.0362Z" fill="#222221"/>
<path d="M230.175 102.309C229.88 101.719 229.438 101.425 228.848 101.277C228.259 99.9506 226.342 99.5083 225.163 100.393C224.721 100.835 224.279 101.13 223.836 101.425C223.689 101.572 223.542 101.572 223.542 101.572C221.92 102.456 220.299 103.341 218.677 104.078C207.622 108.205 194.945 109.679 183.889 105.405C180.647 104.373 178.288 102.899 176.667 101.867C175.193 101.13 173.718 99.6557 171.95 99.9506C168.707 100.688 169.739 104.668 172.097 104.668C172.392 104.815 172.687 104.962 172.981 105.11C171.507 104.962 169.886 106.142 170.476 108.058C170.623 108.353 170.77 108.647 171.065 108.942C170.918 108.647 170.623 108.205 170.918 108.795C171.065 109.237 171.36 109.532 171.655 109.679C172.834 111.153 174.455 112.333 175.635 113.807C178.288 116.165 180.352 119.261 183.005 121.767C185.216 123.683 187.869 124.862 190.523 126.189C194.945 128.4 200.251 128.842 205.116 128.105C211.307 126.189 216.614 121.767 220.888 117.05C223.689 113.954 226.195 110.564 228.553 107.173C229.143 105.994 231.354 104.225 230.175 102.309ZM218.382 112.627C215.139 117.05 207.622 122.651 204.084 123.683C200.841 124.272 199.809 124.125 195.977 123.683C195.535 123.535 196.124 123.683 196.419 123.83C193.471 123.241 189.196 120.882 188.312 120.44C184.921 118.524 184.184 117.05 181.236 113.659C179.025 111.301 176.519 109.237 174.455 106.584C176.224 107.616 178.141 108.647 180.057 109.532C184.626 111.153 189.343 112.627 194.208 113.07C203.642 113.512 213.076 111.89 221.773 108.205C220.741 109.532 219.562 111.153 218.382 112.627Z" fill="#222221"/>
<path d="M171.213 87.8621C171.065 86.6828 170.623 85.651 169.886 84.7666C169.591 84.3244 169.297 84.0295 168.707 83.7347C166.496 82.7029 164.137 82.8503 161.779 82.8503C157.651 82.7029 153.377 84.4718 151.313 88.1569C149.839 90.6628 151.166 94.0531 153.377 95.5272C157.062 97.8857 162.074 98.1805 166.201 97.1487C167.675 96.559 169.002 95.6746 169.886 94.3479V94.2005C171.36 92.5791 171.655 90.0732 171.213 87.8621Z" fill="#DC3545"/>
<path d="M249.337 88.6013C247.273 84.0318 241.967 81.3785 236.955 82.2629C231.648 82.7051 226.931 84.9162 226.194 90.665C225.899 95.0872 229.585 97.5931 233.565 98.4775C235.776 99.0671 238.429 99.8042 240.64 98.9197C240.787 98.9197 240.935 98.7723 241.082 98.7723C242.556 98.6249 243.883 98.3301 245.21 97.8879C248.453 96.119 250.516 91.9917 249.337 88.6013Z" fill="#DC3545"/>
<path d="M207.622 147.562C219.561 146.236 227.079 142.993 235.186 136.065C243.883 128.4 248.895 120.882 250.517 117.787C254.644 109.827 257.739 101.13 259.803 92.2853C260.245 93.612 260.835 94.7912 261.867 95.2335C263.341 97.1497 265.847 97.2972 268.353 94.6438C269.237 93.4646 269.974 91.6957 270.416 89.6321C271.596 89.4846 272.775 89.4846 273.807 89.6321C285.599 99.2134 296.949 109.827 306.678 119.555C309.626 122.798 312.869 125.894 315.522 129.284C319.945 135.18 323.188 141.519 327.61 148.889C328.199 149.921 328.789 151.1 330.116 151.248C332.179 151.542 333.506 148.889 332.179 147.415C329.379 143.288 325.251 135.475 321.419 129.726C318.323 125.009 314.196 121.029 310.511 116.902C302.109 108.5 293.412 100.245 284.42 92.5802C284.862 92.7276 285.304 92.875 285.894 93.0224C292.675 95.5283 301.224 98.329 305.794 101.13C314.491 107.763 321.566 117.934 331 126.189C335.422 129.726 339.55 134.149 344.267 137.097C345.888 137.539 347.509 136.065 347.215 134.443C346.92 132.969 345.446 132.38 344.414 131.495C337.339 125.599 331.147 120.292 325.841 114.544C320.387 108.942 315.375 102.604 309.184 97.8868C306.531 95.8231 303.288 94.7912 300.192 93.4646C295.475 91.5483 290.758 89.7795 285.894 88.158C282.504 87.1262 279.113 85.9469 275.576 85.3573C274.249 84.3254 272.922 83.1462 271.596 82.1144C272.627 81.967 273.659 81.8196 274.544 81.6721C276.607 82.4092 278.966 82.704 281.177 83.1462C286.484 84.178 290.611 84.7677 294.443 86.0943C303.73 89.7795 312.722 94.4964 321.566 99.066C331.884 104.225 342.498 108.795 352.816 113.807C353.995 114.249 355.322 115.281 356.649 114.691C358.565 113.954 358.418 111.006 356.501 110.269C343.972 104.52 331.295 98.9186 318.913 92.5802C311.69 88.895 304.467 85.2099 296.949 82.2618C302.551 83.1462 307.857 84.7677 314.048 86.3891C325.104 89.7795 334.98 90.9587 344.709 94.6438C349.426 96.1179 354.732 99.3608 356.796 100.982C357.828 102.604 360.923 102.751 361.366 100.098C361.513 98.9186 360.776 98.0342 359.892 97.4446C358.565 96.2653 357.091 95.3809 355.617 94.4964C346.625 89.0424 336.307 86.9788 326.136 84.6203C318.471 82.8514 304.025 77.987 293.854 76.9552C287.81 76.8078 281.619 76.5129 275.428 76.9552C274.691 76.5129 273.659 76.6604 272.922 77.1026C271.89 77.25 270.859 77.3974 269.974 77.5448C269.532 75.4811 268.647 73.8597 267.616 72.6804C267.026 72.2382 266.436 71.9434 265.699 71.9434C265.552 71.9434 265.405 71.796 265.257 71.796C265.552 68.9953 265.699 66.1946 265.699 63.3938C265.552 53.0754 263.341 42.6097 258.476 33.4705C255.971 28.9009 252.728 25.0684 249.632 21.0884C245.8 16.3714 241.82 11.6545 236.808 7.96933C226.047 0.746448 212.044 0.00941967 199.514 1.63088C193.176 2.81013 186.985 4.579 180.941 6.93749C170.623 12.0967 160.894 18.7299 153.376 27.4269C150.133 30.9646 148.512 35.6816 146.596 39.9564C142.763 47.9163 140.11 56.4658 138.931 65.3101C137.899 74.7441 137.014 84.6203 139.962 93.612C140.257 94.0542 140.552 94.349 140.994 94.4964C140.405 94.6438 139.962 94.9387 139.668 95.3809C139.078 95.9705 138.636 96.5601 138.193 97.1497C137.014 97.8868 134.214 99.066 133.771 100.393C133.329 101.277 126.401 107.321 126.106 108.205C93.2348 148.447 85.5697 163.482 85.5697 163.482C85.5697 163.482 84.98 165.399 85.5697 166.43C86.1593 167.167 87.4859 167.462 88.3704 167.167C89.8444 166.725 90.5815 165.399 90.8763 164.956C93.3822 161.271 95.8881 157.586 98.2466 153.901C103.701 145.794 109.007 137.391 115.346 130.021C118.441 126.336 122.716 121.914 126.843 117.934C118.294 132.527 110.334 147.415 103.406 162.745C102.374 164.956 101.342 167.167 100.31 169.379C99.5732 170.705 98.8362 172.474 100.163 173.653C101.342 174.833 103.406 174.243 104.143 172.769C112.103 160.387 118.146 147.12 124.927 135.328C120.652 148.594 117.409 162.303 114.903 176.012C114.314 178.812 113.872 181.613 113.282 184.414C113.282 184.414 113.135 184.709 113.135 185.004C112.987 185.446 112.692 186.772 112.987 187.509C113.429 188.394 114.903 188.983 116.672 188.836C116.82 188.836 116.967 188.836 117.114 188.836C117.557 188.689 117.409 187.952 117.557 187.952C118.589 185.151 119.62 182.35 120.652 179.549C124.337 169.231 127.58 158.765 131.118 148.3C134.656 138.276 138.046 128.4 141.289 118.229C141.731 138.866 140.847 161.124 138.636 182.645C138.341 184.414 140.257 185.593 141.731 185.151C142.321 183.972 142.91 182.792 143.5 181.613C143.647 179.697 143.795 177.928 143.942 176.012C146.006 156.554 146.448 133.117 145.859 114.396C146.006 114.691 146.153 115.133 146.301 115.428C152.344 128.252 162.515 135.623 166.495 138.276C171.065 141.371 174.897 143.14 177.551 144.32C186.395 148.3 196.419 148.889 207.622 147.562ZM261.277 66.9316C261.277 68.1108 261.13 69.2901 261.13 70.4693C260.982 69.4375 260.835 68.2582 260.688 67.2264C260.835 67.079 260.982 66.9316 261.277 66.9316ZM212.486 5.46343C219.561 5.75824 224.573 6.79008 231.059 9.59079C235.923 11.9493 241.672 17.9929 246.242 23.8891C250.811 29.638 253.907 33.1757 256.56 39.3667C259.214 45.7052 260.688 52.191 261.13 58.8243C257.887 48.0637 249.78 39.5141 242.852 30.9646C237.987 25.5106 232.681 20.3514 227.227 15.3396C224.131 12.5389 221.183 9.29598 217.203 7.67451C214.255 5.90565 211.896 10.4752 214.992 11.9493C216.908 12.5389 221.183 16.3714 223.984 19.0247C229.438 24.1839 234.302 28.6061 239.903 35.092C246.684 43.3467 253.317 50.717 256.118 58.9717C255.971 58.9717 255.823 58.9717 255.676 58.8243C255.676 58.3821 255.676 57.9398 255.528 57.645C255.234 57.0554 254.791 56.6132 254.202 56.4658C251.843 55.2865 251.991 55.4339 250.517 54.5495C245.8 51.7488 241.672 48.0637 237.397 44.8207C231.501 39.6615 227.669 36.566 222.952 30.2276C220.004 26.2476 215.729 17.1085 212.044 10.77C212.191 10.3278 212.339 10.033 212.339 9.59079C212.781 8.41154 212.928 6.93749 212.339 6.05305C212.486 5.61083 212.486 5.61083 212.486 5.46343ZM209.98 17.9929C210.127 17.6981 210.127 17.4033 210.275 16.9611C213.96 24.0365 217.35 31.2594 222.657 37.1556C227.816 42.9045 233.86 47.9163 239.903 52.6332C241.672 53.9599 243.441 55.4339 245.357 56.7606C237.84 54.6969 230.469 51.454 224.131 46.2948C217.793 41.5778 213.665 35.6816 207.032 30.6698V30.5224C208.064 26.2476 208.948 21.678 209.98 17.9929ZM222.952 51.454C232.238 57.9398 243.883 62.5094 255.234 63.3938C255.234 63.6887 255.234 63.9835 255.234 64.2783C258.034 78.724 256.265 91.5483 250.811 105.257C246.389 117.492 240.051 126.189 229.732 134.149C224.131 138.129 216.908 140.634 209.538 142.256C198.04 144.467 189.196 144.172 178.583 139.308C170.77 135.917 165.758 131.643 160.157 125.599C154.85 119.555 150.87 115.133 148.659 108.205C147.185 103.93 145.859 93.4646 146.153 88.6002C146.301 84.7677 146.743 80.9351 147.185 76.9552C147.185 76.8078 147.185 76.8078 147.185 76.6604C153.966 73.27 160.894 69.8797 167.232 65.7523C174.308 60.4457 181.383 55.1391 188.901 50.1273C194.06 46.2948 198.335 41.5778 202.462 36.8608C202.757 36.566 203.052 36.1238 203.347 35.6816C204.084 35.829 204.673 35.6816 205.263 35.2394C211.159 40.3986 216.024 46.2948 222.952 51.454ZM154.998 33.4705C161.189 24.4788 171.802 17.1085 180.941 12.2441C186.248 9.59079 192.881 7.52711 199.219 6.34786C189.491 14.013 180.352 22.5625 171.065 30.6698C163.252 37.7453 154.85 44.3785 147.038 51.6014C149.544 44.8207 153.081 37.303 154.998 33.4705ZM143.058 73.4174C143.5 67.2264 144.532 61.3302 145.564 56.7606C145.711 56.3184 145.711 56.0236 145.859 55.5813C146.743 56.6132 148.807 56.7606 149.986 55.2865C164.137 43.1993 178.14 30.9646 191.997 18.5825C196.124 14.8974 200.693 11.5071 204.673 7.82192C205.116 7.08489 205.116 6.20046 204.673 5.61083C205.558 5.46343 206.295 5.46343 207.179 5.46343C192.881 29.0483 172.981 46.8844 150.723 59.7087C149.249 60.7405 147.185 61.3302 146.301 62.9516C145.564 64.8679 147.627 66.9316 149.544 66.0472C163.842 57.4976 177.993 48.3585 189.491 36.1238C195.239 30.0802 200.693 23.7417 205.558 16.9611C204.968 19.1722 204.526 21.3832 203.936 23.5943C203.347 26.395 203.052 27.7217 202.757 29.0483C202.02 29.4905 201.578 30.375 201.431 31.112C197.156 36.2712 193.765 39.9564 188.901 44.3785C184.626 47.9163 179.909 50.717 175.34 54.1073C171.212 57.0554 167.527 60.4457 163.252 63.099C160.304 65.0153 151.018 69.8797 145.859 72.3856C144.827 72.6804 143.795 72.9752 143.058 73.4174ZM130.823 132.969C132.297 128.989 133.624 124.862 135.245 120.882C132.297 129.874 129.202 138.866 126.106 147.857C127.433 142.993 128.907 138.129 130.823 132.969Z" fill="#222221"/>
<path d="M72.7457 220.529C72.5983 220.235 72.4509 219.94 72.1561 219.645C71.2717 218.613 69.945 218.613 68.9132 218.318C66.5547 217.876 64.1962 218.023 61.9851 218.171C56.5311 218.908 51.0771 221.414 49.4556 227.015C48.129 234.68 53.2882 240.576 61.1007 239.987C64.6384 239.692 68.1761 238.218 70.2398 235.565C72.5983 232.764 74.5146 229.226 74.8094 225.099" fill="#222221"/>
<path d="M70.2398 223.18H70.3872C70.2398 227.16 68.0287 230.993 65.3754 233.351C64.6384 233.794 63.6065 234.236 62.8695 234.531C61.1006 235.12 61.8377 234.973 59.9214 235.12C59.037 235.12 58.1525 234.973 57.2681 234.973C57.2681 234.973 57.2681 234.973 57.1207 234.973C55.9414 234.383 56.6785 234.826 55.4992 233.941C54.32 232.467 54.4674 232.909 54.1726 230.551C54.1726 228.045 54.0252 229.372 55.057 227.013C56.9733 223.623 66.1124 221.559 70.2398 223.18Z" fill="white"/>
<path d="M424.456 135.032C424.898 135.327 425.34 135.622 425.635 136.064C426.077 136.359 426.372 136.801 426.667 137.243C427.256 137.685 427.846 138.127 428.435 138.717C428.435 139.012 428.73 139.012 428.878 139.159C428.878 139.159 475.163 164.808 519.09 136.948C521.448 135.327 523.954 133.41 526.313 131.199L526.46 131.052C528.082 129.725 529.556 128.399 530.735 126.777C530.882 126.482 531.03 126.188 531.03 125.893C532.799 123.239 534.125 120.439 535.452 117.491C539.579 107.32 540.316 96.2642 539.874 85.3562C539.579 82.1133 538.99 79.0177 538.105 75.9222C541.938 73.5637 545.623 71.3526 548.866 68.1097C550.045 66.7831 551.814 65.7512 552.698 64.1298C553.435 62.6557 552.109 60.7394 550.487 60.8868C549.308 60.8868 548.571 61.7713 547.834 62.5083C545.918 64.2772 544.149 66.046 542.085 67.6675C541.79 68.1097 539.137 69.5838 536.484 71.2052C535.452 68.5519 534.125 65.8986 532.651 63.3927C532.651 63.3927 532.651 63.2453 532.799 63.2453C533.831 62.0661 534.862 61.0342 535.894 60.0024C539.285 58.0861 542.822 56.1699 545.623 53.3691C546.507 52.6321 547.539 51.7477 547.539 50.5684C547.539 49.2418 546.36 48.0625 545.033 48.0625C543.854 48.0625 543.117 48.947 542.233 49.684C540.316 51.4529 539.579 52.0425 538.548 52.7795C535.599 54.5484 532.356 55.875 530.293 58.5283C530.145 58.6758 530.145 58.6758 529.998 58.8232C527.934 55.875 525.723 53.2217 523.365 50.7158C523.217 50.5684 523.07 50.421 522.923 50.2736C525.281 47.6203 529.114 46.2937 532.946 42.3137C534.715 40.3974 537.073 38.776 538.548 36.5649C539.285 35.0908 537.958 33.0272 536.336 33.1746C534.862 33.1746 534.125 34.5012 533.094 35.3857C531.325 37.1545 529.556 38.776 527.787 40.5449C526.018 42.3137 523.07 43.493 520.122 46.1463C519.974 46.2937 519.827 46.4411 519.827 46.4411C517.174 43.493 514.52 40.6923 511.425 38.1864C515.7 34.059 520.122 30.0791 523.512 25.2147C525.134 22.414 520.859 19.9081 519.237 22.7088C518.353 24.0354 514.668 28.1628 512.015 30.6687C510.54 32.2901 508.772 33.7642 507.15 35.2383C503.612 32.7324 499.78 30.8161 495.652 29.4894C498.011 25.5095 500.959 20.0555 501.696 18.8762C503.023 17.2548 504.792 16.2229 506.118 14.7489C506.855 14.1592 507.592 13.4222 507.445 12.3904C507.445 10.7689 505.823 9.58967 504.349 10.0319C502.433 10.9163 501.254 12.8326 499.632 14.0118C497.127 16.2229 495.8 19.4658 494.031 22.2666C493.147 24.3302 491.673 26.2465 490.493 28.3102C487.987 27.7206 485.481 27.2783 482.976 26.9835C482.239 26.8361 481.649 26.8361 480.912 26.6887C481.207 23.4458 481.207 21.5295 481.944 19.3184C482.828 15.9281 484.892 12.5378 485.039 9.00004C484.892 7.08377 482.239 6.19934 480.765 7.52599C480.027 8.26302 480.027 9.44226 479.585 10.4741C478.701 12.98 477.816 15.4859 476.932 17.9918C476.195 20.7925 476.048 23.2984 475.753 26.3939C471.331 26.3939 466.908 26.9835 462.486 27.7206C462.486 22.1191 465.729 16.3703 465.729 9.44226C465.877 6.93636 462.339 6.05193 461.16 8.26302C460.717 9.00004 460.865 9.73707 460.865 10.4741C460.717 12.5378 460.717 11.8008 460.57 12.8326C459.685 17.5496 457.917 21.9717 457.622 26.6887C457.622 27.4258 457.622 28.1628 457.622 28.7524C454.968 29.4894 452.463 30.3739 449.957 31.2583C448.188 27.868 448.188 26.3939 448.335 21.8243C448.63 18.8762 449.22 14.8963 447.893 12.243C446.714 10.6215 444.061 11.2111 443.471 13.1274C443.323 15.3385 443.766 14.7489 443.618 17.5496C443.323 21.9717 442.734 26.6887 444.208 31.1109C440.228 32.4375 436.248 34.059 432.415 35.9753C430.499 33.9116 429.467 31.9953 427.698 28.605C426.814 27.1309 426.667 24.625 424.75 24.0354C423.276 23.5932 421.655 24.7724 421.655 26.3939C421.95 28.1628 422.982 29.6368 423.571 31.2583C424.75 33.7642 426.224 36.2701 427.993 38.4812C424.308 40.6923 420.918 43.1982 417.97 46.1463C417.527 45.8515 417.085 45.5566 416.496 45.5566C412.958 45.8515 405.882 45.5566 404.703 45.2618C403.671 45.1144 402.492 44.5248 401.46 45.2618C400.134 45.9989 399.839 48.0625 401.018 49.0944C401.755 49.8314 402.787 49.8314 403.819 49.9788C407.209 50.421 410.599 50.7158 414.137 50.5684C411.631 53.8114 409.715 57.3491 408.388 61.1816C403.966 59.7076 399.249 58.8232 394.68 58.0861C393.058 58.2335 392.026 60.2972 392.911 61.6239C394.09 63.3927 396.596 62.9505 398.512 63.5401C401.46 64.1298 404.408 64.7194 407.209 65.7512C404.851 83.7347 403.819 102.897 411.926 119.702C413.695 123.387 416.053 126.63 418.707 129.725C418.854 130.167 419.149 130.462 419.296 130.757C419.444 130.905 419.591 131.199 419.886 131.347C421.065 132.526 421.802 132.968 422.539 133.558L422.687 133.705" fill="#222221"/>
<path d="M425.782 129.43C425.488 129.135 425.045 128.84 424.603 128.546C424.603 128.398 424.603 128.398 424.603 128.251C422.539 126.187 420.771 124.271 420.181 123.386C416.054 117.195 414.432 113.215 412.663 106.14C410.157 97.1481 410.6 89.0408 411.042 78.8698C411.631 68.9937 412.074 62.8026 416.938 55.1375C420.476 49.9783 425.782 45.4088 432.268 41.7236C432.416 41.871 432.563 42.0184 432.71 42.1658C434.479 43.0503 436.248 41.2814 436.101 39.6599C437.427 38.9229 438.901 38.3333 440.228 37.7437C442.734 36.417 444.061 36.1222 446.714 35.2378C447.156 35.8274 447.598 36.1222 448.188 36.417C448.483 36.5644 448.778 36.5644 449.072 36.417C449.809 36.417 450.546 36.417 451.136 35.9748C459.833 32.7319 467.94 31.2578 475.9 31.2578C476.785 32.5845 478.848 32.5845 479.88 31.4052C482.533 31.5526 485.039 31.9948 487.693 32.5845C494.179 33.9111 499.633 36.2696 504.497 39.5125C504.792 40.5444 505.824 41.134 506.855 41.2814C510.246 43.9347 513.489 47.0302 516.584 50.7154C516.289 51.305 516.142 51.8946 516.289 52.6316C516.584 54.1057 518.353 54.6953 519.532 54.2531C522.333 57.496 524.839 60.4441 527.05 63.8345C527.05 64.1293 527.05 64.4241 527.05 64.7189C527.197 65.4559 527.787 66.0455 528.524 66.3404C529.556 68.2566 530.735 70.3203 531.767 72.5314C531.914 72.9736 532.062 73.4158 532.209 74.0055C532.062 74.1529 531.914 74.3003 531.767 74.3003C530.44 75.7743 531.767 77.9854 533.536 78.1328C536.631 91.1045 535.01 108.056 528.966 119.554C528.229 122.207 525.576 125.155 522.923 127.514C521.006 128.988 518.943 130.314 515.995 132.231C513.636 133.852 511.278 135.768 508.624 137.095C508.035 137.242 507.592 137.685 507.445 138.127H507.298C500.812 141.075 494.179 142.402 487.398 142.844C475.016 143.581 460.423 144.023 450.252 141.665C445.24 140.191 441.407 139.306 437.575 137.537C437.133 137.39 436.838 137.095 436.396 136.8C431.384 134 428.73 131.641 425.782 129.43Z" fill="white"/>
<path d="M447.746 69.7308C445.092 68.2568 442.587 69.7308 441.85 72.0893C441.702 72.3841 441.702 72.6789 441.702 73.1211C441.702 73.5634 441.702 74.153 441.85 74.7426C441.85 75.0374 441.997 75.3322 442.144 75.627C442.292 76.3641 442.439 77.1011 442.881 77.8381C444.061 79.607 446.714 80.0492 448.188 78.4277C450.104 76.2167 450.252 71.3523 447.746 69.7308Z" fill="#222221"/>
<path d="M491.23 66.9294C490.641 66.3398 490.051 66.045 489.461 65.8976C488.429 64.7183 486.366 64.4235 485.334 66.1924C483.565 69.2879 480.764 75.3316 485.481 77.1004C487.692 77.5426 490.051 76.6582 491.23 74.7419C492.704 72.6782 493.294 68.9931 491.23 66.9294Z" fill="#222221"/>
<path d="M500.812 95.6744C498.011 94.2003 496.979 97.5907 495.652 99.3595C494.178 101.423 492.557 103.339 489.756 105.845C484.155 110.71 477.669 113.363 468.972 115.279C467.94 115.869 456.442 115.132 455.853 114.837C447.746 113.363 442.734 110.857 439.049 105.698C438.164 104.666 437.722 103.045 436.248 102.602C434.184 102.013 432.268 104.371 433.447 106.288C438.754 115.869 449.957 119.996 460.422 120.291C466.613 121.028 472.657 120.144 478.406 117.785C485.334 115.574 491.672 111.742 496.537 106.288C498.158 104.371 499.632 102.455 501.106 100.391C501.991 98.9173 502.728 96.8536 500.812 95.6744Z" fill="#222221"/>
<path d="M442.881 80.6396C440.965 76.9544 436.837 74.3011 432.71 74.8907C426.961 75.7752 421.802 80.3447 421.212 86.241C420.475 94.6431 428.14 96.8542 434.921 97.0016C436.1 97.0016 436.837 96.2646 437.132 95.5275C438.606 95.0853 439.933 94.3483 440.965 93.3164C443.765 89.7787 444.945 84.7669 442.881 80.6396Z" fill="#DC3545"/>
<path d="M519.09 73.5656C518.205 72.9759 517.173 72.6811 515.994 72.5337C512.162 71.9441 507.739 71.7967 504.497 74.3026C504.054 74.7448 503.76 75.187 503.465 75.6292C499.78 78.4299 496.979 82.9995 498.453 87.7165C499.043 89.9276 500.369 92.1387 502.433 93.4653C505.234 94.792 508.624 94.792 511.425 93.6127C515.847 92.1387 520.564 89.6328 522.48 85.0632C522.775 84.4736 522.922 83.7365 522.922 82.9995C523.954 79.3144 522.775 75.3344 519.09 73.5656Z" fill="#DC3545"/>
</svg>
