<svg width="769" height="713" viewBox="0 0 769 713" fill="none" xmlns="http://www.w3.org/2000/svg">
<path d="M719.853 313.133L742.859 299.655C744.778 298.512 744.784 295.724 742.846 294.64L719.699 281.458C717.762 280.373 715.35 281.764 715.369 283.992L715.549 310.648C715.529 312.88 717.935 314.277 719.853 313.133Z" fill="#D29C37"/>
<path d="M768.143 655.509C768.143 659.392 765.013 662.523 761.13 662.523C757.246 662.523 754.116 659.392 754.116 655.509C754.116 651.626 757.246 648.496 761.13 648.496C765.013 648.496 768.143 651.626 768.143 655.509Z" fill="#DA5D38"/>
<path d="M490.479 653.114C489.979 651.214 490.479 649.114 491.879 647.614C492.579 646.914 493.379 646.514 494.179 646.214C482.279 633.014 465.479 628.314 445.179 629.414C437.079 638.014 431.979 649.514 431.779 662.314C431.779 662.614 431.779 662.914 431.779 663.214C431.779 684.914 445.779 703.314 465.179 709.614C479.079 690.914 489.979 666.914 494.079 657.014C493.279 656.714 492.479 656.314 491.879 655.614C491.179 654.914 490.679 654.014 490.479 653.114Z" fill="#C0C6B9" stroke="#151A0F" stroke-linecap="round" stroke-linejoin="round"/>
<path d="M509.379 624.714C503.079 619.714 495.579 616.314 487.279 615.014C484.779 614.614 482.279 614.414 479.779 614.414C477.279 614.414 476.979 614.414 475.579 614.614C463.579 615.614 452.879 621.114 445.079 629.414C465.379 628.314 482.179 633.014 494.079 646.214C494.279 646.214 494.379 646.214 494.479 646.114C494.879 646.014 495.379 645.914 495.779 646.014C496.779 646.014 497.679 646.314 498.579 646.814C498.979 647.014 499.279 647.314 499.579 647.614C499.679 647.714 499.879 647.914 499.979 648.014C504.479 644.314 511.479 637.914 514.579 629.614C512.979 627.814 511.179 626.214 509.279 624.714H509.379Z" fill="#F9FAFA" stroke="#151A0F" stroke-miterlimit="10"/>
<path d="M527.879 663.114V663.514C521.079 651.814 508.479 650.914 501.379 651.514C501.379 651.314 501.379 651.114 501.379 650.914C501.279 649.814 500.879 648.814 500.179 647.914C504.679 644.214 511.679 637.814 514.779 629.514C521.479 636.714 526.079 646.014 527.479 656.314C527.779 658.514 527.979 660.714 527.979 663.014L527.879 663.114Z" fill="#C0C6B9" stroke="#151A0F" stroke-linecap="round" stroke-linejoin="round"/>
<path d="M527.879 663.513C527.779 676.813 522.379 688.913 513.679 697.613C513.179 698.113 512.679 698.613 512.179 699.113C511.279 682.013 502.679 664.313 498.379 656.513C498.679 656.313 498.879 656.213 499.179 656.013C499.379 655.913 499.579 655.713 499.679 655.513C500.779 654.413 501.279 652.913 501.279 651.513C508.479 650.913 521.079 651.813 527.779 663.513H527.879Z" fill="#F9FAFA" stroke="#151A0F" stroke-miterlimit="10"/>
<path d="M501.379 651.515C501.379 652.915 500.879 654.415 499.779 655.515C499.579 655.715 499.479 655.815 499.279 656.015C498.979 656.215 498.779 656.415 498.479 656.515C497.579 657.015 496.579 657.215 495.479 657.115C494.979 657.115 494.579 657.015 494.079 656.815C493.279 656.515 492.479 656.115 491.879 655.415C491.179 654.715 490.679 653.815 490.479 652.915C489.979 651.015 490.479 648.915 491.879 647.415C492.579 646.715 493.379 646.315 494.179 646.015C494.379 646.015 494.479 646.015 494.579 645.915C494.979 645.815 495.479 645.715 495.879 645.815C496.879 645.815 497.779 646.115 498.679 646.615C499.079 646.815 499.379 647.115 499.679 647.415C499.779 647.515 499.979 647.715 500.079 647.815C500.779 648.715 501.179 649.715 501.279 650.815C501.279 651.015 501.279 651.215 501.279 651.415L501.379 651.515Z" fill="#344026" stroke="#151A0F" stroke-miterlimit="10"/>
<path d="M512.179 699.113C503.679 707.013 492.279 711.813 479.779 711.813C467.279 711.813 471.479 711.213 467.579 710.213C466.779 710.013 465.979 709.713 465.179 709.513C479.079 690.813 489.979 666.813 494.079 656.913C494.479 657.013 494.979 657.113 495.479 657.213C496.479 657.213 497.579 657.113 498.479 656.613C502.779 664.413 511.279 682.113 512.279 699.213L512.179 699.113Z" fill="#C0C6B9" stroke="#151A0F" stroke-linecap="round" stroke-linejoin="round"/>
<path d="M494.079 656.914C489.879 666.814 478.979 690.814 465.179 709.514C445.779 703.214 431.779 684.814 431.779 663.114C431.779 641.414 431.779 662.514 431.779 662.214C461.679 665.514 481.879 657.514 490.479 653.014C490.679 653.914 491.179 654.814 491.879 655.514C492.479 656.114 493.279 656.614 494.079 656.914Z" fill="#F9FAFA" stroke="#151A0F" stroke-miterlimit="10"/>
<path d="M43.2854 342.656H37.6708C36.3875 342.656 35.1577 343.031 34.0883 343.672L18.7419 353.083C17.8329 353.671 18.2072 355.062 19.2766 355.062H62.963C64.0325 355.062 64.4602 353.618 63.4978 353.083L46.7076 343.565C45.6916 342.977 44.5153 342.656 43.3389 342.656H43.2854Z" stroke="#151A0F" stroke-linecap="round" stroke-linejoin="round"/>
<path d="M35.8525 332.818C35.8525 329.931 38.2053 327.578 41.0927 327.578C43.9802 327.578 46.333 329.931 46.333 332.818C46.333 335.706 43.9802 338.059 41.0927 338.059V342.604" stroke="#151A0F" stroke-linecap="round" stroke-linejoin="round"/>
<path d="M1.20312 385.489C1.20312 385.489 1.7913 389.232 15.1593 390.515V420.887H66.3853V390.408C79.0581 389.018 79.6462 385.436 79.6462 385.436L77.24 378.645L70.2352 358.914C69.3262 356.4 67.6151 354.261 65.3158 352.871L54.6215 346.348C53.1777 347.845 50.9854 348.914 48.7396 349.609C43.3924 351.374 37.6174 351.374 32.2702 349.609C30.0244 348.861 27.7786 347.845 26.3883 346.348L15.6405 352.871C13.3412 354.261 11.6302 356.4 10.7211 358.914L3.82326 378.27L1.25658 385.436L1.20312 385.489Z" fill="#D29C37" stroke="#151A0F" stroke-linecap="round" stroke-linejoin="round"/>
<path d="M57.3484 348.166C53.0707 351.107 47.0284 353.78 40.2909 353.78C33.5535 353.78 27.5111 351.107 23.2334 348.166L26.1743 346.348C27.6181 347.845 29.8104 348.914 32.0562 349.609C37.4034 351.374 43.1784 351.374 48.5256 349.609C50.7714 348.861 53.0172 347.845 54.4075 346.348L57.295 348.112L57.3484 348.166Z" fill="#728C54" stroke="#151A0F" stroke-linecap="round" stroke-linejoin="round"/>
<path d="M15.1592 390.515V370.035" stroke="#151A0F" stroke-linecap="round" stroke-linejoin="round"/>
<path d="M66.3848 370.035V390.515" stroke="#151A0F" stroke-linecap="round" stroke-linejoin="round"/>
<path d="M66.3848 382.173V390.461C79.0576 389.071 79.6457 385.488 79.6457 385.488L77.2395 378.697C75.1541 379.981 71.1972 381.906 66.3848 382.173Z" fill="#728C54" stroke="#151A0F" stroke-linecap="round" stroke-linejoin="round"/>
<path d="M1.20312 385.487C1.20312 385.487 1.7913 389.231 15.1593 390.514V382.172C9.86555 381.851 5.58784 379.499 3.7698 378.322L1.20312 385.487Z" fill="#728C54" stroke="#151A0F" stroke-linecap="round" stroke-linejoin="round"/>
<path d="M693.932 41.3203H689.444C688.418 41.3203 687.435 41.6195 686.58 42.1325L674.311 49.6559C673.585 50.1261 673.884 51.2375 674.739 51.2375H709.663C710.518 51.2375 710.86 50.0833 710.09 49.6559L696.668 42.047C695.856 41.5768 694.915 41.3203 693.975 41.3203H693.932Z" stroke="#151A0F" stroke-linecap="round" stroke-linejoin="round"/>
<path d="M687.99 33.4548C687.99 31.1465 689.871 29.2656 692.179 29.2656C694.488 29.2656 696.369 31.1465 696.369 33.4548C696.369 35.7631 694.488 37.6439 692.179 37.6439V41.2774" stroke="#151A0F" stroke-linecap="round" stroke-linejoin="round"/>
<path d="M722.999 97.3605C722.999 97.3605 722.572 100.225 712.398 101.336V103.901H671.447V101.421C660.761 100.353 660.291 97.4033 660.291 97.4033L667.557 55.8538C667.985 53.4172 669.31 51.1944 671.362 49.7838C671.49 49.6983 671.618 49.6128 671.747 49.5273L675.807 47.048L680.339 44.2695C681.493 45.4664 683.245 46.3214 685.041 46.8771C689.315 48.2877 693.932 48.2877 698.207 46.8771C700.002 46.2786 701.797 45.4237 702.909 44.2695L707.739 47.219L711.501 49.4846C711.629 49.5701 711.757 49.6556 711.885 49.7411C713.937 51.109 715.262 53.3318 715.69 55.811L722.957 97.3605H722.999Z" fill="#C0C6B9" stroke="#151A0F" stroke-linecap="round" stroke-linejoin="round"/>
<path d="M707.782 47.219C700.387 58.2476 683.203 58.2048 675.808 47.048L680.339 44.2695C681.493 45.4664 683.246 46.3214 685.041 46.8771C689.316 48.2877 693.932 48.2877 698.207 46.8771C700.002 46.2786 701.797 45.4237 702.909 44.2695L707.739 47.219H707.782Z" fill="#344026" stroke="#151A0F" stroke-linecap="round" stroke-linejoin="round"/>
<path d="M671.447 101.848V63.2051" stroke="#151A0F" stroke-linecap="round" stroke-linejoin="round"/>
<path d="M712.398 101.249V63.2051" stroke="#151A0F" stroke-linecap="round" stroke-linejoin="round"/>
<path d="M62.9588 582.955H134.286L121.984 612.468H50.6021L62.9588 582.955Z" fill="#151A0F" stroke="#151A0F" stroke-linecap="round" stroke-linejoin="round"/>
<path d="M167.494 582.955H96.1675V653.013H167.494V582.955Z" fill="#DA5D38" stroke="#151A0F" stroke-linecap="round" stroke-linejoin="round"/>
<path d="M96.1677 582.955H63.1797V653.013H96.1677V582.955Z" fill="#DA5D38" stroke="#151A0F" stroke-linecap="round" stroke-linejoin="round"/>
<path d="M167.494 595.422V626.259H105.821L96.1675 582.955H162.364L167.494 595.422Z" fill="#151A0F" stroke="#151A0F" stroke-linecap="round" stroke-linejoin="round"/>
<path d="M167.494 582.955H96.1675L108.469 612.468H179.796L167.494 582.955Z" fill="#DA5D38" stroke="#151A0F" stroke-linecap="round" stroke-linejoin="round"/>
<path d="M84.9142 582.955H74.3779V608.772H84.9142V582.955Z" fill="#F9FAFA" stroke="#151A0F" stroke-miterlimit="10"/>
<path d="M242.418 17.2228L189.535 1.05469L168.747 69.048L221.631 85.2161L242.418 17.2228Z" fill="#151A0F" stroke="#151A0F" stroke-linecap="round" stroke-linejoin="round"/>
<path d="M196.968 3.22266L248.609 19.0107C249.278 19.2154 249.676 19.9646 249.472 20.634L229.415 86.2365C229.21 86.9059 228.461 87.3043 227.792 87.0996L176.151 71.3116L196.939 3.31829L196.968 3.22266Z" fill="#728C54" stroke="#151A0F" stroke-linecap="round" stroke-linejoin="round"/>
<path d="M239.386 27.2067L201.325 15.5703L193.986 39.5736L232.047 51.21L239.386 27.2067Z" fill="#F9FAFA" stroke="#151A0F" stroke-linecap="round" stroke-linejoin="round"/>
</svg>
