<svg width="1799" height="1500" viewBox="0 0 1799 1500" fill="none" xmlns="http://www.w3.org/2000/svg">
<path d="M1593.7 1328.55C1593.7 1269.15 1545.5 1220.95 1486.1 1220.95C1426.7 1220.95 1378.5 1269.15 1378.5 1328.55H1593.7Z" fill="#EBB22A"/>
<path d="M1685.58 629.875L1743.64 595.858C1748.48 592.973 1748.5 585.938 1743.61 583.201L1685.19 549.933C1680.3 547.196 1674.21 550.706 1674.26 556.328L1674.72 623.603C1674.67 629.235 1680.74 632.76 1685.58 629.875Z" fill="#C0C6B9"/>
<path d="M753.606 1445.29L767.106 1495.69C768.206 1499.89 773.506 1501.29 776.606 1498.19L813.506 1461.29C816.606 1458.19 815.206 1452.89 811.006 1451.79L760.606 1438.29C756.306 1437.19 752.506 1441.09 753.606 1445.29Z" fill="#344026"/>
<path d="M197.957 314.307C205.455 306.809 205.455 294.652 197.957 287.154C190.459 279.656 178.302 279.656 170.804 287.154C163.306 294.652 163.306 306.809 170.804 314.307C178.302 321.805 190.459 321.805 197.957 314.307Z" fill="#C0C6B9"/>
<path d="M391.98 90.4392C387.58 90.4392 383.48 90.0392 379.88 89.4392C337.98 82.3392 314.28 42.4392 311.68 37.9392C305.48 27.0392 309.38 13.2393 320.18 7.03928C331.08 0.839282 344.78 4.63928 350.98 15.5393C355.18 22.7393 369.88 41.9393 387.48 44.8393C398.48 46.6393 410.68 41.7393 423.78 30.2393C433.18 21.9393 447.48 22.8393 455.78 32.2393C464.08 41.6393 463.18 55.9393 453.78 64.2393C430.28 84.8393 408.58 90.4392 391.98 90.4392Z" fill="#344026"/>
<path d="M181.877 1026.71H132.577C124.277 1026.71 117.577 1020.01 117.577 1011.71V962.408C117.577 954.108 124.277 947.408 132.577 947.408H181.877C190.177 947.408 196.877 954.108 196.877 962.408V1011.71C196.977 1020.01 190.177 1026.71 181.877 1026.71Z" fill="#DA5D38"/>
<path d="M1593.7 1172.9C1593.7 1182.7 1585.8 1190.6 1576 1190.6C1566.2 1190.6 1558.3 1182.7 1558.3 1172.9C1558.3 1163.1 1566.2 1155.2 1576 1155.2C1585.8 1155.2 1593.7 1163.1 1593.7 1172.9Z" fill="#DA5D38"/>
<path d="M1307.74 27.8061C1309.8 17.0666 1302.76 6.6904 1292.03 4.6302C1281.29 2.57 1270.91 9.60595 1268.85 20.3454C1266.79 31.0849 1273.83 41.4611 1284.56 43.5213C1295.3 45.5815 1305.68 38.5456 1307.74 27.8061Z" fill="#EBB22A"/>
<path d="M1618.48 121.427C1616.28 121.427 1614.08 120.627 1612.38 118.927L1567.47 74.0272C1564.17 70.7272 1564.17 65.2271 1567.47 61.9271C1570.77 58.6271 1576.27 58.6271 1579.57 61.9271L1624.48 106.827C1627.78 110.127 1627.78 115.627 1624.48 118.927C1622.78 120.627 1620.68 121.427 1618.48 121.427Z" fill="#DA5D38"/>
<path d="M1675.57 121.427C1673.37 121.427 1671.17 120.627 1669.47 118.927L1624.57 74.0272C1621.27 70.7272 1621.27 65.2271 1624.57 61.9271C1627.87 58.6271 1633.37 58.6271 1636.67 61.9271L1681.57 106.827C1684.87 110.127 1684.87 115.627 1681.57 118.927C1679.87 120.627 1677.77 121.427 1675.57 121.427Z" fill="#DA5D38"/>
<path d="M1732.67 121.427C1730.47 121.427 1728.27 120.627 1726.57 118.927L1681.67 74.0272C1678.37 70.7272 1678.37 65.2271 1681.67 61.9271C1684.97 58.6271 1690.47 58.6271 1693.77 61.9271L1738.67 106.827C1741.97 110.127 1741.97 115.627 1738.67 118.927C1736.97 120.627 1734.77 121.427 1732.67 121.427Z" fill="#DA5D38"/>
<path d="M1789.78 121.427C1787.58 121.427 1785.38 120.627 1783.68 118.927L1738.78 74.0272C1735.48 70.7272 1735.48 65.2271 1738.78 61.9271C1742.08 58.6271 1747.58 58.6271 1750.88 61.9271L1795.78 106.827C1799.08 110.127 1799.08 115.627 1795.78 118.927C1794.08 120.627 1791.88 121.427 1789.78 121.427Z" fill="#DA5D38"/>
<path d="M54.3034 1255.74C52.1034 1255.74 49.9034 1254.94 48.2034 1253.24L3.30337 1208.34C0.00336909 1205.04 0.00336909 1199.54 3.30337 1196.24C6.60337 1192.94 12.1033 1192.94 15.4033 1196.24L60.3034 1241.14C63.6034 1244.44 63.6034 1249.94 60.3034 1253.24C58.6034 1254.84 56.4034 1255.74 54.3034 1255.74Z" fill="#344026"/>
<path d="M111.403 1255.74C109.203 1255.74 107.003 1254.94 105.303 1253.24L60.4032 1208.34C57.1032 1205.04 57.1032 1199.54 60.4032 1196.24C63.7032 1192.94 69.2032 1192.94 72.5032 1196.24L117.403 1241.14C120.703 1244.44 120.703 1249.94 117.403 1253.24C115.703 1254.84 113.503 1255.74 111.403 1255.74Z" fill="#344026"/>
<path d="M168.403 1255.74C166.203 1255.74 164.003 1254.94 162.303 1253.24L117.403 1208.34C114.103 1205.04 114.103 1199.54 117.403 1196.24C120.703 1192.94 126.203 1192.94 129.503 1196.24L174.403 1241.14C177.703 1244.44 177.703 1249.94 174.403 1253.24C172.803 1254.84 170.603 1255.74 168.403 1255.74Z" fill="#344026"/>
<path d="M225.503 1255.74C223.303 1255.74 221.103 1254.94 219.403 1253.24L174.503 1208.34C171.203 1205.04 171.203 1199.54 174.503 1196.24C177.803 1192.94 183.303 1192.94 186.603 1196.24L231.503 1241.14C234.803 1244.44 234.803 1249.94 231.503 1253.24C229.903 1254.84 227.703 1255.74 225.503 1255.74Z" fill="#344026"/>
</svg>
