<svg width="888" height="741" viewBox="0 0 888 741" fill="none" xmlns="http://www.w3.org/2000/svg">
<path d="M786.662 656.329C786.662 627.005 762.867 603.21 733.543 603.21C704.219 603.21 680.424 627.005 680.424 656.329H786.662Z" fill="#EBB22A"/>
<path d="M832.02 311.412L860.684 294.619C863.074 293.194 863.082 289.721 860.668 288.37L831.828 271.947C829.414 270.596 826.409 272.328 826.433 275.104L826.658 308.316C826.632 311.096 829.63 312.836 832.02 311.412Z" fill="#C0C6B9"/>
<path d="M371.933 713.959L378.597 738.84C379.14 740.913 381.757 741.604 383.287 740.074L401.504 721.858C403.034 720.327 402.343 717.711 400.269 717.168L375.388 710.503C373.266 709.96 371.39 711.885 371.933 713.959Z" fill="#344026"/>
<path d="M97.6255 155.624C101.327 151.923 101.327 145.921 97.6255 142.22C93.924 138.518 87.9226 138.518 84.2211 142.22C80.5195 145.921 80.5195 151.923 84.2211 155.624C87.9226 159.326 93.924 159.326 97.6255 155.624Z" fill="#C0C6B9"/>
<path d="M193.409 45.1069C191.237 45.1069 189.213 44.9095 187.436 44.6133C166.751 41.1082 155.051 21.4108 153.767 19.1893C150.706 13.8083 152.632 6.99564 157.963 3.93489C163.344 0.874133 170.108 2.75008 173.168 8.13108C175.242 11.6855 182.499 21.164 191.187 22.5956C196.618 23.4842 202.64 21.0652 209.108 15.388C213.748 11.2906 220.808 11.7349 224.905 16.3754C229.002 21.0159 228.558 28.0753 223.918 32.1728C212.316 42.3424 201.604 45.1069 193.409 45.1069Z" fill="#344026"/>
<path d="M89.6876 507.317H65.3497C61.2523 507.317 57.9447 504.009 57.9447 499.912V475.574C57.9447 471.477 61.2523 468.169 65.3497 468.169H89.6876C93.7851 468.169 97.0927 471.477 97.0927 475.574V499.912C97.1421 504.009 93.7851 507.317 89.6876 507.317Z" fill="#DA5D38"/>
<path d="M786.662 579.487C786.662 584.325 782.762 588.225 777.924 588.225C773.086 588.225 769.186 584.325 769.186 579.487C769.186 574.649 773.086 570.749 777.924 570.749C782.762 570.749 786.662 574.649 786.662 579.487Z" fill="#DA5D38"/>
<path d="M645.492 14.185C646.509 8.8832 643.036 3.76079 637.734 2.74373C632.432 1.72667 627.31 5.20011 626.293 10.5019C625.276 15.8036 628.749 20.9261 634.051 21.9431C639.353 22.9602 644.475 19.4867 645.492 14.185Z" fill="#EBB22A"/>
<path d="M798.893 60.4057C797.807 60.4057 796.721 60.0108 795.881 59.1716L773.716 37.0058C772.086 35.3767 772.086 32.6615 773.716 31.0324C775.345 29.4033 778.06 29.4033 779.689 31.0324L801.855 53.1982C803.484 54.8273 803.484 57.5424 801.855 59.1716C801.015 60.0108 799.979 60.4057 798.893 60.4057Z" fill="#DA5D38"/>
<path d="M827.081 60.4057C825.995 60.4057 824.909 60.0108 824.07 59.1716L801.904 37.0058C800.275 35.3767 800.275 32.6615 801.904 31.0324C803.533 29.4033 806.248 29.4033 807.877 31.0324L830.043 53.1982C831.672 54.8273 831.672 57.5424 830.043 59.1716C829.204 60.0108 828.167 60.4057 827.081 60.4057Z" fill="#DA5D38"/>
<path d="M855.27 60.4057C854.184 60.4057 853.098 60.0108 852.258 59.1716L830.093 37.0058C828.464 35.3767 828.464 32.6615 830.093 31.0324C831.722 29.4033 834.437 29.4033 836.066 31.0324L858.232 53.1982C859.861 54.8273 859.861 57.5424 858.232 59.1716C857.393 60.0108 856.307 60.4057 855.27 60.4057Z" fill="#DA5D38"/>
<path d="M883.458 60.4057C882.372 60.4057 881.286 60.0108 880.447 59.1716L858.281 37.0058C856.652 35.3767 856.652 32.6615 858.281 31.0324C859.91 29.4033 862.625 29.4033 864.255 31.0324L886.42 53.1982C888.049 54.8273 888.049 57.5424 886.42 59.1716C885.581 60.0108 884.495 60.4057 883.458 60.4057Z" fill="#DA5D38"/>
<path d="M26.7083 620.383C25.6222 620.383 24.5362 619.988 23.6969 619.149L1.53113 596.983C-0.097982 595.354 -0.097982 592.639 1.53113 591.01C3.16024 589.381 5.87541 589.381 7.50452 591.01L29.6703 613.176C31.2994 614.805 31.2994 617.52 29.6703 619.149C28.8311 619.939 27.745 620.383 26.7083 620.383Z" fill="#344026"/>
<path d="M54.8968 620.383C53.8108 620.383 52.7247 619.988 51.8855 619.149L29.7197 596.983C28.0906 595.354 28.0906 592.639 29.7197 591.01C31.3488 589.381 34.0639 589.381 35.6931 591.01L57.8588 613.176C59.488 614.805 59.488 617.52 57.8588 619.149C57.0196 619.939 55.9335 620.383 54.8968 620.383Z" fill="#344026"/>
<path d="M83.036 620.383C81.9499 620.383 80.8639 619.988 80.0246 619.149L57.8589 596.983C56.2297 595.354 56.2297 592.639 57.8589 591.01C59.488 589.381 62.2031 589.381 63.8322 591.01L85.998 613.176C87.6271 614.805 87.6271 617.52 85.998 619.149C85.2082 619.939 84.1221 620.383 83.036 620.383Z" fill="#344026"/>
<path d="M111.225 620.383C110.138 620.383 109.052 619.988 108.213 619.149L86.0474 596.983C84.4183 595.354 84.4183 592.639 86.0474 591.01C87.6765 589.381 90.3917 589.381 92.0208 591.01L114.187 613.176C115.816 614.805 115.816 617.52 114.187 619.149C113.397 619.939 112.311 620.383 111.225 620.383Z" fill="#344026"/>
</svg>
