<svg width="786" height="787" viewBox="0 0 786 787" fill="none" xmlns="http://www.w3.org/2000/svg">
<path d="M392.767 785.612C356.228 785.612 321.212 774.321 291.652 753.007C267.546 735.752 239.381 724.08 210.075 719.259C136.49 707.207 79.0184 649.735 66.9658 576.15C62.1447 546.844 50.4727 518.679 33.2185 494.573C-10.2978 434.057 -10.2978 352.733 33.2185 292.216C50.4727 268.111 62.1447 239.946 66.9658 210.639C79.0184 137.055 136.49 79.5831 210.075 67.5305C239.381 62.7095 267.546 51.0374 291.652 33.7832C321.339 12.4691 356.355 1.17773 392.767 1.17773C429.305 1.17773 464.321 12.4691 493.882 33.7832C517.987 51.0374 546.152 62.7095 575.459 67.5305C649.043 79.5831 706.515 137.055 718.568 210.639C723.389 239.946 735.061 268.111 752.315 292.216C795.831 352.733 795.831 434.057 752.315 494.573C735.061 518.679 723.389 546.844 718.568 576.15C706.515 649.735 649.043 707.207 575.459 719.259C546.152 724.08 517.987 735.752 493.882 753.007C464.321 774.321 429.305 785.612 392.767 785.612Z" stroke="#C0C6B9" stroke-linecap="round" stroke-linejoin="round" stroke-dasharray="8.48 8.48"/>
</svg>
