<svg width="121" height="121" viewBox="0 0 121 121" fill="none" xmlns="http://www.w3.org/2000/svg">
<circle cx="60.7041" cy="60.0117" r="59.4" stroke="#728C54" stroke-width="1.2" stroke-dasharray="4 4"/>
<path d="M51.6088 85.9863C53.8179 85.9863 55.6088 84.1955 55.6088 81.9863C55.6088 79.7772 53.8179 77.9863 51.6088 77.9863C49.3996 77.9863 47.6088 79.7772 47.6088 81.9863C47.6088 84.1955 49.3996 85.9863 51.6088 85.9863Z" stroke="#344026" stroke-linecap="round" stroke-linejoin="round"/>
<path d="M75.3707 85.9863C77.5799 85.9863 79.3707 84.1955 79.3707 81.9863C79.3707 79.7772 77.5799 77.9863 75.3707 77.9863C73.1616 77.9863 71.3707 79.7772 71.3707 81.9863C71.3707 84.1955 73.1616 85.9863 75.3707 85.9863Z" stroke="#344026" stroke-linecap="round" stroke-linejoin="round"/>
<path d="M29.9421 36.0352H40.0374L46.8012 69.829C47.032 70.9909 47.6641 72.0347 48.5869 72.7775C49.5097 73.5204 50.6644 73.915 51.8488 73.8923H76.3802C77.5647 73.915 78.7193 73.5204 79.6421 72.7775C80.5649 72.0347 81.1971 70.9909 81.4279 69.829L85.466 48.6542H42.5612" stroke="#344026" stroke-linecap="round" stroke-linejoin="round"/>
</svg>
