<?xml version="1.0" encoding="UTF-8"?>
<svg id="Capa_1" data-name="Capa 1" xmlns="http://www.w3.org/2000/svg" version="1.1" viewBox="0 0 414 680">
  <defs>
    <style>
      .cls-1 {
        fill: #da5d38;
      }

      .cls-1, .cls-2, .cls-3, .cls-4, .cls-5 {
        stroke-width: 0px;
      }

      .cls-2 {
        fill: #778b5a;
      }

      .cls-3 {
        fill: #ebb22a;
      }

      .cls-4 {
        fill: #c1c6ba;
      }

      .cls-5 {
        fill: #c0c6b9;
      }
    </style>
  </defs>
  <circle class="cls-5" cx="216" cy="639" r="317"/>
  <path class="cls-4" d="M58.1,175c0-16.4-13.3-29.8-29.8-29.8S-1.5,158.6-1.5,175h59.5Z"/>
  <path class="cls-3" d="M323.5,93c0,16.4,13.3,29.8,29.8,29.8s29.8-13.3,29.8-29.8h-59.5Z"/>
  <path class="cls-1" d="M175.1,158.5c0,2.7-2.2,4.9-4.9,4.9s-4.9-2.2-4.9-4.9,2.2-4.9,4.9-4.9,4.9,2.2,4.9,4.9Z"/>
  <path class="cls-2" d="M86.4,650.9h-13.6c-2.3,0-4.1-1.9-4.1-4.2v-13.7c0-2.3,1.9-4.2,4.1-4.2h13.6c2.3,0,4.2,1.9,4.2,4.2v13.7c0,2.3-1.9,4.2-4.2,4.2Z"/>
  <g>
    <path class="cls-5" d="M356.2,310.4c-.6,0-1.2-.2-1.7-.7l-12.4-12.4c-.9-.9-.9-2.4,0-3.3.9-.9,2.4-.9,3.3,0l12.4,12.4c.9.9.9,2.4,0,3.3-.5.4-1.1.7-1.7.7Z"/>
    <path class="cls-5" d="M371.9,310.4c-.6,0-1.2-.2-1.7-.7l-12.4-12.4c-.9-.9-.9-2.4,0-3.3.9-.9,2.4-.9,3.3,0l12.4,12.4c.9.9.9,2.4,0,3.3-.5.4-1.1.7-1.7.7Z"/>
    <path class="cls-5" d="M387.7,310.4c-.6,0-1.2-.2-1.7-.7l-12.4-12.4c-.9-.9-.9-2.4,0-3.3.9-.9,2.4-.9,3.3,0l12.4,12.4c.9.9.9,2.4,0,3.3-.4.4-1.1.7-1.7.7Z"/>
    <path class="cls-5" d="M403.5,310.4c-.6,0-1.2-.2-1.7-.7l-12.4-12.4c-.9-.9-.9-2.4,0-3.3.9-.9,2.4-.9,3.3,0l12.4,12.4c.9.9.9,2.4,0,3.3-.4.4-1.1.7-1.7.7Z"/>
  </g>
  <g>
    <path class="cls-5" d="M229.9,135.3c-.6,0-1.2-.2-1.7-.7l-12.4-12.4c-.9-.9-.9-2.4,0-3.3.9-.9,2.4-.9,3.3,0l12.4,12.4c.9.9.9,2.4,0,3.3-.5.5-1.1.7-1.7.7Z"/>
    <path class="cls-5" d="M245.7,135.3c-.6,0-1.2-.2-1.7-.7l-12.4-12.4c-.9-.9-.9-2.4,0-3.3.9-.9,2.4-.9,3.3,0l12.4,12.4c.9.9.9,2.4,0,3.3-.5.5-1.1.7-1.7.7Z"/>
    <path class="cls-5" d="M261.5,135.3c-.6,0-1.2-.2-1.7-.7l-12.4-12.4c-.9-.9-.9-2.4,0-3.3.9-.9,2.4-.9,3.3,0l12.4,12.4c.9.9.9,2.4,0,3.3-.5.5-1.1.7-1.7.7Z"/>
    <path class="cls-5" d="M277.3,135.3c-.6,0-1.2-.2-1.7-.7l-12.4-12.4c-.9-.9-.9-2.4,0-3.3.9-.9,2.4-.9,3.3,0l12.4,12.4c.9.9.9,2.4,0,3.3-.5.5-1.1.7-1.7.7Z"/>
  </g>
  <g>
    <path class="cls-1" d="M332.9,648.4c-.6,0-1.2-.2-1.7-.7l-12.4-12.4c-.9-.9-.9-2.4,0-3.3.9-.9,2.4-.9,3.3,0l12.4,12.4c.9.9.9,2.4,0,3.3-.5.5-1.1.7-1.7.7Z"/>
    <path class="cls-1" d="M348.7,648.4c-.6,0-1.2-.2-1.7-.7l-12.4-12.4c-.9-.9-.9-2.4,0-3.3.9-.9,2.4-.9,3.3,0l12.4,12.4c.9.9.9,2.4,0,3.3-.5.5-1.1.7-1.7.7Z"/>
    <path class="cls-1" d="M364.5,648.4c-.6,0-1.2-.2-1.7-.7l-12.4-12.4c-.9-.9-.9-2.4,0-3.3.9-.9,2.4-.9,3.3,0l12.4,12.4c.9.9.9,2.4,0,3.3-.5.5-1.1.7-1.7.7Z"/>
    <path class="cls-1" d="M380.3,648.4c-.6,0-1.2-.2-1.7-.7l-12.4-12.4c-.9-.9-.9-2.4,0-3.3.9-.9,2.4-.9,3.3,0l12.4,12.4c.9.9.9,2.4,0,3.3-.5.5-1.1.7-1.7.7Z"/>
  </g>
  <path class="cls-2" d="M325.6,227.7c-1.2,0-2.4-.1-3.3-.3-11.6-2-18.1-13-18.9-14.2-1.7-3-.6-6.8,2.4-8.5,3-1.7,6.8-.7,8.5,2.4,1.2,2,5.2,7.3,10.1,8.1,3,.5,6.4-.9,10-4,2.6-2.3,6.6-2,8.9.6,2.3,2.6,2,6.6-.6,8.9-6.5,5.7-12.5,7.2-17.1,7.2Z"/>
</svg>