<svg width="706" height="790" viewBox="0 0 706 790" fill="none" xmlns="http://www.w3.org/2000/svg">
<rect y="0.0078125" width="705.675" height="789.119" fill="#F9FAFA"/>
<path d="M617.147 789.127C617.147 765.591 598.049 746.492 574.512 746.492C550.976 746.492 531.878 765.591 531.878 789.127H617.147Z" fill="#EBB22A"/>
<path d="M56.1088 307.254C59.0798 304.283 59.0798 299.467 56.1088 296.496C53.1379 293.525 48.321 293.525 45.3501 296.496C42.3791 299.467 42.3791 304.283 45.3501 307.254C48.321 310.225 53.1379 310.225 56.1088 307.254Z" fill="#C0C6B9"/>
<path d="M135.457 179.761C134.389 181.139 133.269 182.326 132.207 183.308C119.815 194.709 101.566 192.45 99.5259 192.172C94.6072 191.469 91.2311 186.899 91.91 182.011C92.6132 177.093 97.1281 173.724 102.047 174.427C105.321 174.858 114.902 174.913 120.082 170.104C123.315 167.096 124.741 162.085 124.318 155.191C123.999 150.233 127.751 145.972 132.71 145.654C137.668 145.335 141.929 149.087 142.248 154.046C142.997 166.406 139.485 174.561 135.457 179.761Z" fill="#344026"/>
<path d="M100.149 596.234H80.6144C77.3257 596.234 74.6709 593.579 74.6709 590.29V570.756C74.6709 567.467 77.3257 564.812 80.6144 564.812H100.149C103.437 564.812 106.092 567.467 106.092 570.756V590.29C106.132 593.579 103.437 596.234 100.149 596.234Z" fill="#DA5D38"/>
<path d="M511.887 129.331C512.703 125.076 509.915 120.965 505.66 120.148C501.405 119.332 497.293 122.12 496.477 126.375C495.661 130.63 498.449 134.742 502.704 135.558C506.959 136.374 511.071 133.587 511.887 129.331Z" fill="#EBB22A"/>
<path d="M49.1885 730.273C48.3168 730.273 47.4451 729.956 46.7715 729.283L28.9807 711.492C27.6731 710.184 27.6731 708.005 28.9807 706.697C30.2882 705.39 32.4675 705.39 33.7751 706.697L51.5659 724.488C52.8735 725.796 52.8735 727.975 51.5659 729.283C50.8923 729.917 50.0206 730.273 49.1885 730.273Z" fill="#344026"/>
<path d="M71.813 730.273C70.9413 730.273 70.0696 729.956 69.396 729.283L51.6052 711.492C50.2976 710.184 50.2976 708.005 51.6052 706.697C52.9128 705.39 55.092 705.39 56.3996 706.697L74.1904 724.488C75.498 725.796 75.498 727.975 74.1904 729.283C73.5168 729.917 72.6451 730.273 71.813 730.273Z" fill="#344026"/>
<path d="M94.3985 730.273C93.5268 730.273 92.6551 729.956 91.9815 729.283L74.1906 711.492C72.8831 710.184 72.8831 708.005 74.1906 706.697C75.4982 705.39 77.6775 705.39 78.985 706.697L96.7759 724.488C98.0834 725.796 98.0834 727.975 96.7759 729.283C96.1419 729.917 95.2702 730.273 94.3985 730.273Z" fill="#344026"/>
<path d="M117.023 730.273C116.152 730.273 115.28 729.956 114.606 729.283L96.8156 711.492C95.5081 710.184 95.5081 708.005 96.8156 706.697C98.1232 705.39 100.303 705.39 101.61 706.697L119.401 724.488C120.708 725.796 120.708 727.975 119.401 729.283C118.767 729.917 117.895 730.273 117.023 730.273Z" fill="#344026"/>
</svg>
