<svg width="65" height="66" viewBox="0 0 65 66" fill="none" xmlns="http://www.w3.org/2000/svg">
<path d="M15.2004 12.7217C17.6285 14.5467 19.6442 18.0115 16.4177 22.3888L13.5773 26.2503L13.4857 26.1842L13.309 24.7625L4.83355 18.395L3.43953 18.6264L3.3479 18.5603L6.16867 14.7318C8.93054 10.9761 11.9411 10.2686 15.2004 12.7217ZM16.2999 21.9127C17.5499 20.2134 16.7057 18.7454 13.1257 16.0543C9.729 13.502 7.91611 12.9267 6.48936 14.8707L6.43046 14.9501L16.0839 22.2036L16.2999 21.9127Z" fill="white"/>
<path d="M28.2991 8.20586L30.2756 13.2443L20.4912 17.1522L20.452 17.0464L21.041 15.7438L17.16 5.81886L15.851 5.27666L15.8118 5.17087L25.4914 1.30273L27.4679 6.34784L27.3632 6.38751L25.7728 5.23699C23.1811 3.293 22.5463 2.84999 20.4847 3.67651L20.308 3.74924L22.4481 9.21752L22.6248 9.14479C23.5738 8.7679 24.1497 8.20586 24.4246 5.59404L24.5293 5.55437L26.5647 10.7582L26.46 10.7978C24.5621 9.21752 23.6916 9.07206 22.7426 9.44895L22.5659 9.52169L24.7453 15.0958L25.0267 14.9834C27.0818 14.1634 27.2519 13.3964 27.8213 10.1895C27.926 9.63409 28.0438 8.99271 28.2009 8.25214L28.2991 8.20586Z" fill="white"/>
<path d="M38.3618 7.79103C42.1447 8.10841 43.0413 9.74824 42.7402 11.3814C42.413 13.1866 40.0831 14.7867 35.9795 14.0263L30.554 13.0213L30.5736 12.9089L31.7516 12.122L33.6627 1.62847L32.8381 0.45811L32.8577 0.345703L38.6367 1.41688C42.3344 2.10455 43.506 3.46666 43.2049 5.1197C42.8907 6.84548 41.2022 7.7778 38.4011 7.6654L38.3618 7.79103ZM38.7872 11.031C39.193 8.79608 38.4469 7.92327 36.9089 7.63234L36.2937 7.51993L35.2007 13.5304C35.3447 13.5767 35.3774 13.6031 35.7897 13.656C37.439 13.9073 38.4011 13.1535 38.7872 11.031ZM37.3866 1.51606L36.3526 7.18271L36.9089 7.2885C38.5843 7.57944 39.1472 6.6934 39.481 4.85522C39.7493 3.39392 39.8344 1.9723 37.9757 1.62847L37.3866 1.51606Z" fill="white"/>
<path d="M50.4107 21.8757L50.4499 23.2907L50.3714 23.37L46.9943 20.097L48.4473 18.5696C45.9472 18.5564 44.9196 18.477 44.5531 18.12C43.0282 16.6388 42.8712 14.8205 44.756 12.8368L50.3321 6.99826L50.2929 5.58325L50.3714 5.50391L53.7485 8.78355L47.8844 14.9527C46.8372 16.057 46.4577 17.0091 47.2168 17.7497C47.6684 18.1861 48.2051 18.2853 48.7745 18.2324L55.0836 11.6268L55.0247 10.1986L55.1032 10.1192L58.4934 13.4121L50.4107 21.8757Z" fill="white"/>
<path d="M57.794 32.1953L52.5844 33.478L50.0909 23.1498L50.2021 23.1233L51.3998 23.8903L61.6619 21.3645L62.3753 20.128L62.4866 20.1016L64.9539 30.3174L59.7378 31.6002L59.7116 31.4878L61.0598 30.0529C63.3178 27.7254 63.8413 27.1502 63.3178 24.9814L63.2719 24.7962L57.6173 26.1914L57.6631 26.3765C57.9053 27.375 58.3765 28.0296 60.8962 28.6643L60.9224 28.7768L55.5426 30.0992L55.5165 29.9868C57.3293 28.3007 57.5911 27.4543 57.349 26.4493L57.3032 26.2641L51.5373 27.6857L51.6093 27.9833C52.1328 30.1521 52.8593 30.4232 55.9222 31.4415C56.4523 31.6266 57.0676 31.825 57.7678 32.0895L57.794 32.1953Z" fill="white"/>
<path d="M62.8214 44.1555L61.4601 48.2816L49.3262 44.2018L50.3341 41.1404L61.8397 38.4294L61.8725 38.3368L60.6879 37.9401C57.265 36.7896 54.117 37.464 51.2177 38.9584L51.1129 38.9253L52.4939 34.7266L62.6055 38.1252L64.9092 37.5301L65.0008 37.5632L63.5806 41.8743L52.0816 44.5655L52.0423 44.6713L53.1025 45.0284C56.1655 46.0599 59.9025 45.4846 62.7167 44.1159L62.8214 44.1555Z" fill="white"/>
<path d="M51.8525 59.1508L40.4778 52.089L40.4058 52.0031L44.3523 48.7036L44.4243 48.7895L44.3065 50.1781L47.2974 52.0361L49.6862 50.0392C48.5147 48.6639 47.16 47.7646 45.8903 47.5597L45.8183 47.4737L49.5423 44.3594L49.6142 44.4453L52.6903 55.2959L54.7715 56.5522L54.8435 56.6382L51.8525 59.1508ZM47.605 52.2279L52.1601 55.0645L52.2452 54.9918L51.8002 53.7553C51.3159 52.4461 50.6483 51.2757 49.9088 50.3103L47.605 52.2279Z" fill="white"/>
<path d="M29.3227 65.8922L29.9444 64.8343L28.8057 53.1108L33.4851 52.6546L33.4982 52.767L32.5754 53.8514L33.4524 62.8175L33.5637 62.8043L35.959 54.6912L36.1685 54.6713L40.6058 61.9447L40.6974 61.9381L40.5731 60.6686C40.1804 56.5822 38.7209 54.1754 36.2012 52.4827L36.1947 52.3901L40.1607 52L41.1948 62.8109L42.4318 64.6094L42.4449 64.7219L38.3871 65.1583L35.1017 59.6106L35.0101 59.6172L33.2692 65.6145L29.3423 65.998L29.3227 65.8922Z" fill="white"/>
<path d="M15.989 60.8123L18.2535 47.5152L18.3058 47.416L22.8021 49.889L22.7497 49.9882L21.4342 50.3915L20.8387 53.8893L23.5613 55.3837C24.3859 53.7703 24.7131 52.1702 24.4252 50.9073L24.4775 50.8081L28.725 53.1488L28.6727 53.248L19.8373 60.1775L19.4577 62.5976L19.4054 62.6968L15.989 60.8123ZM20.7732 54.253L19.8635 59.5758L19.9617 59.6287L20.9303 58.7493C21.9513 57.8104 22.7824 56.7458 23.3976 55.6945L20.7732 54.253Z" fill="white"/>
<path d="M4.65049 48.7863L2.48419 45.024L13.5317 38.5176L15.1417 41.3013L9.55249 51.8147L9.5983 51.894L10.6782 51.2593C13.7935 49.4211 15.3773 46.5911 16.1823 43.404L16.2805 43.3445L18.486 47.1729L9.27761 52.5949L8.19773 54.7439L8.11919 54.7902L5.85472 50.8625L11.457 40.3624L11.3981 40.2632L10.436 40.8318C7.64797 42.4717 5.60602 45.6852 4.75521 48.7268L4.65049 48.7863Z" fill="white"/>
<path d="M6.96422 38.7974C1.31502 38.5475 0.379062 33.2994 0.419174 32.4416C0.566254 28.9766 3.68836 26.4978 7.44558 26.6599C13.0948 26.9098 14.0307 32.1579 13.9906 32.9954C13.8435 36.5212 10.7281 38.9596 6.96422 38.7974ZM6.38259 30.8273C2.95296 32.0431 1.16126 33.5831 1.4621 34.8056C1.74958 35.8323 3.80201 36.116 7.46563 34.8934C11.1293 33.6709 13.2887 31.9688 12.9611 30.6652C12.6535 29.598 10.1866 29.4697 6.38259 30.8273Z" fill="white"/>
</svg>
