<svg width="126" height="126" viewBox="0 0 126 126" fill="none" xmlns="http://www.w3.org/2000/svg">
<g filter="url(#filter0_d_2321_13119)">
<path d="M123 62C123 95.1371 96.1371 122 63 122C29.8629 122 3 95.1371 3 62C3 28.8629 29.8629 2 63 2C96.1371 2 123 28.8629 123 62Z" fill="white"/>
</g>
<path d="M37.6199 32.2853C41.1703 34.9538 44.1179 40.0202 39.3999 46.4208L35.2465 52.0673L35.1126 51.9706L34.8542 49.8918L22.4611 40.581L20.4227 40.9194L20.2887 40.8227L24.4133 35.2245C28.4519 29.7328 32.854 28.6982 37.6199 32.2853ZM39.2276 45.7247C41.0555 43.2398 39.821 41.0934 34.5862 37.1583C29.6194 33.4262 26.9685 32.585 24.8823 35.4276L24.7961 35.5436L38.9118 46.1501L39.2276 45.7247Z" fill="#1B1F22"/>
<path d="M56.5488 25.4944L59.439 32.8619L45.1319 38.5761L45.0745 38.4214L45.9358 36.5166L40.2608 22.0041L38.3468 21.2112L38.2894 21.0565L52.4433 15.4004L55.3335 22.7775L55.1803 22.8356L52.8548 21.1532C49.0651 18.3106 48.1368 17.6628 45.1223 18.8714L44.8639 18.9778L47.9933 26.9737L48.2517 26.8674C49.6393 26.3163 50.4815 25.4944 50.8834 21.6753L51.0365 21.6173L54.0128 29.2265L53.8597 29.2845C51.0844 26.9737 49.8116 26.761 48.4239 27.3121L48.1656 27.4185L51.3524 35.5691L51.7639 35.4048C54.7688 34.2058 55.0176 33.0843 55.8502 28.395C56.0034 27.5828 56.1756 26.645 56.4053 25.5621L56.5488 25.4944Z" fill="#1B1F22"/>
<path d="M71.2675 24.8869C76.7989 25.351 78.11 27.7488 77.6698 30.1369C77.1913 32.7765 73.7844 35.1163 67.784 34.0044L59.8505 32.5347L59.8792 32.3704L61.6018 31.2198L64.3963 15.8757L63.1904 14.1644L63.2192 14L71.6694 15.5663C77.0764 16.5719 78.7895 18.5636 78.3492 20.9807C77.8899 23.5042 75.4208 24.8675 71.3249 24.7032L71.2675 24.8869ZM71.8895 29.6245C72.4829 26.3565 71.3919 25.0802 69.143 24.6548L68.2434 24.4904L66.6452 33.2792C66.8557 33.3469 66.9036 33.3856 67.5065 33.4629C69.9181 33.8303 71.3249 32.7281 71.8895 29.6245ZM69.8416 15.7113L68.3295 23.9973L69.143 24.152C71.5929 24.5775 72.4159 23.2819 72.9039 20.594C73.2963 18.4572 73.4207 16.3785 70.7029 15.8757L69.8416 15.7113Z" fill="#1B1F22"/>
<path d="M88.8858 45.4825L88.9432 47.5515L88.8284 47.6676L83.8903 42.8816L86.0148 40.6482C82.3591 40.6288 80.8566 40.5128 80.3207 39.9907C78.0909 37.8249 77.8612 35.166 80.6173 32.2655L88.7709 23.7281L88.7135 21.659L88.8284 21.543L93.7665 26.3386L85.1918 35.3594C83.6606 36.9741 83.1055 38.3664 84.2156 39.4492C84.876 40.0874 85.6607 40.2324 86.4933 40.1551L95.7187 30.4961L95.6326 28.4077L95.7474 28.2917L100.705 33.1066L88.8858 45.4825Z" fill="#1B1F22"/>
<path d="M99.6806 60.5726L92.063 62.4483L88.4168 47.3459L88.5795 47.3072L90.3308 48.4288L105.336 44.7354L106.38 42.9273L106.542 42.8887L110.15 57.8267L102.523 59.7024L102.485 59.538L104.456 57.4399C107.758 54.0366 108.523 53.1954 107.758 50.0241L107.691 49.7534L99.4223 51.7935L99.4893 52.0642C99.8433 53.5241 100.532 54.4813 104.217 55.4095L104.255 55.5739L96.3886 57.5076L96.3503 57.3433C99.0012 54.8778 99.384 53.6402 99.0299 52.1705L98.9629 51.8998L90.5318 53.9786L90.637 54.4137C91.4026 57.585 92.4649 57.9814 96.9436 59.4703C97.7188 59.7411 98.6184 60.0311 99.6424 60.4179L99.6806 60.5726Z" fill="#1B1F22"/>
<path d="M107.03 78.0648L105.04 84.098L87.2972 78.1325L88.771 73.6559L105.595 69.6918L105.643 69.5564L103.911 68.9763C98.9055 67.294 94.3024 68.2802 90.0629 70.4653L89.9098 70.4169L91.929 64.2773L106.715 69.247L110.083 68.3768L110.217 68.4252L108.141 74.7291L91.3261 78.6642L91.2687 78.8189L92.819 79.341C97.2978 80.8493 102.762 80.0082 106.877 78.0068L107.03 78.0648Z" fill="#1B1F22"/>
<path d="M90.991 99.9842L74.3584 89.6581L74.2532 89.5324L80.0239 84.7077L80.1291 84.8334L79.9569 86.8638L84.3303 89.5807L87.8234 86.6608C86.1103 84.6497 84.1294 83.3348 82.2728 83.0351L82.1675 82.9094L87.6128 78.3555L87.7181 78.4812L92.216 94.3474L95.2592 96.1844L95.3645 96.3101L90.991 99.9842ZM84.7801 89.8611L91.4408 94.009L91.5652 93.9026L90.9145 92.0946C90.2063 90.1802 89.2302 88.4688 88.1487 87.0572L84.7801 89.8611Z" fill="#1B1F22"/>
<path d="M58.0519 109.847L58.961 108.3L57.2958 91.1575L64.1384 90.4904L64.1575 90.6548L62.8081 92.2404L64.0905 105.351L64.2532 105.332L67.7558 93.4683L68.062 93.4393L74.5505 104.075L74.6844 104.065L74.5026 102.209C73.9284 96.2336 71.7943 92.7142 68.1099 90.239L68.1003 90.1037L73.8997 89.5332L75.4118 105.341L77.2205 107.971L77.2396 108.136L71.3063 108.774L66.5021 100.662L66.3682 100.671L63.8225 109.441L58.0806 110.002L58.0519 109.847Z" fill="#728C54"/>
<path d="M38.5572 102.421L41.8684 82.9771L41.945 82.832L48.5195 86.4481L48.443 86.5931L46.5194 87.1829L45.6485 92.2976L49.6296 94.4827C50.8354 92.1236 51.3139 89.7838 50.8929 87.9371L50.9694 87.792L57.1803 91.2147L57.1038 91.3598L44.1843 101.492L43.6293 105.031L43.5527 105.176L38.5572 102.421ZM45.5528 92.8294L44.2226 100.613L44.3662 100.69L45.7825 99.404C47.2754 98.0311 48.4908 96.4744 49.3904 94.9371L45.5528 92.8294Z" fill="#728C54"/>
<path d="M21.9724 84.8318L18.8047 79.3303L34.9588 69.8164L37.313 73.8869L29.1403 89.26L29.2073 89.376L30.7863 88.4478C35.3416 85.76 37.6576 81.6218 38.8347 76.9615L38.9782 76.8745L42.2033 82.4726L28.7384 90.4009L27.1593 93.5432L27.0445 93.6109L23.7333 87.8677L31.9252 72.514L31.839 72.3689L30.4322 73.2004C26.3554 75.5982 23.3696 80.2972 22.1255 84.7448L21.9724 84.8318Z" fill="#728C54"/>
<path d="M25.355 70.2259C17.0945 69.8604 15.7259 62.1864 15.7846 60.9321C15.9997 55.8654 20.5649 52.2407 26.0589 52.4778C34.3194 52.8432 35.688 60.5173 35.6293 61.7419C35.4143 66.8975 30.8588 70.4629 25.355 70.2259ZM24.5045 58.5716C19.4896 60.3494 16.8697 62.6012 17.3096 64.3889C17.73 65.8901 20.7311 66.3049 26.0882 64.5172C31.4453 62.7296 34.6029 60.2407 34.1239 58.3346C33.6742 56.7741 30.0669 56.5864 24.5045 58.5716Z" fill="#728C54"/>
<defs>
<filter id="filter0_d_2321_13119" x="0" y="0" width="126" height="126" filterUnits="userSpaceOnUse" color-interpolation-filters="sRGB">
<feFlood flood-opacity="0" result="BackgroundImageFix"/>
<feColorMatrix in="SourceAlpha" type="matrix" values="0 0 0 0 0 0 0 0 0 0 0 0 0 0 0 0 0 0 127 0" result="hardAlpha"/>
<feOffset dy="1"/>
<feGaussianBlur stdDeviation="1.5"/>
<feComposite in2="hardAlpha" operator="out"/>
<feColorMatrix type="matrix" values="0 0 0 0 0.105882 0 0 0 0 0.121569 0 0 0 0 0.133333 0 0 0 0.3 0"/>
<feBlend mode="normal" in2="BackgroundImageFix" result="effect1_dropShadow_2321_13119"/>
<feBlend mode="normal" in="SourceGraphic" in2="effect1_dropShadow_2321_13119" result="shape"/>
</filter>
</defs>
</svg>
