<svg width="63" height="66" viewBox="0 0 63 66" fill="none" xmlns="http://www.w3.org/2000/svg">
<path d="M13.2004 12.7217C15.6285 14.5467 17.6442 18.0115 14.4177 22.3888L11.5773 26.2503L11.4857 26.1842L11.309 24.7625L2.83355 18.395L1.43953 18.6264L1.3479 18.5603L4.16867 14.7318C6.93054 10.9761 9.94111 10.2686 13.2004 12.7217ZM14.2999 21.9127C15.5499 20.2134 14.7057 18.7454 11.1257 16.0543C7.729 13.502 5.91611 12.9267 4.48936 14.8707L4.43046 14.9501L14.0839 22.2036L14.2999 21.9127Z" fill="white"/>
<path d="M26.2991 8.20586L28.2756 13.2443L18.4912 17.1522L18.452 17.0464L19.041 15.7438L15.16 5.81886L13.851 5.27666L13.8118 5.17087L23.4914 1.30273L25.4679 6.34784L25.3632 6.38751L23.7728 5.23699C21.1811 3.293 20.5463 2.84999 18.4847 3.67651L18.308 3.74924L20.4481 9.21752L20.6248 9.14479C21.5738 8.7679 22.1497 8.20586 22.4246 5.59404L22.5293 5.55437L24.5647 10.7582L24.46 10.7978C22.5621 9.21752 21.6916 9.07206 20.7426 9.44895L20.5659 9.52169L22.7453 15.0958L23.0267 14.9834C25.0818 14.1634 25.2519 13.3964 25.8213 10.1895C25.926 9.63409 26.0438 8.99271 26.2009 8.25214L26.2991 8.20586Z" fill="white"/>
<path d="M36.3618 7.79103C40.1447 8.10841 41.0413 9.74824 40.7402 11.3814C40.413 13.1866 38.0831 14.7867 33.9795 14.0263L28.554 13.0213L28.5736 12.9089L29.7516 12.122L31.6627 1.62847L30.8381 0.45811L30.8577 0.345703L36.6367 1.41688C40.3344 2.10455 41.506 3.46666 41.2049 5.1197C40.8907 6.84548 39.2022 7.7778 36.4011 7.6654L36.3618 7.79103ZM36.7872 11.031C37.193 8.79608 36.4469 7.92327 34.9089 7.63234L34.2937 7.51993L33.2007 13.5304C33.3447 13.5767 33.3774 13.6031 33.7897 13.656C35.439 13.9073 36.4011 13.1535 36.7872 11.031ZM35.3866 1.51606L34.3526 7.18271L34.9089 7.2885C36.5843 7.57944 37.1472 6.6934 37.481 4.85522C37.7493 3.39392 37.8344 1.9723 35.9757 1.62847L35.3866 1.51606Z" fill="white"/>
<path d="M48.4107 21.8757L48.4499 23.2907L48.3714 23.37L44.9943 20.097L46.4473 18.5696C43.9472 18.5564 42.9196 18.477 42.5531 18.12C41.0282 16.6388 40.8712 14.8205 42.756 12.8368L48.3321 6.99826L48.2929 5.58325L48.3714 5.50391L51.7485 8.78355L45.8844 14.9527C44.8372 16.057 44.4577 17.0091 45.2168 17.7497C45.6684 18.1861 46.2051 18.2853 46.7745 18.2324L53.0836 11.6268L53.0247 10.1986L53.1032 10.1192L56.4934 13.4121L48.4107 21.8757Z" fill="white"/>
<path d="M55.794 32.1953L50.5844 33.478L48.0909 23.1498L48.2021 23.1233L49.3998 23.8903L59.6619 21.3645L60.3753 20.128L60.4866 20.1016L62.9539 30.3174L57.7378 31.6002L57.7116 31.4878L59.0598 30.0529C61.3178 27.7254 61.8413 27.1502 61.3178 24.9814L61.2719 24.7962L55.6173 26.1914L55.6631 26.3765C55.9053 27.375 56.3765 28.0296 58.8962 28.6643L58.9224 28.7768L53.5426 30.0992L53.5165 29.9868C55.3293 28.3007 55.5911 27.4543 55.349 26.4493L55.3032 26.2641L49.5373 27.6857L49.6093 27.9833C50.1328 30.1521 50.8593 30.4232 53.9222 31.4415C54.4523 31.6266 55.0676 31.825 55.7678 32.0895L55.794 32.1953Z" fill="white"/>
<path d="M60.8214 44.1555L59.4601 48.2816L47.3262 44.2018L48.3341 41.1404L59.8397 38.4294L59.8725 38.3368L58.6879 37.9401C55.265 36.7896 52.117 37.464 49.2177 38.9584L49.1129 38.9253L50.4939 34.7266L60.6055 38.1252L62.9092 37.5301L63.0008 37.5632L61.5806 41.8743L50.0816 44.5655L50.0423 44.6713L51.1025 45.0284C54.1655 46.0599 57.9025 45.4846 60.7167 44.1159L60.8214 44.1555Z" fill="white"/>
<path d="M49.8525 59.1508L38.4778 52.089L38.4058 52.0031L42.3523 48.7036L42.4243 48.7895L42.3065 50.1781L45.2974 52.0361L47.6862 50.0392C46.5147 48.6639 45.16 47.7646 43.8903 47.5597L43.8183 47.4737L47.5423 44.3594L47.6142 44.4453L50.6903 55.2959L52.7715 56.5522L52.8435 56.6382L49.8525 59.1508ZM45.605 52.2279L50.1601 55.0645L50.2452 54.9918L49.8002 53.7553C49.3159 52.4461 48.6483 51.2757 47.9088 50.3103L45.605 52.2279Z" fill="white"/>
<path d="M27.3227 65.8922L27.9444 64.8343L26.8057 53.1108L31.4851 52.6546L31.4982 52.767L30.5754 53.8514L31.4524 62.8175L31.5637 62.8043L33.959 54.6912L34.1685 54.6713L38.6058 61.9447L38.6974 61.9381L38.5731 60.6686C38.1804 56.5822 36.7209 54.1754 34.2012 52.4827L34.1947 52.3901L38.1607 52L39.1948 62.8109L40.4318 64.6094L40.4449 64.7219L36.3871 65.1583L33.1017 59.6106L33.0101 59.6172L31.2692 65.6145L27.3423 65.998L27.3227 65.8922Z" fill="white"/>
<path d="M13.989 60.8123L16.2535 47.5152L16.3058 47.416L20.8021 49.889L20.7497 49.9882L19.4342 50.3915L18.8387 53.8893L21.5613 55.3837C22.3859 53.7703 22.7131 52.1702 22.4252 50.9073L22.4775 50.8081L26.725 53.1488L26.6727 53.248L17.8373 60.1775L17.4577 62.5976L17.4054 62.6968L13.989 60.8123ZM18.7732 54.253L17.8635 59.5758L17.9617 59.6287L18.9303 58.7493C19.9513 57.8104 20.7824 56.7458 21.3976 55.6945L18.7732 54.253Z" fill="white"/>
<path d="M2.65049 48.7863L0.484192 45.024L11.5317 38.5176L13.1417 41.3013L7.55249 51.8147L7.5983 51.894L8.67818 51.2593C11.7935 49.4211 13.3773 46.5911 14.1823 43.404L14.2805 43.3445L16.486 47.1729L7.27761 52.5949L6.19773 54.7439L6.11919 54.7902L3.85472 50.8625L9.457 40.3624L9.3981 40.2632L8.43602 40.8318C5.64797 42.4717 3.60602 45.6852 2.75521 48.7268L2.65049 48.7863Z" fill="white"/>
</svg>
