<svg width="120" height="120" viewBox="0 0 120 120" fill="none" xmlns="http://www.w3.org/2000/svg">
<path d="M120 60C120 93.1371 93.1371 120 60 120C26.8629 120 0 93.1371 0 60C0 26.8629 26.8629 0 60 0C93.1371 0 120 26.8629 120 60Z" fill="white"/>
<path d="M34.6198 30.2853C38.1702 32.9538 41.1178 38.0202 36.3998 44.4208L32.2464 50.0673L32.1124 49.9706L31.854 47.8918L19.461 38.581L17.4226 38.9194L17.2886 38.8227L21.4132 33.2245C25.4517 27.7328 29.8539 26.6982 34.6198 30.2853ZM36.2275 43.7247C38.0554 41.2398 36.8209 39.0934 31.5861 35.1583C26.6193 31.4262 23.9684 30.585 21.8822 33.4276L21.796 33.5436L35.9117 44.1501L36.2275 43.7247Z" fill="#1B1F22"/>
<path d="M53.5485 23.4944L56.4387 30.8619L42.1316 36.5761L42.0742 36.4214L42.9355 34.5166L37.2605 20.0041L35.3465 19.2112L35.2891 19.0565L49.443 13.4004L52.3332 20.7775L52.18 20.8356L49.8545 19.1532C46.0648 16.3106 45.1365 15.6628 42.122 16.8714L41.8636 16.9778L44.993 24.9737L45.2514 24.8674C46.639 24.3163 47.4812 23.4944 47.8831 19.6753L48.0362 19.6173L51.0125 27.2265L50.8594 27.2845C48.0841 24.9737 46.8113 24.761 45.4236 25.3121L45.1653 25.4185L48.352 33.5691L48.7636 33.4048C51.7685 32.2058 52.0173 31.0843 52.8499 26.395C53.003 25.5828 53.1753 24.645 53.405 23.5621L53.5485 23.4944Z" fill="#1B1F22"/>
<path d="M68.2671 22.8869C73.7985 23.351 75.1096 25.7488 74.6694 28.1369C74.1909 30.7765 70.784 33.1163 64.7836 32.0044L56.8501 30.5347L56.8788 30.3704L58.6014 29.2198L61.3958 13.8757L60.19 12.1644L60.2187 12L68.669 13.5663C74.076 14.5719 75.789 16.5636 75.3488 18.9807C74.8895 21.5042 72.4204 22.8675 68.3245 22.7032L68.2671 22.8869ZM68.8891 27.6245C69.4824 24.3565 68.3915 23.0802 66.1425 22.6548L65.243 22.4904L63.6448 31.2792C63.8553 31.3469 63.9032 31.3856 64.5061 31.4629C66.9177 31.8303 68.3245 30.7281 68.8891 27.6245ZM66.8411 13.7113L65.3291 21.9973L66.1425 22.152C68.5924 22.5775 69.4155 21.2819 69.9035 18.594C70.2959 16.4572 70.4203 14.3785 67.7024 13.8757L66.8411 13.7113Z" fill="#1B1F22"/>
<path d="M85.8857 43.4825L85.9431 45.5515L85.8283 45.6676L80.8902 40.8816L83.0147 38.6482C79.359 38.6288 77.8565 38.5128 77.3206 37.9907C75.0908 35.8249 74.8611 33.166 77.6173 30.2655L85.7709 21.7281L85.7135 19.659L85.8283 19.543L90.7664 24.3386L82.1917 33.3594C80.6605 34.9741 80.1055 36.3664 81.2156 37.4492C81.8759 38.0874 82.6606 38.2324 83.4932 38.1551L92.7187 28.4961L92.6325 26.4077L92.7474 26.2917L97.7046 31.1066L85.8857 43.4825Z" fill="#1B1F22"/>
<path d="M96.6803 58.5726L89.0627 60.4483L85.4165 45.3459L85.5792 45.3072L87.3305 46.4288L102.336 42.7354L103.379 40.9273L103.542 40.8887L107.15 55.8267L99.5226 57.7024L99.4843 57.538L101.456 55.4399C104.757 52.0366 105.523 51.1954 104.757 48.0241L104.69 47.7534L96.422 49.7935L96.4889 50.0642C96.843 51.5241 97.5321 52.4813 101.217 53.4095L101.255 53.5739L93.3883 55.5076L93.35 55.3433C96.0009 52.8778 96.3837 51.6402 96.0296 50.1705L95.9626 49.8998L87.5315 51.9786L87.6367 52.4137C88.4023 55.585 89.4646 55.9814 93.9433 57.4703C94.7185 57.7411 95.6181 58.0311 96.6421 58.4179L96.6803 58.5726Z" fill="#1B1F22"/>
<path d="M104.03 76.0648L102.04 82.098L84.2969 76.1325L85.7707 71.6559L102.595 67.6918L102.642 67.5564L100.91 66.9763C95.9052 65.294 91.3021 66.2802 87.0626 68.4653L86.9095 68.4169L88.9287 62.2773L103.714 67.247L107.083 66.3768L107.217 66.4252L105.14 72.7291L88.3258 76.6642L88.2684 76.8189L89.8187 77.341C94.2975 78.8493 99.7619 78.0082 103.877 76.0068L104.03 76.0648Z" fill="#1B1F22"/>
<path d="M87.9908 97.9842L71.3582 87.6581L71.2529 87.5324L77.0236 82.7077L77.1289 82.8334L76.9566 84.8638L81.3301 87.5807L84.8231 84.6608C83.1101 82.6497 81.1291 81.3348 79.2726 81.0351L79.1673 80.9094L84.6126 76.3555L84.7179 76.4812L89.2157 92.3474L92.259 94.1844L92.3643 94.3101L87.9908 97.9842ZM81.7799 87.8611L88.4406 92.009L88.565 91.9026L87.9142 90.0946C87.206 88.1802 86.2299 86.4688 85.1485 85.0572L81.7799 87.8611Z" fill="#1B1F22"/>
<path d="M55.0514 107.847L55.9606 106.3L54.2954 89.1575L61.1379 88.4904L61.1571 88.6548L59.8077 90.2404L61.0901 103.351L61.2528 103.332L64.7554 91.4683L65.0616 91.4393L71.55 102.075L71.684 102.065L71.5022 100.209C70.928 94.2336 68.7939 90.7142 65.1095 88.239L65.0999 88.1037L70.8993 87.5332L72.4113 103.341L74.2201 105.971L74.2392 106.136L68.3058 106.774L63.5017 98.6618L63.3677 98.6714L60.8221 107.441L55.0801 108.002L55.0514 107.847Z" fill="#728C54"/>
<path d="M35.5571 100.421L38.8683 80.9771L38.9449 80.832L45.5195 84.4481L45.4429 84.5931L43.5193 85.1829L42.6485 90.2976L46.6296 92.4827C47.8354 90.1236 48.3139 87.7838 47.8928 85.9371L47.9694 85.792L54.1803 89.2147L54.1037 89.3598L41.1843 99.4925L40.6292 103.031L40.5526 103.176L35.5571 100.421ZM42.5528 90.8294L41.2225 98.6126L41.3661 98.69L42.7824 97.404C44.2754 96.0311 45.4907 94.4744 46.3903 92.9371L42.5528 90.8294Z" fill="#728C54"/>
<path d="M18.9723 82.8318L15.8047 77.3303L31.9588 67.8164L34.313 71.8869L26.1402 87.26L26.2072 87.376L27.7863 86.4478C32.3416 83.76 34.6575 79.6218 35.8346 74.9615L35.9782 74.8745L39.2032 80.4726L25.7383 88.4009L24.1593 91.5432L24.0444 91.6109L20.7332 85.8677L28.9251 70.514L28.839 70.3689L27.4322 71.2004C23.3554 73.5982 20.3696 78.2972 19.1255 82.7447L18.9723 82.8318Z" fill="#728C54"/>
<path d="M22.3549 68.2259C14.0944 67.8604 12.7258 60.1864 12.7845 58.9321C12.9995 53.8654 17.5648 50.2407 23.0588 50.4778C31.3193 50.8432 32.6879 58.5173 32.6292 59.7419C32.4141 64.8975 27.8587 68.4629 22.3549 68.2259ZM21.5044 56.5716C16.4895 58.3494 13.8696 60.6012 14.3095 62.3889C14.7298 63.8901 17.731 64.3049 23.0881 62.5172C28.4452 60.7296 31.6028 58.2407 31.1237 56.3346C30.6741 54.7741 27.0668 54.5864 21.5044 56.5716Z" fill="#728C54"/>
</svg>
