<svg width="1004" height="890" viewBox="0 0 1004 890" fill="none" xmlns="http://www.w3.org/2000/svg">
<path d="M142.617 408.063C138.417 405.563 133.317 406.963 129.017 408.363C124.217 409.963 119.717 412.163 115.417 414.763C115.517 408.463 114.917 402.163 113.517 396.063C112.717 392.563 111.617 389.063 110.417 385.663C109.217 382.463 107.917 379.063 105.717 376.363C101.317 370.963 94.4172 371.863 89.3172 375.663C84.2172 379.463 81.0172 385.263 78.5172 390.963C76.2172 396.163 74.2172 401.563 71.4172 406.563C69.3172 397.963 63.1172 390.463 54.9172 386.863C50.1172 384.763 44.4172 384.063 39.4172 385.963C34.1172 387.963 31.2172 392.863 29.7172 397.963C27.7172 404.363 26.3172 411.063 24.8172 417.563C20.9172 413.863 15.9172 411.063 10.4172 412.763C4.3172 414.663 1.2172 420.863 0.417198 426.863C-0.382802 433.163 -0.182808 440.563 5.31719 444.663C11.0172 448.963 18.8172 448.263 25.6172 448.463C33.5172 448.663 41.4172 448.763 49.2172 448.963C53.0172 449.063 56.9172 448.963 60.8172 449.363C64.4172 449.663 67.9172 450.063 71.5172 449.863C75.3172 449.563 79.0172 449.763 82.8172 449.963C86.5172 450.163 90.1172 450.063 93.8172 449.863C98.7172 449.663 103.717 450.763 108.717 451.063C114.317 451.363 119.917 451.363 125.617 451.063C127.817 450.963 130.117 450.763 132.317 450.463C133.717 450.263 135.317 449.963 136.517 449.263C136.817 449.163 137.117 448.963 137.317 448.663C143.117 440.463 145.217 430.063 146.517 420.263C147.017 415.863 146.917 410.663 142.617 408.063ZM142.617 423.363C142.217 426.063 141.717 428.763 141.017 431.463C139.717 436.763 137.817 441.963 134.717 446.463C132.517 447.563 129.417 447.563 127.017 447.763C122.617 448.063 118.217 448.163 113.817 448.063C109.717 447.963 105.517 447.763 101.417 447.263C98.7172 446.963 96.2172 446.663 93.5172 446.763C90.1172 446.863 86.8172 446.963 83.5172 446.863C80.1172 446.663 76.7172 446.463 73.3172 446.663C69.9172 446.763 66.7172 446.863 63.3172 446.463C56.3172 445.763 49.3172 445.863 42.3172 445.763C35.2172 445.663 28.1172 445.463 21.0172 445.363C15.3172 445.263 7.41719 445.063 4.61719 439.063C3.21719 435.963 3.4172 431.863 3.7172 428.563C4.1172 425.063 5.11719 421.463 7.61719 418.863C9.81719 416.563 12.9172 415.463 16.0172 416.363C19.4172 417.263 22.2172 419.863 24.4172 422.463C25.1172 423.363 27.0172 423.263 27.3172 421.963C28.8172 415.963 30.2172 409.863 31.7172 403.863C32.8172 399.163 34.1172 393.763 38.2172 390.763C42.1172 387.963 47.5172 388.163 51.9172 389.663C56.3172 391.163 60.2172 394.063 63.1172 397.663C66.4172 401.763 68.4172 406.663 68.8172 411.963C68.9172 413.463 71.0172 413.763 71.8172 412.663C78.4172 403.363 80.2172 391.463 87.4172 382.663C90.6172 378.663 97.3172 373.463 102.217 378.063C104.417 380.063 105.517 383.163 106.617 385.863C107.917 389.063 109.017 392.263 109.817 395.663C111.617 403.063 112.317 410.663 111.817 418.263C111.717 419.763 113.417 420.563 114.617 419.663C119.517 416.263 141.817 403.163 143.217 415.763C143.617 417.963 143.017 420.763 142.617 423.363Z" fill="#C0C6B9"/>
<path d="M861.204 766.209C865.404 763.709 870.504 765.109 874.804 766.509C879.604 768.109 884.104 770.309 888.404 772.909C888.304 766.609 888.904 760.309 890.304 754.209C891.104 750.709 892.204 747.209 893.404 743.809C894.604 740.609 895.904 737.209 898.104 734.509C902.504 729.109 909.404 730.009 914.504 733.809C919.604 737.609 922.804 743.409 925.304 749.109C927.604 754.309 929.604 759.709 932.404 764.709C934.504 756.109 940.704 748.609 948.904 745.009C953.704 742.909 959.404 742.209 964.404 744.109C969.704 746.109 972.604 751.009 974.104 756.109C976.104 762.509 977.504 769.209 979.004 775.709C982.904 772.009 987.904 769.209 993.404 770.909C999.504 772.809 1002.6 779.009 1003.4 785.009C1004.2 791.309 1004 798.709 998.504 802.809C992.804 807.109 985.004 806.409 978.204 806.609C970.304 806.809 962.404 806.909 954.604 807.109C950.804 807.209 946.904 807.109 943.004 807.509C939.404 807.809 935.904 808.209 932.304 808.009C928.504 807.709 924.804 807.909 921.004 808.109C917.304 808.309 913.704 808.209 910.004 808.009C905.104 807.809 900.104 808.909 895.104 809.209C889.504 809.509 883.904 809.509 878.204 809.209C876.004 809.109 873.704 808.909 871.504 808.609C870.104 808.409 868.504 808.109 867.304 807.409C867.004 807.309 866.704 807.109 866.504 806.809C860.704 798.609 858.604 788.209 857.304 778.409C856.804 774.009 856.904 768.809 861.204 766.209ZM861.204 781.509C861.604 784.209 862.104 786.909 862.804 789.609C864.104 794.909 866.004 800.109 869.104 804.609C871.304 805.709 874.404 805.709 876.804 805.909C881.204 806.209 885.604 806.309 890.004 806.209C894.104 806.109 898.304 805.909 902.404 805.409C905.104 805.109 907.604 804.809 910.304 804.909C913.704 805.009 917.004 805.109 920.304 805.009C923.704 804.809 927.104 804.609 930.504 804.809C933.904 804.909 937.104 805.009 940.504 804.609C947.504 803.909 954.504 804.009 961.504 803.909C968.604 803.809 975.704 803.609 982.804 803.509C988.504 803.409 996.404 803.209 999.204 797.209C1000.6 794.109 1000.4 790.009 1000.1 786.709C999.704 783.209 998.704 779.609 996.204 777.009C994.004 774.709 990.904 773.609 987.804 774.509C984.404 775.409 981.604 778.009 979.404 780.609C978.704 781.509 976.804 781.409 976.504 780.109C975.004 774.109 973.604 768.009 972.104 762.009C971.004 757.309 969.704 751.909 965.604 748.909C961.704 746.109 956.304 746.309 951.904 747.809C947.504 749.309 943.604 752.209 940.704 755.809C937.404 759.909 935.404 764.809 935.004 770.109C934.904 771.609 932.804 771.909 932.004 770.809C925.404 761.509 923.604 749.609 916.404 740.809C913.204 736.809 906.504 731.609 901.604 736.209C899.404 738.209 898.304 741.309 897.204 744.009C895.904 747.209 894.804 750.409 894.004 753.809C892.204 761.209 891.504 768.809 892.004 776.409C892.104 777.909 890.404 778.709 889.204 777.809C884.304 774.409 862.004 761.309 860.604 773.909C860.204 776.109 860.804 778.909 861.204 781.509Z" fill="#C0C6B9"/>
<path d="M214.954 737.733C216.054 737.033 215.954 735.133 214.554 734.833C210.554 734.133 207.854 730.433 208.254 726.433C208.354 725.433 207.654 724.933 206.854 724.933C206.054 724.533 204.954 724.733 204.754 725.833C203.954 730.633 200.754 734.833 196.154 736.533C194.754 737.033 194.554 739.133 196.154 739.533C201.954 741.133 204.654 746.733 205.554 752.233C205.654 753.033 206.554 753.433 207.254 753.333C208.054 753.233 208.554 752.533 208.654 751.833C209.254 746.833 210.154 740.633 214.954 737.733Z" fill="#C0C6B9"/>
<path d="M256.454 767.433C251.954 765.733 249.254 760.833 249.854 756.133C249.954 754.933 248.954 754.533 248.054 754.633C247.254 754.233 246.154 754.433 245.854 755.533C244.654 760.633 241.654 765.033 237.254 767.833C236.154 768.533 236.254 770.433 237.654 770.733C243.754 772.133 245.854 778.533 245.454 784.133C245.354 785.933 248.154 786.333 248.554 784.533C249.654 779.033 251.154 772.733 256.754 770.233C258.254 769.733 257.554 767.933 256.454 767.433Z" fill="#C0C6B9"/>
<path d="M729.957 31.3124C728.857 30.6124 728.957 28.7124 730.357 28.4124C734.357 27.7124 737.057 24.0124 736.657 20.0124C736.557 19.0124 737.257 18.5124 738.057 18.5124C738.857 18.1124 739.957 18.3123 740.157 19.4123C740.957 24.2123 744.157 28.4123 748.757 30.1123C750.157 30.6123 750.357 32.7123 748.757 33.1123C742.957 34.7123 740.257 40.3124 739.357 45.8124C739.257 46.6124 738.357 47.0124 737.657 46.9124C736.857 46.8124 736.357 46.1124 736.257 45.4124C735.657 40.4124 734.757 34.2124 729.957 31.3124Z" fill="#C0C6B9"/>
<path d="M688.457 61.0125C692.957 59.3125 695.657 54.4125 695.057 49.7125C694.957 48.5125 695.957 48.1125 696.857 48.2125C697.657 47.8125 698.757 48.0125 699.057 49.1125C700.257 54.2125 703.257 58.6126 707.657 61.4126C708.757 62.1126 708.657 64.0126 707.257 64.3126C701.157 65.7126 699.057 72.1125 699.457 77.7125C699.557 79.5125 696.757 79.9125 696.357 78.1125C695.257 72.6125 693.757 66.3126 688.157 63.8126C686.657 63.3126 687.357 61.5125 688.457 61.0125Z" fill="#C0C6B9"/>
<path d="M307.721 68.1587C304.524 62.6183 300.475 57.504 296.355 52.6028C288.187 42.9424 278.171 34.5607 266.096 30.3698C264.533 29.8015 262.899 29.3753 261.337 29.0202C261.124 28.8071 260.839 28.665 260.484 28.594C259.348 28.3809 258.211 28.3099 257.075 28.2388H257.004C256.862 28.2388 256.72 28.2388 256.578 28.2388C251.179 27.9547 245.781 29.1622 240.595 30.796C235.126 32.5007 229.799 34.7738 224.826 37.615C214.74 43.4397 206.429 51.8924 201.954 62.6893C197.195 73.9834 196.769 86.627 198.544 98.7025C199.468 105.024 200.96 111.559 204.085 117.171C206.997 122.356 211.259 126.902 215.876 130.596C233.208 144.447 257.927 147.999 278.171 138.693C297.918 129.601 312.551 108.647 312.764 86.6981C312.906 79.95 311.059 73.8413 307.721 68.1587ZM283.783 131.306C266.38 142.813 243.437 142.813 225.395 132.514C215.592 126.902 207.21 118.378 204.085 107.297C201.031 96.4294 200.107 84.354 202.451 73.202C204.724 62.2631 210.478 52.7448 219.215 45.7127C227.739 38.8226 238.749 33.9924 249.545 32.1456C251.747 31.7904 254.091 31.5773 256.293 31.7194C268.014 33.4952 278.455 39.746 286.908 47.9147C291.241 52.1055 295.148 56.7226 298.771 61.6238C302.251 66.3119 305.874 71.2842 307.721 76.9667C311.059 87.4794 308.147 99.839 303.246 109.428C298.842 118.165 292.093 125.837 283.783 131.306Z" fill="#C0C6B9"/>
<path d="M301.612 42.5874C301.754 42.9426 302.038 43.2267 302.322 43.4398C304.24 44.7894 306.3 42.8715 307.578 41.664C308.857 40.5275 310.064 39.2489 311.13 37.8993C312.266 36.5497 313.261 35.058 314.184 33.5664C315.179 31.9326 316.031 29.8017 314.895 28.0259C314.326 27.1735 313.261 26.8183 312.408 27.3866C307.223 30.512 303.316 35.2001 301.043 40.8116C300.83 41.4509 301.114 42.1612 301.612 42.5874Z" fill="#C0C6B9"/>
<path d="M270.571 21.0652C270.713 21.1362 270.855 21.1362 270.997 21.1362C271.778 21.7755 273.128 21.9176 273.838 20.7811C277.035 15.8088 278.455 9.98422 279.947 4.30167C280.302 3.0231 280.302 1.53143 279.095 0.679047C277.603 -0.386431 275.969 0.536981 275.117 1.88659C273.625 4.23064 272.489 6.92985 271.494 9.55803C270.358 12.5414 269.647 15.6668 269.221 18.8632C269.15 19.7866 269.505 20.7811 270.571 21.0652ZM276.538 3.09413C276.609 2.95207 276.538 2.95207 276.538 3.09413Z" fill="#C0C6B9"/>
<path d="M228.449 23.2664C229.799 22.1299 229.941 20.4252 229.372 18.7914C228.733 16.8736 228.023 14.9557 227.241 13.0378C226.46 11.12 225.679 9.27315 224.826 7.42633C224.4 6.57394 224.116 5.5795 223.406 4.94021C222.482 4.01679 221.417 3.87473 220.28 4.44298C219.783 4.65608 219.286 5.43743 219.357 6.00569C220.209 12.1855 222.127 18.0811 225.252 23.4795C226.034 24.8291 227.881 24.3319 228.449 23.2664Z" fill="#C0C6B9"/>
<path d="M342.739 77.0373C341.034 76.3981 338.761 76.6822 336.986 76.7532C332.226 76.9663 327.538 77.9608 323.063 79.7366C322.14 80.0917 321.501 80.9441 321.785 82.0096C321.856 82.3647 322.069 82.6489 322.353 82.862C322.282 83.5012 322.495 84.2116 322.992 84.6378C323.845 85.4191 325.265 85.4901 326.331 85.6322C328.391 85.9163 330.451 85.7743 332.582 85.4901C334.642 85.206 336.701 84.6378 338.69 84.0695C340.537 83.5012 342.881 83.075 344.302 81.6544C345.936 80.0207 344.657 77.7477 342.739 77.0373ZM337.696 80.3758C337.838 80.3758 337.98 80.3758 338.122 80.3758C337.625 80.5179 337.199 80.66 336.701 80.802C336.701 80.66 336.701 80.5889 336.701 80.4469C337.057 80.4469 337.412 80.3758 337.696 80.3758Z" fill="#C0C6B9"/>
<path d="M184.977 50.615C187.25 52.888 190.092 54.3797 193.288 54.8769C193.856 54.948 194.638 54.4507 194.851 53.9535C194.993 53.6694 195.064 53.3853 195.135 53.1011C195.348 53.0301 195.561 52.888 195.703 52.746C196.485 51.9646 196.342 50.8992 195.703 50.1178C193.998 47.9868 192.294 45.7849 190.376 43.796C189.452 42.8015 188.387 41.8071 187.321 40.9547C186.256 40.1023 185.119 39.1079 183.912 38.4686C182.42 37.6872 180.431 37.6162 179.437 39.2499C178.585 40.6706 179.224 42.2333 179.934 43.5118C181.426 46.069 182.988 48.5551 184.977 50.615ZM181.923 41.594C181.852 41.665 181.639 41.5229 181.923 41.594Z" fill="#C0C6B9"/>
<path d="M188.529 91.8123C188.245 90.7469 187.25 90.3917 186.256 90.5338C182.278 91.2441 178.3 91.9544 174.536 93.375C172.689 94.0853 170.487 94.9377 169.066 96.2873C168.285 96.9977 167.717 98.2052 168.072 99.2707C168.427 100.478 169.492 100.975 170.558 101.331C174.536 102.68 179.295 100.975 182.988 99.4127C183.912 99.0576 184.764 98.6314 185.688 98.1342C186.611 97.637 187.677 97.1397 188.387 96.4294C189.594 95.2219 189.594 93.304 188.6 92.1675C188.6 92.0254 188.529 91.9544 188.529 91.8123ZM171.339 97.779C171.268 97.708 171.197 97.708 171.339 97.779ZM173.044 98.1342C173.328 97.9921 173.541 97.85 173.825 97.779C173.825 97.9211 173.825 98.0631 173.896 98.2052C173.612 98.1342 173.328 98.1342 173.044 98.1342Z" fill="#C0C6B9"/>
<path d="M205.222 132.869C204.795 132.869 204.369 133.011 204.014 133.153C203.659 133.011 203.304 133.011 202.948 133.153C199.823 134.431 196.698 136.136 194.638 138.764C193.501 140.185 192.436 141.89 192.365 143.737C192.294 144.873 192.862 146.081 193.856 146.649C194.851 147.217 196.058 147.075 197.053 146.649C200.32 145.299 203.304 143.097 205.506 140.327C206.074 139.617 206.642 138.835 207.139 138.054C207.779 137.06 208.347 135.994 207.992 134.787C207.637 133.579 206.358 132.798 205.222 132.869Z" fill="#C0C6B9"/>
<path d="M246.42 152.19C246.278 152.048 246.065 151.977 245.852 151.906C244.857 151.622 243.934 152.261 243.579 153.185C242.3 156.878 241.661 160.856 241.803 164.834C241.803 165.686 241.874 166.61 242.016 167.462C242.158 168.456 242.229 169.451 242.868 170.303C244.218 172.079 246.491 171.085 247.769 169.735C250.185 167.32 250.398 163.484 250.753 160.288C250.895 158.512 251.321 156.452 250.682 154.747C250.043 153.114 248.267 151.764 246.42 152.19Z" fill="#C0C6B9"/>
<path d="M288.542 160.998C288.187 158.867 287.547 156.807 286.695 154.818C285.843 152.829 284.919 150.698 283.001 149.491C281.155 148.354 277.816 148.212 277.248 150.911V150.983C276.822 151.409 276.609 151.977 276.822 152.687C277.106 153.824 277.39 155.031 277.674 156.168C277.816 156.807 277.958 157.375 278.1 158.015C278.1 158.086 278.171 158.157 278.171 158.228C278.313 158.654 278.384 159.08 278.526 159.577C279.095 161.779 279.592 163.981 280.302 166.112C280.942 168.03 282.078 169.806 284.138 170.374C286.127 170.871 288.329 169.877 288.897 167.817C289.181 166.823 289.039 165.686 289.039 164.692C288.897 163.342 288.755 162.206 288.542 160.998ZM285.203 166.681C284.99 166.681 284.99 166.681 284.848 166.61C284.493 166.467 284.28 166.041 284.067 165.615C284.493 165.686 284.919 165.615 285.345 165.473C285.345 165.544 285.345 165.544 285.345 165.615C285.345 165.757 285.203 166.467 285.345 166.61C285.345 166.61 285.345 166.61 285.345 166.681C285.274 166.681 285.203 166.681 285.203 166.681ZM285.345 166.681C285.416 166.681 285.416 166.681 285.345 166.681ZM285.345 166.681C285.416 166.681 285.416 166.681 285.345 166.681C285.559 166.681 285.416 166.61 285.345 166.681Z" fill="#C0C6B9"/>
<path d="M320.719 131.235C319.654 130.383 318.517 129.531 317.381 128.749C314.966 127.115 312.266 125.695 309.354 125.056C308.147 124.771 306.513 125.908 307.081 127.329C307.578 128.607 308.289 129.815 309.07 130.88C310.065 132.727 311.343 134.503 312.835 136.065C314.682 137.983 317.097 139.617 319.796 139.759C321.145 139.83 322.566 139.404 323.49 138.339C324.555 137.06 324.484 135.284 323.632 133.935C322.85 132.869 321.785 132.088 320.719 131.235ZM314.539 131.448C314.397 131.306 314.184 131.164 314.042 131.022C313.971 130.951 313.829 130.88 313.758 130.738C314.042 130.88 314.326 131.093 314.611 131.235C314.54 131.377 314.539 131.448 314.539 131.448Z" fill="#C0C6B9"/>
<path d="M228.165 79.5954C223.548 78.3878 218.86 80.7319 217.013 85.0648C215.805 87.8351 214.811 91.0315 215.379 94.0859C215.521 95.0803 216.729 95.5775 217.652 95.3644C218.718 95.0803 219.073 94.0859 218.931 93.0914C218.718 91.8128 219.144 90.4632 219.499 89.2557C219.854 88.0482 220.209 86.7696 220.849 85.7041C221.772 84.1414 223.406 83.147 225.039 83.0049C226.957 82.7918 228.591 83.36 229.941 84.8517C231.432 86.4855 232.001 88.8295 232.356 90.9605C232.569 91.9549 233.705 92.4521 234.629 92.239C235.623 91.9549 236.12 90.9605 235.907 89.966C235.055 85.562 232.853 80.8029 228.165 79.5954Z" fill="#C0C6B9"/>
<path d="M293.514 78.2454C291.809 75.9014 289.252 74.1966 286.34 73.9125C279.308 73.2732 277.035 81.6549 275.969 86.9823C275.756 87.9768 276.253 88.9712 277.248 89.2554C278.171 89.5395 279.308 88.9712 279.521 87.9768C280.089 85.4196 280.586 82.7204 281.936 80.4474C282.93 78.7426 284.351 77.322 286.411 77.6061C291.17 78.2454 292.378 84.07 293.23 87.9057C293.443 88.9002 294.58 89.4684 295.503 89.1843C296.497 88.9002 296.995 87.9057 296.782 86.9113C296.071 83.928 295.361 80.8026 293.514 78.2454Z" fill="#C0C6B9"/>
<path d="M264.533 90.1084C263.468 90.1084 262.757 90.9608 262.686 91.9552C262.473 94.8675 262.331 97.7798 262.118 100.692C261.905 103.036 261.55 105.593 259.632 107.227C255.725 110.637 251.96 104.031 250.824 100.976C249.758 98.2771 249.403 95.4358 249.616 92.5235C249.687 91.529 248.693 90.6767 247.77 90.6767C246.704 90.6767 245.994 91.529 245.923 92.5235C245.426 98.4902 247.556 105.38 252.031 109.5C254.376 111.631 257.43 112.554 260.413 111.063C263.255 109.642 264.817 106.659 265.385 103.675C266.096 99.8398 266.096 95.862 266.309 91.9552C266.451 90.9608 265.457 90.1084 264.533 90.1084Z" fill="#C0C6B9"/>
<path d="M489.85 886.792C492.932 888.961 496.757 890.845 500.296 889.246C502.18 888.39 503.55 886.62 504.52 884.851C505.719 882.682 506.575 880.284 507.374 877.944C507.774 876.745 508.174 875.546 508.63 874.29C508.859 873.605 509.201 871.721 510.172 871.721C511.142 871.721 511.77 873.263 512.17 873.948C512.797 875.089 513.425 876.231 514.053 877.373C515.366 879.599 516.793 881.825 518.278 883.938C519.533 885.764 521.018 887.648 523.244 888.276C528.096 889.646 530.208 883.709 531.521 880.284C532.32 878.229 533.119 876.117 534.318 874.233C535.289 872.749 536.887 870.751 538.885 870.865C539.798 871.779 540.426 873.263 540.94 874.29C542.082 876.631 543.28 878.971 544.65 881.14C545.906 883.081 547.333 885.365 549.331 886.563C549.788 886.849 550.359 887.02 550.93 887.134C552.699 887.762 554.469 886.906 555.382 885.308C556.41 883.538 556.467 881.426 556.695 879.485C556.981 876.802 557.323 874.119 557.609 871.436C557.723 870.523 557.723 869.438 556.924 868.81C556.41 868.411 555.668 868.296 555.097 868.639C554.64 868.468 554.126 868.696 554.184 869.267C554.355 871.664 554.583 874.119 554.355 876.574C554.241 877.829 554.012 879.085 553.556 880.284C553.213 881.197 552.756 882.225 551.957 882.853C551.615 883.081 551.329 883.252 551.044 883.252C550.53 883.024 550.016 882.682 549.617 882.339C549.388 882.168 549.217 881.94 549.046 881.768C548.703 881.14 548.418 880.455 548.19 879.999C547.219 877.658 546.078 875.432 544.765 873.32C542.995 870.409 539.399 864.129 535.117 866.983C533.291 868.182 532.263 870.409 531.35 872.349C530.265 874.576 529.409 876.916 528.381 879.2C527.582 880.912 526.498 883.595 524.386 884.109C523.244 884.394 522.388 883.538 521.703 882.739C521.018 881.94 520.447 881.14 519.876 880.227C517.707 876.745 516.394 872.749 513.996 869.381C513.425 868.582 512.797 867.783 512.112 867.098C511.37 866.356 510.514 865.556 509.487 865.328C507.089 864.871 505.719 867.269 505.377 869.267C504.92 871.836 504.52 874.404 503.892 876.916C503.379 878.914 502.808 880.912 501.666 882.625C500.524 884.337 498.812 885.479 496.7 885.308C494.416 885.136 492.304 883.652 490.649 882.168C489.735 881.312 488.879 880.455 488.137 879.485C487.395 878.572 486.767 877.544 485.968 876.631C484.769 875.204 482.828 874.233 481.173 875.489C480.488 876.003 480.088 876.745 480.26 877.601C480.488 878.629 481.458 879.485 482.2 880.227C483.342 881.426 484.541 882.51 485.74 883.538C487.053 884.794 488.365 885.878 489.85 886.792ZM509.715 870.351C509.601 870.351 509.544 870.409 509.43 870.466C509.544 870.351 509.658 870.237 509.772 870.18C509.943 870.237 510.057 870.294 510.229 870.351C510.057 870.294 509.886 870.294 509.715 870.351ZM516.165 876.574C515.766 875.946 515.366 875.261 514.967 874.633C515.081 874.69 515.252 874.69 515.366 874.633C515.88 875.603 516.337 876.631 516.85 877.601C516.622 877.259 516.394 876.916 516.165 876.574ZM486.653 882.453C487.452 883.138 488.308 883.823 489.222 884.451C489.222 884.508 489.222 884.508 489.222 884.565C488.423 883.995 487.623 883.367 486.881 882.739C486.824 882.625 486.71 882.51 486.653 882.453ZM521.36 885.479L521.417 885.536C522.958 886.678 524.956 887.02 526.612 886.107C526.669 886.107 526.726 886.107 526.783 886.05C526.326 886.449 525.813 886.792 525.185 886.906C523.701 887.305 522.445 886.506 521.36 885.479ZM550.873 885.593C551.158 885.707 551.501 885.764 551.843 885.764C551.672 885.764 551.501 885.821 551.329 885.821C551.215 885.764 551.158 885.764 551.044 885.707C550.987 885.65 550.93 885.593 550.873 885.593ZM555.611 870.066C555.668 870.009 555.725 870.009 555.725 869.952C556.01 869.609 556.181 870.466 556.181 870.637C556.181 871.208 556.067 871.836 556.01 872.406C555.953 873.034 555.896 873.662 555.782 874.233C555.839 872.863 555.725 871.436 555.611 870.066ZM555.325 879.257C555.268 880.056 555.154 880.798 555.04 881.54C554.926 881.426 554.811 881.426 554.64 881.369C554.926 880.741 555.154 879.999 555.325 879.257ZM540.426 869.495C540.027 869.267 539.627 869.096 539.17 868.981C538.942 868.924 538.771 868.867 538.542 868.81C538.714 868.639 538.828 868.354 538.771 868.125C539.399 868.468 539.912 868.924 540.426 869.495ZM537.058 867.783C536.659 867.897 536.316 868.068 535.917 868.239C536.259 868.011 536.659 867.84 537.058 867.783ZM531.464 875.603C531.692 875.603 531.864 875.489 531.978 875.261C532.092 875.089 532.206 874.918 532.32 874.747C532.035 875.318 531.749 875.832 531.521 876.402C531.407 876.745 531.236 877.03 531.121 877.373C531.007 877.316 530.893 877.316 530.722 877.316C530.779 877.202 530.836 877.087 530.893 876.973C531.064 876.517 531.293 876.06 531.464 875.603ZM511.941 869.039C511.827 868.981 511.77 868.924 511.656 868.867C511.656 868.753 511.599 868.696 511.599 868.582C511.77 868.753 511.827 868.924 511.941 869.039ZM509.087 866.755C509.487 866.812 509.829 866.983 510.229 867.269C509.715 866.983 509.087 866.869 508.516 866.983C508.459 866.983 508.402 866.926 508.288 866.926C508.573 866.755 508.802 866.698 509.087 866.755ZM506.747 869.838C506.804 869.838 506.861 869.838 506.975 869.838C507.089 869.838 507.26 869.838 507.374 869.838C507.26 870.066 507.089 870.351 506.975 870.637C506.861 870.694 506.804 870.865 506.747 870.979C506.747 871.151 506.689 871.322 506.632 871.436C506.518 871.836 506.404 872.292 506.29 872.692C506.29 872.635 506.29 872.578 506.347 872.521C506.461 871.664 506.575 870.751 506.747 869.838ZM485.511 878.286C485.283 878.115 485.055 878.001 484.883 877.829C484.37 877.43 483.856 877.087 483.285 876.745C483.057 876.631 482.885 876.574 482.714 876.631C482.6 876.574 482.429 876.574 482.315 876.574C483.513 875.889 484.655 877.087 485.511 878.286Z" fill="#C0C6B9"/>
<path d="M901.332 285.343C904.415 287.513 908.239 289.396 911.779 287.798C913.662 286.942 915.033 285.172 916.003 283.403C917.202 281.233 918.058 278.836 918.857 276.495C919.257 275.297 919.656 274.098 920.113 272.842C920.341 272.157 920.684 270.273 921.654 270.273C922.625 270.273 923.253 271.815 923.652 272.5C924.28 273.641 924.908 274.783 925.536 275.925C926.849 278.151 928.276 280.377 929.76 282.489C931.016 284.316 932.5 286.2 934.727 286.828C939.579 288.198 941.691 282.261 943.004 278.836C943.803 276.781 944.602 274.669 945.801 272.785C946.771 271.301 948.37 269.303 950.368 269.417C951.281 270.33 951.909 271.815 952.423 272.842C953.564 275.182 954.763 277.523 956.133 279.692C957.389 281.633 958.816 283.916 960.814 285.115C961.271 285.401 961.842 285.572 962.412 285.686C964.182 286.314 965.952 285.458 966.865 283.859C967.892 282.09 967.95 279.978 968.178 278.037C968.463 275.354 968.806 272.671 969.091 269.988C969.205 269.074 969.205 267.99 968.406 267.362C967.892 266.962 967.15 266.848 966.58 267.191C966.123 267.019 965.609 267.248 965.666 267.819C965.837 270.216 966.066 272.671 965.837 275.125C965.723 276.381 965.495 277.637 965.038 278.836C964.696 279.749 964.239 280.777 963.44 281.405C963.097 281.633 962.812 281.804 962.527 281.804C962.013 281.576 961.499 281.233 961.099 280.891C960.871 280.72 960.7 280.491 960.529 280.32C960.186 279.692 959.901 279.007 959.672 278.55C958.702 276.21 957.56 273.984 956.247 271.872C954.478 268.96 950.881 262.681 946.6 265.535C944.773 266.734 943.746 268.96 942.833 270.901C941.748 273.127 940.892 275.468 939.864 277.751C939.065 279.464 937.98 282.147 935.868 282.661C934.727 282.946 933.87 282.09 933.185 281.291C932.5 280.491 931.929 279.692 931.359 278.779C929.189 275.297 927.876 271.301 925.479 267.933C924.908 267.134 924.28 266.334 923.595 265.649C922.853 264.907 921.997 264.108 920.969 263.88C918.572 263.423 917.202 265.821 916.859 267.819C916.403 270.387 916.003 272.956 915.375 275.468C914.861 277.466 914.29 279.464 913.149 281.176C912.007 282.889 910.295 284.031 908.182 283.859C905.899 283.688 903.787 282.204 902.132 280.72C901.218 279.863 900.362 279.007 899.62 278.037C898.878 277.123 898.25 276.096 897.451 275.182C896.252 273.755 894.311 272.785 892.656 274.041C891.971 274.555 891.571 275.297 891.742 276.153C891.971 277.18 892.941 278.037 893.683 278.779C894.825 279.978 896.023 281.062 897.222 282.09C898.535 283.346 899.848 284.43 901.332 285.343ZM921.198 268.903C921.083 268.903 921.026 268.96 920.912 269.017C921.026 268.903 921.141 268.789 921.255 268.732C921.426 268.789 921.54 268.846 921.711 268.903C921.54 268.846 921.369 268.846 921.198 268.903ZM927.648 275.125C927.249 274.497 926.849 273.812 926.449 273.185C926.564 273.242 926.735 273.242 926.849 273.185C927.363 274.155 927.819 275.182 928.333 276.153C928.105 275.81 927.876 275.468 927.648 275.125ZM898.136 281.005C898.935 281.69 899.791 282.375 900.704 283.003C900.704 283.06 900.704 283.06 900.704 283.117C899.905 282.546 899.106 281.918 898.364 281.291C898.307 281.176 898.193 281.062 898.136 281.005ZM932.843 284.031L932.9 284.088C934.441 285.229 936.439 285.572 938.095 284.658C938.152 284.658 938.209 284.658 938.266 284.601C937.809 285.001 937.295 285.343 936.667 285.458C935.183 285.857 933.927 285.058 932.843 284.031ZM962.355 284.145C962.641 284.259 962.983 284.316 963.326 284.316C963.154 284.316 962.983 284.373 962.812 284.373C962.698 284.316 962.641 284.316 962.527 284.259C962.469 284.202 962.412 284.145 962.355 284.145ZM967.093 268.618C967.15 268.561 967.207 268.561 967.207 268.504C967.493 268.161 967.664 269.017 967.664 269.189C967.664 269.759 967.55 270.387 967.493 270.958C967.436 271.586 967.379 272.214 967.265 272.785C967.322 271.415 967.207 269.988 967.093 268.618ZM966.808 277.808C966.751 278.608 966.637 279.35 966.522 280.092C966.408 279.978 966.294 279.978 966.123 279.92C966.408 279.293 966.637 278.55 966.808 277.808ZM951.909 268.047C951.509 267.819 951.11 267.647 950.653 267.533C950.425 267.476 950.253 267.419 950.025 267.362C950.196 267.191 950.311 266.905 950.253 266.677C950.881 267.019 951.395 267.476 951.909 268.047ZM948.541 266.334C948.141 266.449 947.799 266.62 947.399 266.791C947.742 266.563 948.141 266.392 948.541 266.334ZM942.947 274.155C943.175 274.155 943.346 274.041 943.46 273.812C943.575 273.641 943.689 273.47 943.803 273.299C943.518 273.87 943.232 274.383 943.004 274.954C942.89 275.297 942.718 275.582 942.604 275.925C942.49 275.867 942.376 275.868 942.205 275.868C942.262 275.753 942.319 275.639 942.376 275.525C942.547 275.068 942.775 274.612 942.947 274.155ZM923.424 267.59C923.31 267.533 923.253 267.476 923.138 267.419C923.138 267.305 923.081 267.248 923.081 267.134C923.253 267.305 923.31 267.476 923.424 267.59ZM920.57 265.307C920.969 265.364 921.312 265.535 921.711 265.821C921.198 265.535 920.57 265.421 919.999 265.535C919.942 265.535 919.885 265.478 919.77 265.478C920.056 265.307 920.284 265.25 920.57 265.307ZM918.229 268.389C918.286 268.389 918.343 268.389 918.458 268.389C918.572 268.389 918.743 268.389 918.857 268.389C918.743 268.618 918.572 268.903 918.458 269.189C918.343 269.246 918.286 269.417 918.229 269.531C918.229 269.702 918.172 269.874 918.115 269.988C918.001 270.387 917.887 270.844 917.773 271.244C917.773 271.187 917.773 271.13 917.83 271.072C917.944 270.216 918.058 269.303 918.229 268.389ZM896.994 276.838C896.766 276.667 896.537 276.552 896.366 276.381C895.852 275.982 895.338 275.639 894.768 275.297C894.539 275.182 894.368 275.125 894.197 275.182C894.083 275.125 893.911 275.125 893.797 275.125C894.996 274.44 896.138 275.639 896.994 276.838Z" fill="#C0C6B9"/>
</svg>
