<svg width="581" height="550" viewBox="0 0 581 550" fill="none" xmlns="http://www.w3.org/2000/svg">
<path d="M177.085 199.334L170.102 153.436L167.164 153.804C163.312 154.3 159.673 155.917 156.767 158.394C154.938 159.954 153.284 161.829 152.029 163.735L129.269 197.637L126.344 234.421C128.035 235.86 129.774 236.7 131.453 237.035C137.302 237.901 146.437 228.997 146.437 228.997L177.093 199.234L177.085 199.334Z" fill="#E5B0A5" stroke="#151A0F" stroke-linecap="round" stroke-linejoin="round"/>
<path d="M152.963 545.51L104.942 548.914L104.609 544.273L115.664 531.409L114.959 525.133L114.519 520.584L114.122 516.74L149.839 514.164L150.235 518.007L150.676 522.557L152.963 545.51Z" fill="#F9FAFA" stroke="#151A0F" stroke-linecap="round" stroke-linejoin="round"/>
<path d="M150.677 522.557L114.96 525.133L114.519 520.584L150.236 518.008L150.677 522.557Z" stroke="#151A0F" stroke-linecap="round" stroke-linejoin="round"/>
<path d="M83.2365 445.971L107.975 518.36L155.697 514.933L137.361 431.416L197.496 343.808L127.523 315.471C127.523 315.471 101.947 355.77 86.5386 388.05C77.8786 406.12 76.7286 426.895 83.2446 445.871L83.2365 445.971Z" fill="#D29C37" stroke="#151A0F" stroke-linecap="round" stroke-linejoin="round"/>
<path d="M93.7665 410.694C97.6565 416.019 101.878 420.97 106.629 425.561C111.28 430.144 116.262 434.352 121.475 438.177C126.788 442.011 132.431 445.469 138.214 448.437C139.271 449.023 140.436 449.516 141.592 450.11L137.553 431.531L197.688 343.923L127.714 315.586C127.714 315.586 102.139 355.885 86.7305 388.165C85.6585 390.287 84.7785 392.524 83.9985 394.77C86.8675 400.314 90.2515 405.7 93.9575 410.81L93.7665 410.694Z" fill="#151A0F" stroke="#151A0F" stroke-linecap="round" stroke-linejoin="round"/>
<path d="M194.463 433.65L153.007 457.94L150.617 453.938L154.832 437.52L151.448 432.135L148.942 428.324L146.895 425.052L177.828 406.947L179.875 410.22L182.281 414.022L194.463 433.65Z" fill="#F9FAFA" stroke="#151A0F" stroke-linecap="round" stroke-linejoin="round"/>
<path d="M182.28 414.025L151.447 432.138L148.941 428.327L179.874 410.223L182.28 414.025Z" stroke="#151A0F" stroke-linecap="round" stroke-linejoin="round"/>
<path d="M264.896 275.838L160.34 262.305L153.51 287.644C135.281 280.977 120.431 278.492 108.497 278.446C80.3114 278.411 67.2112 299.338 68.5879 327.436C71.8884 394.408 137.468 431.324 137.468 431.324L187.542 402.102C154.299 373.577 144.624 342.612 144.624 342.612C232.676 388.337 276.91 345.509 264.904 275.738L264.896 275.838Z" fill="#D29C37" stroke="#151A0F" stroke-linecap="round" stroke-linejoin="round"/>
<path d="M288.279 120.603L280.464 70.0244C279.469 48.4777 256.37 29.8878 226.664 27.5251C196.958 25.1625 168.054 41.723 166.207 64.9497C164.359 88.1763 168.38 81.7749 173.929 88.9374C165.982 95.5281 160.782 104.143 159.997 114.012C158.158 137.139 181.282 157.938 211.686 160.356C242.09 162.774 249.099 162.93 249.099 162.93C272.725 164.809 291.922 144.166 288.271 120.703L288.279 120.603Z" fill="#151A0F" stroke="#151A0F" stroke-linecap="round" stroke-linejoin="round"/>
<path d="M244.646 105.395L244.532 110.603L244.013 151.189L258.413 155.545C250.098 161.705 237.887 165.147 224.729 164.101C211.57 163.054 200.922 158.195 193.654 151.197L210.211 146.093L213.353 129.289L216.797 111.206L224.3 107.689L234.306 102.968L241.393 99.6187L244.726 98.0781L244.622 105.694" fill="#E5B0A5"/>
<path d="M244.646 105.395L244.532 110.603L244.013 151.189L258.413 155.545C250.098 161.705 237.887 165.147 224.729 164.101C211.57 163.054 200.922 158.195 193.654 151.197L210.211 146.093L213.353 129.289L216.797 111.206L224.3 107.689L234.306 102.968L241.393 99.6187L244.726 98.0781L244.622 105.694" stroke="#151A0F" stroke-linecap="round" stroke-linejoin="round"/>
<path d="M155.815 209.479L163.462 235.668L163.942 237.211C164.8 240.289 167.226 242.588 170.376 243.34L171.955 243.666L173.825 244.116L251.081 250.261C251.081 250.261 251.38 250.284 251.887 250.224C255.431 249.804 269.56 246.213 270.311 214.071L274.8 160.157L260.89 155.941L252.659 153.481C250.846 154.842 248.841 156.086 246.652 157.116C238.927 160.916 229.242 162.854 218.975 162.037C208.707 161.221 198.279 157.382 191.091 151.895C189.958 151.002 188.925 150.117 187.9 149.133L180.294 151.437L167.149 154.003L165.386 171.117C164.895 177.298 163.307 183.391 160.845 189.114L156.456 198.897C154.982 202.29 154.689 205.979 155.615 209.463L155.815 209.479Z" fill="#344026" stroke="#151A0F" stroke-linecap="round" stroke-linejoin="round"/>
<path d="M242.998 102.154L212.195 135.015L215.99 115.053L242.998 102.154Z" fill="#151A0F" stroke="#151A0F" stroke-linecap="round" stroke-linejoin="round"/>
<path d="M208.488 83.2576C208.091 88.2418 203.787 91.9121 198.803 91.5157C193.818 91.1192 190.148 86.8147 190.545 81.8304C190.941 76.8462 195.245 73.1759 200.23 73.5723C205.214 73.9687 208.884 78.2733 208.488 83.2576Z" fill="#E5B0A5" stroke="#151A0F" stroke-linecap="round" stroke-linejoin="round"/>
<path d="M243.673 105.015C245.705 102.167 247.37 98.8895 248.445 95.464C253.43 95.8604 257.734 92.1901 258.131 87.2058C258.527 82.2216 257.598 82.549 256.23 80.8351C255.228 79.5516 253.804 78.5356 252.241 78.01L252.297 77.3122C250.678 77.4844 223.843 76.8548 234.341 57.125C229.522 60.955 208.948 62.3282 202.305 62.6024C201.588 64.0501 200.971 65.5057 200.453 66.9693C200.043 68.3411 199.625 69.8126 199.315 71.1923L196.005 87.5815C192.843 103.381 202.279 117.173 217.032 118.346C231.786 119.519 230.612 116.617 236.252 112.552" fill="#E5B0A5"/>
<path d="M243.673 105.015C245.705 102.167 247.37 98.8895 248.445 95.464C253.43 95.8604 257.734 92.1901 258.131 87.2058C258.527 82.2216 257.598 82.549 256.23 80.8351C255.228 79.5516 253.804 78.5356 252.241 78.01L252.297 77.3122C250.678 77.4844 223.843 76.8548 234.341 57.125C229.522 60.955 208.948 62.3282 202.305 62.6024C201.588 64.0501 200.971 65.5057 200.453 66.9693C200.043 68.3411 199.625 69.8126 199.315 71.1923L196.005 87.5815C192.843 103.381 202.279 117.173 217.032 118.346C231.786 119.519 230.612 116.617 236.252 112.552" stroke="#151A0F" stroke-linecap="round" stroke-linejoin="round"/>
<path d="M245 84.5577C246.08 82.3363 248.767 81.3462 251.088 82.4336C253.309 83.5131 254.299 86.2001 253.212 88.5212C252.132 90.7426 249.445 91.7327 247.124 90.6452" fill="#E5B0A5"/>
<path d="M245 84.5577C246.08 82.3363 248.767 81.3462 251.088 82.4336C253.309 83.5131 254.299 86.2001 253.212 88.5212C252.132 90.7426 249.445 91.7327 247.124 90.6452" stroke="#151A0F" stroke-linecap="round" stroke-linejoin="round"/>
<path d="M252.233 78.1101C247.703 77.0476 244.203 78.1736 241.657 81.1812" stroke="#151A0F" stroke-linecap="round" stroke-linejoin="round"/>
<path d="M248.545 95.4715C248.545 95.4715 245.754 95.2495 244.094 93.4121" stroke="#151A0F" stroke-linecap="round" stroke-linejoin="round"/>
<path d="M225.411 78.5846C225.316 79.7808 224.231 80.7981 222.936 80.695C221.64 80.5919 220.722 79.5158 220.825 78.2199C220.928 76.924 222.004 76.0064 223.3 76.1095C224.596 76.2126 225.514 77.2887 225.411 78.5846Z" fill="#151A0F"/>
<path d="M207.568 77.1666C207.473 78.3629 206.389 79.3801 205.093 79.277C203.797 79.174 202.879 78.0978 202.982 76.8019C203.086 75.506 204.162 74.5884 205.458 74.6915C206.753 74.7946 207.671 75.8707 207.568 77.1666Z" fill="#151A0F"/>
<path d="M211.834 79.0117L207.132 85.1582C206.686 85.7246 206.73 86.4303 207.189 86.9684L209.383 89.6508" stroke="#151A0F" stroke-linecap="round" stroke-linejoin="round"/>
<path d="M210.375 94.8452C213.103 95.8647 217.537 95.6154 218.544 91.7832" stroke="#151A0F" stroke-linecap="round" stroke-linejoin="round"/>
<path d="M233.861 88.3854C233.655 90.9773 231.395 92.9042 228.803 92.698C226.212 92.4919 224.285 90.232 224.491 87.6402C224.697 85.0484 226.957 83.1215 229.549 83.3276C232.141 83.5338 234.067 85.7936 233.861 88.3854Z" fill="#D58573"/>
<path d="M226.619 70.9578L221.308 69.6325C220.71 69.585 220.366 68.8555 220.514 68.2653C220.569 67.5675 221.299 67.2242 221.889 67.3715L227.2 68.6968C227.799 68.7444 228.142 69.4739 227.995 70.0641C227.939 70.7619 227.21 71.1051 226.619 70.9578Z" fill="#151A0F"/>
<path d="M208.633 68.8244L204.191 69.1733C203.593 69.1257 203.019 68.7791 202.974 68.0734C203.022 67.4753 203.369 66.9009 204.074 66.8568L208.516 66.5078C209.114 66.5554 209.689 66.902 209.733 67.6077C209.685 68.2058 209.338 68.7802 208.633 68.8244Z" fill="#151A0F"/>
<path d="M266.745 158.014C257.558 166.311 241.83 171.08 224.386 169.692C206.941 168.305 194.294 162.082 186.248 153.517L193.854 151.213C201.123 158.212 212.269 163.111 224.929 164.118C237.589 165.125 250.299 161.722 258.614 155.561L266.844 158.022L266.745 158.014Z" stroke="#151A0F" stroke-linecap="round" stroke-linejoin="round"/>
<path d="M18.1074 167.527L101.643 174.171L84.4385 207.613L1.00146 200.976L18.1074 167.527Z" fill="#151A0F" stroke="#151A0F" stroke-linecap="round" stroke-linejoin="round"/>
<path d="M140.421 177.257L56.9844 170.621L50.4673 252.562L133.903 259.198L140.421 177.257Z" fill="#C0C6B9" stroke="#151A0F" stroke-linecap="round" stroke-linejoin="round"/>
<path d="M56.9845 170.621L18.4063 167.553L11.8892 249.494L50.4673 252.562L56.9845 170.621Z" fill="#C0C6B9" stroke="#151A0F" stroke-linecap="round" stroke-linejoin="round"/>
<path d="M139.363 191.819L136.493 227.905L64.3209 222.165L56.9844 170.621L134.539 176.789L139.363 191.819Z" fill="#151A0F" stroke="#151A0F" stroke-linecap="round" stroke-linejoin="round"/>
<path d="M140.52 177.265L56.9844 170.621L68.6876 206.361L152.124 212.998L140.52 177.265Z" fill="#C0C6B9" stroke="#151A0F" stroke-linecap="round" stroke-linejoin="round"/>
<path d="M43.9253 169.583L31.5644 168.6L29.1621 198.804L41.523 199.787L43.9253 169.583Z" fill="#F9FAFA" stroke="#151A0F" stroke-miterlimit="10"/>
<path d="M125.149 228.007C125.075 232.716 124.514 235.982 127.322 236.005C130.129 236.027 132.639 232.214 132.613 227.497C132.686 222.788 130.388 218.894 127.481 218.863C124.574 218.833 125.123 223.29 125.049 227.999L125.149 228.007Z" fill="#E5B0A5" stroke="#151A0F" stroke-linecap="round" stroke-linejoin="round"/>
<path d="M287.744 163.897L274.808 160.059C258.584 178.632 238.311 250.651 238.311 250.651L136.516 242.755L135.246 238.541C134.364 235.763 133.067 233.152 131.14 230.892C125.818 224.65 119.796 222.165 109.781 224.478C106.819 225.145 105.17 228.224 106.152 231.011C105.495 232.965 105.444 234.867 108.032 236.377L108.999 239.363C109.562 241.113 111.069 242.337 112.848 242.679L123.235 244.508C123.235 244.508 120.51 257.332 124.909 258.786L165.401 271.837C202.836 284.244 252.025 297.686 265.467 283.808C272.35 276.732 279.567 250.321 279.567 250.321L301.309 188.851C304.358 178.259 298.312 167.245 287.737 163.997L287.744 163.897Z" fill="#E5B0A5" stroke="#151A0F" stroke-linecap="round" stroke-linejoin="round"/>
<path d="M107.932 236.37C107.932 236.37 114.128 234.154 123.998 237.447L107.932 236.37Z" fill="#E5B0A5"/>
<path d="M107.932 236.37C107.932 236.37 114.128 234.154 123.998 237.447" stroke="#151A0F" stroke-linecap="round" stroke-linejoin="round"/>
<path d="M106.06 230.903C106.06 230.903 113.16 228.659 123.03 231.952L106.06 230.903Z" fill="#E5B0A5"/>
<path d="M106.06 230.903C106.06 230.903 113.16 228.659 123.03 231.952" stroke="#151A0F" stroke-linecap="round" stroke-linejoin="round"/>
<path d="M24.3642 256.607C19.3855 251.095 17.7361 245.346 20.5034 237.039C20.5351 236.641 20.6665 236.25 20.8058 235.759C21.7494 232.725 24.2166 230.714 26.1707 231.371C26.9523 231.634 27.5107 232.18 27.846 233.009C28.5835 232.566 29.3968 232.43 30.1784 232.693C31.2591 232.979 31.8776 234.032 32.1812 235.26L32.4803 235.283C33.2098 234.94 34.1229 234.812 34.8048 235.067C35.8776 235.453 36.6037 236.414 36.8914 237.841C36.9911 237.849 37.0828 237.957 37.1746 238.064C37.9041 237.721 38.6098 237.677 39.2997 237.832C40.7632 238.35 41.6253 240.124 41.4509 242.317C41.3954 243.015 41.3399 243.712 41.0771 244.494C40.9299 245.084 38.6802 251.927 38.6802 251.927L48.1503 252.681C48.4562 258.924 40.1994 260.575 33.09 260.411C29.7846 260.349 26.5822 258.99 24.3642 256.607Z" fill="#E5B0A5" stroke="#151A0F" stroke-linecap="round" stroke-linejoin="round"/>
<path d="M37.2823 237.973C37.2823 237.973 34.4142 243.764 33.1694 250.587" stroke="#151A0F" stroke-linecap="round" stroke-linejoin="round"/>
<path d="M32.2653 235.469C32.2653 235.469 29.3971 241.26 28.1523 248.083" stroke="#151A0F" stroke-linecap="round" stroke-linejoin="round"/>
<path d="M27.7386 233.102C27.7386 233.102 24.8704 238.893 23.6255 245.716" stroke="#151A0F" stroke-linecap="round" stroke-linejoin="round"/>
<path d="M431.781 96.815L434.981 96.415C465.981 94.115 482.681 136.815 501.081 187.715L443.981 194.815L437.481 142.615" fill="#D29C37"/>
<path d="M431.781 96.815L434.981 96.415C465.981 94.115 482.681 136.815 501.081 187.715L443.981 194.815L437.481 142.615" stroke="#151A0F" stroke-miterlimit="10"/>
<path d="M475.481 191.016C485.981 162.116 491.681 139.516 503.581 124.616C505.681 121.916 508.281 119.516 510.881 117.316C515.681 113.116 521.381 109.316 527.781 108.216C529.981 107.816 533.181 107.416 534.181 110.016C534.881 111.816 533.481 113.416 532.381 114.716C532.381 114.716 535.381 114.316 535.581 116.716C535.781 118.816 533.481 120.216 533.481 120.216C533.481 120.216 535.381 120.116 535.581 122.516C535.781 125.316 532.581 126.216 532.581 126.216C532.581 126.216 535.281 126.816 535.981 129.016C536.381 130.216 536.381 131.516 535.681 132.616C534.981 133.716 533.881 134.516 532.981 135.316C529.081 137.916 523.681 141.316 520.781 142.316C519.381 165.916 517.381 188.516 513.781 207.816C511.981 217.616 506.181 224.616 498.781 228.416C482.581 236.816 462.781 228.016 457.481 210.616L452.381 193.916L475.581 191.016H475.481Z" fill="#D58573" stroke="#151A0F" stroke-linecap="round" stroke-linejoin="round"/>
<path d="M514.781 131.615C516.281 125.915 517.181 120.015 517.481 114.215L517.781 106.415C517.381 101.615 512.581 100.115 509.781 106.215C509.781 106.215 501.381 121.215 500.981 128.115" fill="#D58573"/>
<path d="M514.781 131.615C516.281 125.915 517.181 120.015 517.481 114.215L517.781 106.415C517.381 101.615 512.581 100.115 509.781 106.215C509.781 106.215 501.381 121.215 500.981 128.115" stroke="#151A0F" stroke-linecap="round" stroke-linejoin="round"/>
<path d="M475.481 191.016L472.381 200.816" stroke="#151A0F" stroke-linecap="round" stroke-linejoin="round"/>
<path d="M523.182 131.417C523.182 131.417 526.482 128.817 530.082 127.217" stroke="#151A0F" stroke-linecap="round" stroke-linejoin="round"/>
<path d="M529.781 121.016C527.581 121.716 525.282 122.816 523.082 124.116" stroke="#151A0F" stroke-linecap="round" stroke-linejoin="round"/>
<path d="M528.481 115.516C526.581 116.116 524.681 117.016 522.981 118.316" stroke="#151A0F" stroke-linecap="round" stroke-linejoin="round"/>
<path d="M521.781 111.416C521.781 111.416 516.581 116.416 522.981 118.216C522.981 118.216 517.781 122.516 523.181 124.016C523.181 124.016 517.481 130.016 523.281 131.416C523.281 131.416 519.081 136.216 525.381 137.816" stroke="#151A0F" stroke-linecap="round" stroke-linejoin="round"/>
<path d="M521.283 541.015L577.682 534.015L577.083 528.515L561.283 516.115L560.682 508.615L560.182 503.315L559.783 498.715L517.583 503.915L518.083 508.515L518.583 513.815L521.283 541.015Z" fill="white" stroke="#151A0F" stroke-linecap="round" stroke-linejoin="round"/>
<path d="M518.583 513.814L560.682 508.614L560.182 503.314L518.083 508.514L518.583 513.814Z" stroke="#151A0F" stroke-linecap="round" stroke-linejoin="round"/>
<path d="M579.283 409.415L567.083 499.115L510.883 506.115L512.983 405.015L423.183 317.015L497.983 268.115C497.983 268.115 536.883 309.015 562.183 343.015C576.283 362.015 582.483 385.915 579.283 409.415Z" fill="#344026" stroke="#151A0F" stroke-linecap="round" stroke-linejoin="round"/>
<path d="M559.082 371.015C555.782 378.015 551.982 384.815 547.582 391.215C543.282 397.615 538.482 403.615 533.182 409.215C527.882 414.915 522.182 420.115 516.082 424.915C514.882 425.815 513.782 426.715 512.582 427.615L513.082 405.115L423.282 317.115L498.082 268.215C498.082 268.215 536.982 309.115 562.282 343.115C563.982 345.415 565.482 347.715 566.982 350.115C564.882 357.315 562.282 364.315 559.182 371.015H559.082Z" fill="#151A0F" stroke="#151A0F" stroke-linecap="round" stroke-linejoin="round"/>
<path d="M447.382 420.616L501.082 439.416L502.882 434.216L494.382 416.116L497.082 409.016L498.982 404.116L500.681 399.816L460.582 385.816L458.982 390.016L457.082 395.116L447.382 420.616Z" fill="white" stroke="#151A0F" stroke-linecap="round" stroke-linejoin="round"/>
<path d="M457.082 395.116L497.082 409.016L498.982 404.116L458.982 390.016L457.082 395.116Z" stroke="#151A0F" stroke-linecap="round" stroke-linejoin="round"/>
<path d="M329.482 253.616L447.782 214.016L461.482 241.816C481.082 229.916 497.782 223.616 511.682 220.816C544.382 214.316 564.382 235.616 569.182 268.616C580.682 347.116 513.082 405.016 513.082 405.016L448.182 382.616C480.282 341.916 484.382 303.716 484.382 303.716C392.682 377.016 331.482 337.316 329.482 253.616Z" fill="#344026" stroke="#151A0F" stroke-linecap="round" stroke-linejoin="round"/>
<path d="M312.281 111.614L322.181 284.814C382.881 269.414 451.581 254.714 459.581 235.114L440.981 129.914L435.081 96.4141L420.581 98.2141L337.681 108.514L312.281 111.714V111.614Z" fill="#D29C37" stroke="#151A0F" stroke-miterlimit="10"/>
<path d="M361.082 105.515L362.082 51.2148L395.882 74.6149V101.215L420.582 98.1149C420.382 121.215 401.582 139.815 378.382 139.815C355.182 139.815 342.382 126.515 337.582 108.415L360.982 105.515H361.082Z" fill="#D58573" stroke="#151A0F" stroke-linecap="round" stroke-linejoin="round"/>
<path d="M396.381 69.6152L395.881 96.9152L377.381 69.6152H396.381Z" fill="#151A0F" stroke="#151A0F" stroke-linecap="round" stroke-linejoin="round"/>
<path d="M399.982 48.2133C399.982 52.7133 403.582 56.3133 408.082 56.3133C412.582 56.3133 416.182 52.7133 416.182 48.2133C416.182 43.7133 412.582 40.1133 408.082 40.1133C403.582 40.1133 399.982 43.7133 399.982 48.2133Z" fill="#D58573" stroke="#151A0F" stroke-linecap="round" stroke-linejoin="round"/>
<path d="M373.082 72.4141C377.882 76.5141 383.782 79.0141 389.882 79.0141C403.182 79.0141 412.582 67.3141 410.882 53.0141L409.082 38.1141C408.982 36.8141 408.682 35.5141 408.382 34.2141C407.982 32.8141 407.582 31.4141 406.982 30.1141C406.482 29.0141 405.982 27.9141 405.382 26.9141C403.882 24.2141 401.982 21.7141 399.782 19.6141C398.382 18.2141 396.782 17.0141 395.082 15.9141C391.082 13.4141 386.482 11.9141 381.882 11.9141C374.182 11.9141 367.782 15.8141 364.082 21.9141C363.282 23.2141 362.682 24.5141 362.182 25.9141C360.882 29.5141 360.382 33.5141 360.882 37.9141L361.082 39.6141V40.3141C359.682 40.7141 358.382 41.5141 357.382 42.5141C355.982 43.9141 355.182 45.9141 355.182 48.0141C355.182 52.5141 358.782 56.1141 363.282 56.1141C364.082 59.3141 365.282 62.3141 366.882 65.0141" fill="#D58573"/>
<path d="M373.082 72.4141C377.882 76.5141 383.782 79.0141 389.882 79.0141C403.182 79.0141 412.582 67.3141 410.882 53.0141L409.082 38.1141C408.982 36.8141 408.682 35.5141 408.382 34.2141C407.982 32.8141 407.582 31.4141 406.982 30.1141C406.482 29.0141 405.982 27.9141 405.382 26.9141C403.882 24.2141 401.982 21.7141 399.782 19.6141C398.382 18.2141 396.782 17.0141 395.082 15.9141C391.082 13.4141 386.482 11.9141 381.882 11.9141C374.182 11.9141 367.782 15.8141 364.082 21.9141C363.282 23.2141 362.682 24.5141 362.182 25.9141C360.882 29.5141 360.382 33.5141 360.882 37.9141L361.082 39.6141V40.3141C359.682 40.7141 358.382 41.5141 357.382 42.5141C355.982 43.9141 355.182 45.9141 355.182 48.0141C355.182 52.5141 358.782 56.1141 363.282 56.1141C364.082 59.3141 365.282 62.3141 366.882 65.0141" stroke="#151A0F" stroke-linecap="round" stroke-linejoin="round"/>
<path d="M360.282 23.8141C360.282 20.1141 363.282 17.0141 367.082 17.0141C370.882 17.0141 367.682 17.0141 367.882 17.0141C367.582 16.3141 367.482 15.6141 367.482 14.8141C367.482 11.4141 370.182 8.71407 373.582 8.71407C376.982 8.71407 377.182 9.61406 378.282 10.9141C378.082 10.2141 377.882 9.51407 377.882 8.71407C377.882 5.01407 380.882 1.91406 384.682 1.91406C388.482 1.91406 389.182 3.11406 390.382 5.01406C391.382 2.61406 393.782 0.914062 396.582 0.914062C399.382 0.914062 403.182 3.71406 403.382 7.31406C404.382 6.61406 405.682 6.31406 406.982 6.31406C410.682 6.31406 413.782 9.31407 413.782 13.1141C413.782 16.9141 413.782 13.9141 413.682 14.2141C416.282 15.1141 418.182 17.6141 418.182 20.6141C418.182 30.8141 408.582 34.1141 405.982 32.6141C404.482 31.7141 403.882 29.7141 404.182 27.3141C401.782 28.9141 399.382 29.4141 397.682 28.4141C396.782 27.9141 396.082 27.0141 395.782 25.8141C394.882 26.2141 393.982 26.4141 393.082 26.2141C392.682 26.2141 391.082 25.8141 389.582 25.6141C385.182 24.8141 380.682 25.8141 377.182 28.6141C375.082 30.3141 373.082 32.8141 372.182 36.5141L370.382 46.6141C370.382 46.6141 367.982 41.7141 361.182 40.3141V39.6141L360.882 37.9141C360.482 34.2141 360.682 30.8141 361.582 27.7141C360.782 26.6141 360.182 25.2141 360.182 23.6141L360.282 23.8141Z" fill="#151A0F" stroke="#151A0F" stroke-linecap="round" stroke-linejoin="round"/>
<path d="M367.082 48.4145C367.082 46.1145 365.282 44.3145 362.982 44.3145C360.682 44.3145 358.882 46.1145 358.882 48.4145C358.882 50.7145 360.682 52.5145 362.982 52.5145" stroke="#151A0F" stroke-linecap="round" stroke-linejoin="round"/>
<path d="M399.982 32.6139C397.582 31.8139 395.082 31.9139 392.582 32.6139L395.582 47.7139C395.982 49.9139 394.381 51.9139 392.181 52.0139H390.882" stroke="#151A0F" stroke-linecap="round" stroke-linejoin="round"/>
<path d="M396.382 54.1133C396.382 54.1133 390.182 57.9133 386.082 51.6133" stroke="#151A0F" stroke-linecap="round" stroke-linejoin="round"/>
<path d="M386.882 33.0131C383.882 31.6131 381.382 31.9131 379.182 33.0131" stroke="#151A0F" stroke-linecap="round" stroke-linejoin="round"/>
<path d="M397.682 40.7141C397.682 41.7141 398.482 42.5141 399.482 42.5141C400.482 42.5141 401.282 41.7141 401.282 40.7141C401.282 39.7141 400.482 38.9141 399.482 38.9141C398.482 38.9141 397.682 39.7141 397.682 40.7141Z" fill="#151A0F"/>
<path d="M381.781 40.7141C381.781 41.7141 382.581 42.5141 383.581 42.5141C384.581 42.5141 385.381 41.7141 385.381 40.7141C385.381 39.7141 384.581 38.9141 383.581 38.9141C382.581 38.9141 381.781 39.7141 381.781 40.7141Z" fill="#151A0F"/>
<path d="M503.911 133.513L495.657 127.774C493.816 126.488 491.631 125.678 489.368 125.56L457.419 123.691C455.548 123.583 454.669 126.068 456.243 127.136L519.866 171.474C521.441 172.542 523.477 170.871 522.616 169.097L507.9 138.207C506.981 136.34 505.635 134.614 503.852 133.421L503.911 133.513Z" stroke="#151A0F" stroke-linecap="round" stroke-linejoin="round"/>
<path d="M500.703 131.289L505.375 124.609C509.589 127.617 515.357 126.555 518.364 122.341C520.914 118.769 520.539 114.081 517.8 110.904" stroke="#151A0F" stroke-linecap="round" stroke-linejoin="round"/>
<path d="M513.289 232.916C513.289 232.916 508.759 237.574 488.883 226.676L457.904 271.06L383.237 219.008L414.182 174.774C395.996 159.205 398.927 153.237 398.927 153.237L439.699 124.179C443.636 121.439 448.294 120.046 453.028 120.408L469.228 121.394L475.383 121.762C475.986 125.373 478.125 129.173 480.609 132.5C486.69 140.51 495.06 146.433 504.595 149.304C508.583 150.523 512.915 151.267 516.56 150.514L519.018 156.045L525.588 170.956C527.533 175.266 527.83 180.229 526.625 184.851L513.405 233.1L513.289 232.916Z" fill="#C0C6B9" stroke="#151A0F" stroke-linecap="round" stroke-linejoin="round"/>
<g style="mix-blend-mode:screen">
<path d="M513.289 232.916C513.289 232.916 508.759 237.574 488.883 226.676L457.904 271.06L383.237 219.008L414.182 174.774C395.996 159.205 398.927 153.237 398.927 153.237L439.699 124.179C443.636 121.439 448.294 120.046 453.028 120.408L469.228 121.394L475.383 121.762C475.986 125.373 478.125 129.173 480.609 132.5C486.69 140.51 495.06 146.433 504.595 149.304C508.583 150.523 512.915 151.267 516.56 150.514L519.018 156.045L525.588 170.956C527.533 175.266 527.83 180.229 526.625 184.851L513.405 233.1L513.289 232.916Z" stroke="#151A0F" stroke-miterlimit="10"/>
</g>
<path d="M518.901 155.864C509.747 155.843 498.171 153.615 488.285 146.717C478.457 139.911 472.367 129.846 469.112 121.213L475.266 121.58C475.87 125.191 478.009 128.992 480.493 132.318C486.574 140.328 494.944 146.252 504.479 149.122C508.467 150.341 512.799 151.086 516.443 150.333L518.901 155.864Z" fill="#728C54" stroke="#151A0F" stroke-linecap="round" stroke-linejoin="round"/>
<path d="M414.216 174.625L435.037 144.758" stroke="#151A0F" stroke-linecap="round" stroke-linejoin="round"/>
<path d="M488.792 226.735L509.705 196.811" stroke="#151A0F" stroke-linecap="round" stroke-linejoin="round"/>
<path d="M315.482 111.215L312.282 111.615C281.582 117.015 275.882 162.515 270.582 216.315L327.682 209.215L320.482 151.415" fill="#D29C37"/>
<path d="M315.482 111.215L312.282 111.615C281.582 117.015 275.882 162.515 270.582 216.315L327.682 209.215L320.482 151.415" stroke="#151A0F" stroke-miterlimit="10"/>
<path d="M275.781 215.714L317.581 210.514L318.381 216.814C318.381 216.814 380.281 208.914 388.481 210.114C390.881 210.414 391.881 213.514 390.081 215.114C388.681 216.314 385.881 217.414 380.581 217.714C380.581 217.714 387.481 222.614 399.281 220.914C400.681 220.714 402.181 221.314 402.981 222.514C403.881 223.914 403.881 225.914 399.481 228.014C399.481 228.014 404.381 232.314 397.481 235.014C397.481 235.014 398.981 239.514 394.381 239.814C394.381 239.814 394.881 247.214 375.181 244.314L367.581 243.214L324.581 257.514C316.981 260.014 308.881 260.714 301.081 259.114C282.081 255.214 273.881 240.614 276.081 215.714H275.781Z" fill="#D58573" stroke="#151A0F" stroke-linecap="round" stroke-linejoin="round"/>
<path d="M397.281 235.015C397.281 235.015 384.581 236.815 379.281 234.115" stroke="#151A0F" stroke-linecap="round" stroke-linejoin="round"/>
<path d="M318.382 216.814L301.082 219.014" stroke="#151A0F" stroke-linecap="round" stroke-linejoin="round"/>
<path d="M399.282 228.014C399.282 228.014 386.882 229.314 382.182 226.814" stroke="#151A0F" stroke-linecap="round" stroke-linejoin="round"/>
<path d="M394.081 239.715C394.081 239.715 389.381 240.815 378.981 239.215" stroke="#151A0F" stroke-linecap="round" stroke-linejoin="round"/>
</svg>
